<svg width="192" height="186" viewBox="0 0 192 186" fill="none" xmlns="http://www.w3.org/2000/svg">
<g id="Group 766">
<circle id="Ellipse 367" cx="86.5253" cy="86.5253" r="86.5253" transform="matrix(-1 0 0 1 178.156 0)" fill="#0B1A52"/>
<g id="Group 740">
<g id="Group 739">
<path id="Vector 914" d="M123.067 61.336C144.071 87.1269 131.818 113.615 123.067 123.635C122.456 123.635 118.635 122.951 108.238 120.216C97.8407 117.48 83.6889 119.076 77.9127 120.216L65.3494 122.815L55.3854 115.884L51.0533 111.118L48.3755 98.8025C37.9639 57.4151 96.8114 29.0974 123.067 61.336Z" fill="#FFBB56"/>
<path id="Vector 782" d="M190.117 173.855C185.929 180.064 174.608 190.057 162.825 180.353C148.095 168.223 174.088 142.23 172.789 154.36C171.489 166.49 153.294 169.523 151.561 156.526C149.828 143.53 138.131 127.068 129.034 126.634C104.774 117.537 93.0767 116.237 72.7155 121.436C51.4879 124.035 49.3218 133.133 50.1883 137.031C51.0547 140.93 61.8851 137.898 69.683 137.898C77.4809 137.898 90.9106 136.598 99.5749 139.631" stroke="white" stroke-width="2" stroke-linecap="round"/>
<path id="Vector 783" d="M119.07 153.494C109.684 151.761 89.265 148.555 82.6801 149.595C74.449 150.894 64.485 144.396 60.1529 139.198" stroke="white" stroke-width="2" stroke-linecap="round"/>
<path id="Vector 784" d="M51.4867 130.533C42.8224 122.735 25.4938 106.793 25.4938 105.406C25.4938 103.674 28.0931 99.7746 39.7899 104.107C49.1474 107.572 52.9308 112.193 53.6528 114.071L63.1836 121.435" stroke="white" stroke-width="2" stroke-linecap="round"/>
<path id="Vector 806" d="M67.9492 137.898C66.0719 136.309 60.7578 133.479 54.5195 134.865" stroke="white" stroke-width="2" stroke-linecap="round"/>
<path id="Vector 807" d="M111.271 152.628C112.715 157.682 114.477 169.87 109.971 178.187" stroke="white" stroke-width="2" stroke-linecap="round"/>
<path id="Vector 910" d="M123.067 123.635C131.818 113.615 144.071 87.1269 123.067 61.336C96.8114 29.0974 37.9639 57.4151 48.3755 98.8025" stroke="white" stroke-width="2" stroke-linecap="round"/>
<path id="Vector" d="M89.8324 113.328C86.1133 109.918 83.1082 105.821 80.5564 101.479C79.2554 99.2638 78.066 96.9848 76.9455 94.6733C75.7842 92.2787 74.6434 89.8585 73.6644 87.3827C72.6139 84.7245 71.8249 81.9594 71.5437 79.1061C71.3026 76.6662 71.3001 73.9935 72.5133 71.7873C73.4574 70.0714 75.423 68.6593 77.4559 68.952C79.7819 69.2857 80.9569 71.7873 81.9904 73.6119C83.4431 76.175 84.9145 78.7287 86.3434 81.3064C87.572 83.523 88.7154 85.796 89.4132 88.2385C89.3357 88.6261 89.2709 89.0164 89.207 89.4109C89.1244 89.9201 89.7821 90.099 89.9704 89.6223C90.0079 89.5273 90.0462 89.4323 90.0846 89.3382C90.5626 89.4374 91.1581 89.054 91.0005 88.4293C90.9298 88.1486 90.8523 87.8705 90.7705 87.5932C90.7901 87.5358 90.8105 87.4785 90.8301 87.4203C91.8466 84.3454 93.1263 81.3595 94.6616 78.5105C96.0982 75.8438 97.6948 73.1934 99.8675 71.0607C101.896 69.0684 104.554 67.5048 107.439 67.3319C109.912 67.1839 112.626 68.1372 114.106 70.2194C115.805 72.6106 115.776 75.8669 115.387 78.6568C114.972 81.6316 113.981 84.5071 112.695 87.2098C111.373 89.9843 109.759 92.6065 108.053 95.1568C106.397 97.6327 104.695 100.085 102.877 102.443C99.433 106.91 95.5017 111.092 90.7091 114.104C90.4143 113.85 90.1221 113.593 89.8349 113.33L89.8324 113.328Z" fill="white"/>
<path id="Vector 911" d="M115.173 71.2155C119.332 83.6921 100.443 105.006 90.4795 114.104C77.4831 104.573 65.3529 72.082 74.8837 69.0495C84.4144 66.017 89.613 79.8799 89.613 89.8438C90.0463 81.1795 109.974 55.6197 115.173 71.2155Z" stroke="#845919" stroke-width="2" stroke-linecap="round"/>
<path id="Vector 912" d="M126.866 66.8837C135.53 54.7536 154.852 32.9195 162.823 42.6236C172.787 54.7536 152.859 78.5805 144.628 76.8477C136.397 75.1148 158.057 59.9522 172.787 66.8837C187.516 73.8151 160.224 94.1763 144.628 90.2774C162.823 103.274 154.592 112.805 133.364 101.541" stroke="white" stroke-width="2" stroke-linecap="round"/>
<path id="Vector 913" d="M57.4498 62.058C51.1554 48.5454 36.1629 23.54 26.5482 31.6187C14.5298 41.7172 29.7533 68.7928 38.1626 68.5978C46.5719 68.4029 28.057 49.5273 12.3068 53.6418C-3.44347 57.7563 19.655 82.7746 35.7013 81.8001C15.4324 91.2417 21.7773 102.12 44.7097 94.9372" stroke="white" stroke-width="2" stroke-linecap="round"/>
</g>
<path id="Vector 915" d="M63.1851 31.8396C66.9397 23.7529 72.8025 7.31954 66.2176 6.27982C57.9865 4.98017 73.5821 31.8396 82.6797 22.3088" stroke="white" stroke-width="2" stroke-linecap="round"/>
<path id="Vector 916" d="M98.2734 2.81421L91.342 13.6446" stroke="white" stroke-width="2" stroke-linecap="round"/>
<path id="Vector 917" d="M119.326 40.0648C124.128 34.2316 132.017 21.1764 125.145 15.6215C116.556 8.67793 121.974 32.6797 131.587 27.8431C139.277 23.9739 135.835 13.1196 133.152 8.17618" stroke="white" stroke-width="2" stroke-linecap="round"/>
</g>
</g>
</svg>
