<svg width="259" height="360" viewBox="0 0 259 360" fill="none" xmlns="http://www.w3.org/2000/svg">
<path d="M216.582 290.364C217.841 289.106 219.054 287.791 220.312 286.634C223.895 283.354 227.827 280.737 232.556 279.378C235.23 278.625 237.948 278.468 240.667 278.827C244.048 279.277 247.171 280.445 249.99 282.411C254.124 285.286 256.843 289.162 258.202 294.004C259.359 298.081 259.157 302.215 258.247 306.304C257.236 311.146 255.169 315.527 252.552 319.717C250.137 323.603 247.261 327.131 244.138 330.456C239.397 335.545 234.106 339.982 228.512 344.116C220.581 349.088 211.677 348.332 201.799 341.846C197.722 338.667 193.835 335.342 190.251 331.613C185.713 326.973 181.68 321.93 178.659 316.189C176.446 311.954 174.929 307.472 174.424 302.676C174.019 298.497 174.469 294.408 176.288 290.577C178.254 286.443 181.231 283.321 185.208 281.096C188.589 279.232 192.217 278.423 196.048 278.524C198.924 278.625 201.698 279.378 204.259 280.591C209 282.86 212.932 286.14 216.358 290.072C216.459 290.218 216.504 290.274 216.56 290.375L216.582 290.364Z" fill="#0B1A52"/>
<path d="M193.318 373.829C175.322 382.715 148.8 387.376 134.669 369.403C112.561 340.567 131.355 275.121 140.914 242.736C159.854 181.502 187.454 123.74 213.1 65.3158C219.222 49.9934 233.679 18.6074 232.107 3.59963C232.051 3.28509 231.983 3.10536 231.961 3.01549C231.927 2.98179 231.961 2.99303 232.073 3.19523C232.264 3.50976 232.972 4.1276 233.309 4.23993C233.668 4.3635 233.41 4.23993 232.736 4.20623C232.579 4.18376 232.388 4.18376 232.163 4.18376H232.006H231.927C231.86 4.18376 231.893 4.18376 232.006 4.18376C232.298 4.18376 232.713 4.09389 232.871 4.08266C233.758 3.8917 233.814 3.77936 233.691 3.84676C230.456 5.6778 227.276 8.68834 224.12 11.7214C211.224 24.4375 199.395 38.2321 187.522 52.4423C158.809 87.0636 131.445 123.527 98.8566 155.171C88.1849 164.956 69.0545 183.199 53.1143 177.852C28.1538 165.641 45.3633 121.988 47.1045 100.959C47.3067 98.2408 47.6437 95.4436 46.9584 93.3767C46.936 93.3318 46.9584 93.4553 47.1494 93.68C47.3291 93.9047 47.6998 94.208 48.0256 94.354C48.3514 94.5113 48.5873 94.545 48.621 94.545C47.6998 95.1403 46.8573 96.1626 46.0148 97.2298C30.2993 117.259 22.2675 142.04 4.6311 161.395C0.407349 165.899 -3.97367 170.539 -9.51171 173.549C-14.0837 176.515 -18.8579 178.885 -24.4072 179.75C-35.2698 181.727 -46.4133 175.785 -51.9064 166.551C-53.1983 164.27 -55.8943 160.575 -52.3221 158.834C-51.0752 158.294 -49.817 158.71 -48.8959 159.552C-47.2895 160.856 -45.3911 162.35 -43.5601 163.406C-38.7634 166.36 -32.6188 167.719 -27.6424 165.607C-24.2836 164.304 -20.8237 162.013 -18.4422 159.182C-8.78155 149.24 -1.81686 137.962 5.74319 125.886C12.3035 115.675 18.6953 104.329 26.3227 94.1743C32.1753 85.8953 43.0155 77.4478 53.8332 81.7502C66.0439 87.7937 59.4949 107.542 57.8436 117.641C55.9227 128.279 47.1606 159.968 58.877 165.472L57.6077 165.034C87.9939 165.315 172.705 31.874 198.002 2.77959C203.372 -3.6459 208.382 -9.48725 215.178 -15.0927C219.166 -18.2717 224.749 -21.844 230.882 -22.0462C231.893 -22.0462 232.871 -22.1248 233.927 -22.0462C243.531 -21.9338 253.203 -16.0138 256.618 -6.36437C265.043 15.9002 245.43 54.4531 236.712 75.3921C235.499 78.3015 233.286 83.0757 231.905 85.9627C218.784 112.968 205.821 139.535 193.689 166.865C179.276 201.228 113.314 344.712 150.934 367.752C161.943 373.953 178.198 371.088 189.97 366.741C194.644 364.809 197.8 371.447 193.329 373.863L193.318 373.829Z" fill="#0B1A52"/>
</svg>
