<svg width="141" height="121" viewBox="0 0 141 121" fill="none" xmlns="http://www.w3.org/2000/svg">
<g id="Group 718">
<path id="Vector 781" d="M53.1186 79.2824C50.439 77.2573 47.2809 67.275 46.0368 62.537L47.9692 59.4931L44.1195 51.5494C44.631 51.3177 46.6346 50.6416 50.557 49.7905C55.46 48.7267 82.4074 45.7757 91.4366 45.4456C98.66 45.1815 105.104 45.6176 107.422 45.8687L99.5111 50.753L75.7807 76.5373L73.9468 76.2112L66.4104 70.5155C63.5939 72.273 56.9925 76.487 53.1186 79.2824Z" fill="#FFBB56"/>
<g id="Group 110">
<path id="Vector 772" d="M57.332 35.5578C58.1685 37.5577 69.5307 34.7244 75.1073 33.0578C84.1699 30.7467 101.247 30.915 111.703 30.2007C122.159 29.4864 125.993 19.1293 122.159 13.0579C98.8071 -9.44193 52.4525 6.27225 50.3613 6.98653C48.2701 7.70081 48.2701 8.41509 49.3157 11.2722C50.3613 14.1293 56.2864 33.0578 57.332 35.5578Z" stroke="#203170" stroke-width="1.5"/>
<path id="Vector 773" d="M58.3772 13.0576C52.9168 13.5338 40.8808 15.7005 36.4195 20.5576C30.8429 26.629 40.6019 27.3432 43.3902 21.9861C46.1785 16.629 45.4818 13.0576 30.8433 15.9147C16.2049 18.7719 7.14294 25.2004 7.14294 26.629C7.14294 28.0575 12.0224 26.2718 15.1592 25.5575C16.9019 24.8432 17.599 26.9861 15.1592 27.7004C12.7195 28.4147 -0.873367 35.9146 1.21784 38.0574C3.30905 40.2003 15.1592 31.9861 16.5534 32.3432C17.9475 32.7003 8.88561 37.3432 5.74879 40.9146C2.61197 44.486 3.65758 45.5574 5.74879 45.2002C7.84 44.8431 19.6902 36.6289 20.7358 36.986C21.7814 37.3432 13.7651 43.4145 11.6739 46.6288C9.58268 49.8431 10.2797 51.9859 11.6739 52.3431C13.068 52.7002 29.4492 36.6289 30.4948 37.7003C31.5404 38.7717 24.5697 45.5574 25.9638 47.3431C27.358 49.1288 29.1006 48.0574 33.9801 43.4145C38.8596 38.7717 49.6642 33.4146 56.6349 33.4146" stroke="#203170" stroke-width="1.5" stroke-linecap="round"/>
<path id="Vector 774" d="M68.4848 87.7003L84.1689 85.2004C86.4925 92.8193 91.5578 108.414 93.2308 109.843C95.322 111.629 95.6706 113.772 91.8367 114.486C88.0028 115.2 53.8464 125.557 38.1623 115.914C22.4782 106.272 15.159 95.9146 19.6899 94.486C24.2209 93.0574 36.071 107.343 26.312 113.057C16.5531 118.772 -0.873693 91.2717 4.35433 72.7004" stroke="#203170" stroke-width="1.5" stroke-linecap="round"/>
<path id="Vector 775" d="M85.2129 88.4142C91.0218 86.8666 103.964 82.4143 109.262 76.9857C115.884 70.2001 116.93 71.9858 116.581 75.2C116.233 78.4143 109.959 81.6285 112.399 82.3428C114.838 83.0571 129.477 71.2715 131.568 68.7715C133.659 66.2715 135.053 69.8429 132.962 73.4143C130.871 76.9857 121.809 82.7 123.203 83.4143C124.597 84.1286 136.099 74.1286 137.493 75.2C138.887 76.2715 138.19 79.1286 131.568 84.1286C124.946 89.1285 125.294 89.1285 126.689 89.1285C128.083 89.1285 137.145 83.4143 138.19 83.4143C139.236 83.4143 141.676 84.4857 138.19 87.7C134.705 90.9142 125.643 93.7713 126.689 94.4856C127.734 95.1999 133.659 92.3428 134.705 93.0571C135.75 93.7713 133.659 102.343 114.141 105.2C98.5269 107.486 94.8557 107.105 94.9719 106.628" stroke="#203170" stroke-width="1.5" stroke-linecap="round"/>
<path id="Vector 778" d="M44.0029 50.6849L48.7816 60.1079C58.9088 57.5542 79.5262 52.1847 80.9786 51.1366C82.7942 49.8265 55.8583 53.6097 54.0428 54.9198C52.5904 55.9679 46.2096 61.9639 43.2008 64.8309C44.4516 67.6389 47.4009 73.906 49.1909 76.5105C51.4284 79.7662 53.295 80.5064 54.3371 79.0587C55.3791 77.611 92.5815 53.1999 102.938 48.5096C111.223 44.7574 108.003 43.6949 105.357 43.6327C89.0526 43.4549 53.9551 44.6165 44.0029 50.6849Z" stroke="#203170" stroke-width="1.5" stroke-linecap="round"/>
<path id="Vector 779" d="M67.4864 72.007C69.3477 73.5628 73.4841 76.5845 75.1385 76.2255C77.2066 75.7768 94.518 53.5439 102.033 49.1648" stroke="#203170" stroke-width="1.5" stroke-linecap="round"/>
<path id="Vector 780" d="M37.8243 84.5543C36.0816 86.5781 34.1995 90.9114 40.6126 92.0543C48.6289 93.4828 43.4008 82.4115 40.6126 84.5543C38.3819 86.2686 39.6831 88.1257 40.6126 88.84" stroke="#203170" stroke-width="1.5" stroke-linecap="round"/>
</g>
</g>
</svg>
