<svg width="139" height="130" viewBox="0 0 139 130" fill="none" xmlns="http://www.w3.org/2000/svg">
<g id="Group 800">
<g id="Group 799">
<g id="Group 798">
<path id="Vector 945" d="M6.26572 112.717L5.30846 118.461C7.70131 118.939 13.3485 119.896 16.7947 119.896C20.2408 119.896 33.8658 117.982 40.2475 117.025L48.8628 119.896L57.9567 117.025C60.6689 113.993 65.9019 106.303 65.1361 99.794C64.1789 91.6573 60.8285 83.042 52.2132 78.7344C45.3209 75.2882 40.407 75.703 38.8116 76.3412V71.5549L5.30846 72.0336V75.384C5.7868 77.6176 6.64792 82.9463 6.26572 86.3924C4.73411 86.3924 4.98937 90.8596 5.30846 93.0932V102.187L6.26572 112.717Z" fill="#FFBB56"/>
<path id="Vector 937" d="M21.6123 71.4503V48.578C21.4193 46.0688 23.0599 40.9926 31.1665 40.7609C39.2731 40.5293 80.4818 40.6644 100.073 40.7609C104.705 40.1819 114.375 41.9768 115.996 53.7893C116.923 60.2746 117.348 65.1772 117.444 66.8178C117.927 67.0108 118.892 68.497 118.892 72.8978C118.892 78.3987 120.339 88.532 117.444 89.111C114.549 89.69 93.1242 91.4272 88.4919 85.0577C83.8595 78.6882 88.7814 66.8178 98.3356 66.8178C105.979 66.8178 111.171 66.8178 112.812 66.8178" stroke="#203170" stroke-width="1.5" stroke-linecap="round" stroke-linejoin="round"/>
<path id="Vector 938" d="M116.865 91.1375V101.56C117.154 105.903 114.838 114.589 103.257 114.589C91.6765 114.589 69.8658 114.589 60.4081 114.589C63.3033 106.868 65.0405 89.0529 48.8273 79.5566C28.5607 67.6862 27.4026 93.1642 28.8502 100.113C30.2979 107.061 38.6937 118.932 47.0899 119.511C53.8068 119.974 57.8022 117.387 58.9603 116.036" stroke="#203170" stroke-width="1.5" stroke-linecap="round" stroke-linejoin="round"/>
<path id="Vector 939" d="M38.6944 76.0825C39.37 74.7314 40.3157 71.9713 38.6944 71.7397C37.0731 71.5081 12.927 71.6432 1.05658 71.7397C0.863566 73.1873 1.05658 76.0825 3.37275 76.0825C1.51982 78.8619 3.17972 80.7148 4.24129 81.2938V85.6367C3.37274 86.0227 1.98308 87.5475 3.37275 90.5585C1.51982 92.1799 2.6007 94.3223 3.37275 95.1909V98.9547C2.31119 99.7267 0.824989 101.85 3.37275 104.166C3.37275 105.324 3.37275 107.544 3.37275 108.509C3.66227 109.57 4.24129 111.925 4.24129 112.852C2.15673 113.778 2.7937 116.905 3.37275 118.353C9.83873 119.607 23.4076 121.074 25.9554 116.905C29.1402 111.694 16.9802 109.956 16.1117 112.852C15.2431 115.747 19.5859 128.486 40.4315 128.775" stroke="#203170" stroke-width="1.5" stroke-linecap="round" stroke-linejoin="round"/>
<path id="Vector 940" d="M34.3516 40.7608L47.9591 4.28101C48.8277 4.37751 51.2017 4.97586 53.7495 6.59718C56.2973 8.2185 59.6365 9.39589 60.9876 9.78192" stroke="#203170" stroke-width="1.5" stroke-linecap="round" stroke-linejoin="round"/>
<path id="Vector 941" d="M118.312 65.9488L137.999 46.8403L106.152 13.2558C105.283 12.9663 102.909 13.1979 100.361 16.4406C97.8134 19.6832 82.1213 33.8119 74.5938 40.471" stroke="#203170" stroke-width="1.5" stroke-linecap="round" stroke-linejoin="round"/>
<path id="Vector 942" d="M58.0918 40.1817L82.9907 7.46573C83.3767 6.69367 85.0173 5.61279 88.4916 7.46573C91.9658 9.31867 97.6598 13.8352 100.072 15.8618" stroke="#203170" stroke-width="1.5" stroke-linecap="round" stroke-linejoin="round"/>
<path id="Vector 943" d="M45.6426 39.0236L66.1986 1.67529L80.6747 9.7819" stroke="#203170" stroke-width="1.5" stroke-linecap="round" stroke-linejoin="round"/>
<path id="Vector 944" d="M99.2045 84.1888C107.311 83.9572 105.67 76.3717 103.837 72.6079C98.0464 68.4388 94.2826 71.8358 93.1245 74.0555C91.7734 77.5298 91.0978 84.4204 99.2045 84.1888Z" stroke="#203170" stroke-width="1.5" stroke-linecap="round" stroke-linejoin="round"/>
</g>
</g>
<path id="Vector 946" d="M48 45H92" stroke="#203170" stroke-width="1.5" stroke-linecap="round" stroke-linejoin="round"/>
<path id="Vector 947" d="M80.5 48.5H91.5" stroke="#203170" stroke-width="1.5" stroke-linecap="round" stroke-linejoin="round"/>
</g>
</svg>
