<svg width="169" height="144" viewBox="0 0 169 144" fill="none" xmlns="http://www.w3.org/2000/svg">
<g id="Group 722">
<g id="Group 104">
<path id="Vector 740" d="M72.647 102.009C70.5935 94.8223 72.647 90.1734 73.9305 88.7473C72.2196 83.6136 73.2176 78.9076 73.9305 77.1964L76.9247 72.0626V69.068L73.5022 65.6455C72.5039 64.2194 70.8497 60.7684 72.2187 58.3727C69.6519 57.0892 69.6519 52.8111 69.6519 51.9555C69.6519 51.0999 69.6519 48.533 71.7909 44.2549C73.5022 40.8324 75.356 38.5507 76.069 37.8377C76.7821 36.9821 79.9193 35.0141 86.7643 33.9874C93.6093 32.9606 97.8875 34.9856 99.1709 36.1264C99.4561 36.6969 100.454 38.2655 102.166 39.9767C103.877 41.688 106.301 48.3904 107.299 51.5277C107.442 52.2407 107.727 54.0945 107.727 55.8058C107.727 57.517 108.298 61.0821 108.583 62.6508C109.153 63.5064 111.064 65.9877 114.144 69.068C117.225 70.7792 119.135 76.9112 119.706 79.7633C122.558 84.184 128.091 92.5121 127.406 90.4586C126.551 87.8917 123.984 83.1858 123.984 81.9023C123.984 80.6189 124.412 78.052 125.267 75.4851C126.123 72.9183 125.267 74.2017 122.273 71.6348C119.877 69.5813 120.989 63.3638 121.845 60.5117L108.583 14.7358L50.8281 30.1371L54.6784 41.688L60.6678 60.0839C61.666 60.5117 64.0903 61.7952 65.8015 63.5064C67.5128 65.2177 67.9406 71.6348 67.9406 74.6295L67.085 93.8811C67.5128 94.5941 69.2241 97.218 72.647 102.009Z" fill="#FFBB56"/>
<path id="Vector 713" d="M1.40062 107.632C10.0744 121.225 20.6846 125.202 23.5615 120.435C36.2226 99.459 12.2758 98.0863 20.6828 107.632C29.0899 117.177 46.1455 114.772 49.1267 95.7333C51.5116 80.5024 57.3388 65.7984 59.9544 60.3503C61.0254 59.7521 63.8096 59.7465 66.3785 64.5094C68.9474 69.2722 67.8534 86.053 66.9853 93.848C71.5197 98.2271 80.0203 111.313 77.7483 128.622" stroke="#203170" stroke-width="1.5" stroke-linecap="round"/>
<path id="Vector 714" d="M55.4644 65.8768L45.2221 30.2996C44.8761 28.2523 45.2143 23.4115 49.3347 20.4267C53.4552 17.4419 88.2502 9.83796 105.133 6.40909C107.007 6.33082 111.151 8.02634 112.737 15.4346C114.322 22.8428 120.634 46.3026 123.592 57.1065" stroke="#203170" stroke-width="1.5" stroke-linecap="round"/>
<path id="Vector 715" d="M117.993 34.843C120.782 30.4185 126.556 21.9671 129.694 21.6277C133.615 21.2035 138.245 22.1495 134.604 31.6446C131.692 39.2407 125.45 49.4218 122.693 53.5629" stroke="#203170" stroke-width="1.5" stroke-linecap="round"/>
<path id="Vector 716" d="M127.374 46.3356C129.689 47.4543 134.28 50.8066 134.128 55.2664C133.938 60.8412 132.376 70.9982 128.265 73.1232C124.155 75.2481 119.101 70.3807 121.229 62.8695C122.742 58.5613 123.366 57.4984 123.556 57.089" stroke="#203170" stroke-width="1.5" stroke-linecap="round"/>
<path id="Vector 717" d="M133.227 63.3452C135.007 64.1173 138.121 67.3339 136.343 74.0232C134.12 82.3848 131.426 87.2502 127.222 86.3515C123.017 85.4529 123.35 78.6026 125.571 74.115" stroke="#203170" stroke-width="1.5" stroke-linecap="round"/>
<path id="Vector 718" d="M136.105 76.1487C137.584 80.9049 139.191 90.9557 133.786 93.1087C128.381 95.2616 127.976 89.8789 128.449 86.9184" stroke="#203170" stroke-width="1.5" stroke-linecap="round"/>
<path id="Vector 719" d="M131.567 93.7226L137.373 115.031C137.892 116.811 138.109 120.795 134.82 122.495C131.531 124.195 101.857 133.747 87.4304 138.31C84.9263 138.892 79.4746 137.854 77.7005 129.048" stroke="#203170" stroke-width="1.5" stroke-linecap="round"/>
<path id="Vector 720" d="M50.5124 29.1672L108.248 13.2131L119.907 55.4049" stroke="#203170" stroke-width="1.5" stroke-linecap="round"/>
<path id="Vector 722" d="M50.5117 29.167L59.3864 57.7045" stroke="#203170" stroke-width="1.5" stroke-linecap="round"/>
<path id="Vector 724" d="M126.486 86.3345L133.897 112.557" stroke="#203170" stroke-width="1.5" stroke-linecap="round"/>
<path id="Vector 725" d="M78.9923 59.4576C76.3156 57.7246 71.1507 55.6572 71.9052 61.2511C72.6597 66.845 77.3527 69.032 79.6048 69.4263C81.6199 71.9465 85.0263 77.9505 82.5308 81.805" stroke="#203170" stroke-width="1.5" stroke-linecap="round"/>
<path id="Vector 726" d="M99.8337 42.4077C100.685 39.9197 100.856 34.7733 94.7334 34.0915C87.0801 33.2392 76.5916 34.6538 73.2356 41.5979C69.8795 48.5419 67.6106 53.4547 72.2393 58.2747" stroke="#203170" stroke-width="1.5" stroke-linecap="round"/>
<path id="Vector 727" d="M74.7397 66.7319C76.3457 67.7717 78.7733 70.7109 75.6354 74.1495C71.7131 78.4477 72.7036 85.0148 74.0255 88.6057" stroke="#203170" stroke-width="1.5" stroke-linecap="round"/>
<path id="Vector 728" d="M99.7849 42.8327C103.468 50.9911 109.303 68.687 103.179 74.2036C97.0545 79.7201 90.2962 76.4996 87.6826 74.1997" stroke="#203170" stroke-width="1.5" stroke-linecap="round"/>
<path id="Vector 729" d="M79.0398 59.032C78.127 56.9216 76.6416 51.9637 78.003 49.0161C80.0065 49.5835 87.0275 47.8688 90.2875 46.9405L90.8558 41.8383L92.6029 45.4765L99.3594 42.7853" stroke="#203170" stroke-width="1.5" stroke-linecap="round"/>
<path id="Vector 730" d="M100.354 37.7305C102.888 40.739 107.919 48.6457 107.766 56.2047C107.575 65.6534 113.858 67.2141 116.455 70.947C118.533 73.9333 119.556 77.8926 119.808 79.499" stroke="#203170" stroke-width="1.5" stroke-linecap="round"/>
<path id="Vector 731" d="M104.87 124.737C104.966 123.877 112.152 122.041 115.733 121.23C119.664 122.248 117.5 124.813 115.927 125.969C114.936 126.221 112.058 126.989 108.474 128.041C104.471 128.321 104.75 125.812 104.87 124.737Z" stroke="#203170" stroke-width="1.5" stroke-linecap="round"/>
<path id="Vector 732" d="M90.0791 126.121L126.176 115.075" stroke="#203170" stroke-width="1.5" stroke-linecap="round"/>
<path id="Vector 733" d="M85.0527 124.255L100.882 119.55" stroke="#203170" stroke-width="1.5" stroke-linecap="round"/>
<path id="Vector 734" d="M58.5293 43.3989L62.8074 56.2333" stroke="#203170" stroke-width="1.5" stroke-linecap="round"/>
<path id="Vector 735" d="M146.925 71.4046C155.103 68.9672 169.668 62.7805 162.507 57.5328C153.554 50.9731 154.784 68.9653 167.798 68.2793" stroke="#203170" stroke-width="1.5" stroke-linecap="round"/>
<path id="Vector 736" d="M147.514 77.6241C150.081 75.9129 155.642 74.3727 157.353 81.9022" stroke="#203170" stroke-width="1.5" stroke-linecap="round"/>
</g>
<path id="Vector 815" d="M86.9204 53.9631C86.9204 53.2678 86.7444 52.4402 87.278 51.9066C87.9651 51.2196 88.918 50.7006 89.8174 50.3508C91.7505 49.5991 94.002 51.464 94.002 53.4803C94.002 54.3703 94.0633 55.2078 93.7606 56.0554C93.4476 56.9319 93.1972 57.5598 93.1972 58.5054C93.1972 59.4303 93.4957 60.0944 93.689 60.9643C93.844 61.6615 94.4219 62.1436 94.6458 62.8152" stroke="#203170" stroke-width="1.5" stroke-linecap="round"/>
<path id="Vector 816" d="M96.0938 68.609C96.0938 67.4983 96.8985 68.2559 96.8985 68.8504C96.8985 69.0558 97.015 69.7193 96.7375 69.7356C96.1353 69.771 96.2547 69.4414 96.2547 68.9309" stroke="#203170" stroke-width="1.5" stroke-linecap="round"/>
</g>
</svg>
