<svg width="41" height="53" viewBox="0 0 41 53" fill="none" xmlns="http://www.w3.org/2000/svg">
<path d="M35.4458 40.9138C35.6106 40.7491 35.7694 40.577 35.9342 40.4255C36.4034 39.9959 36.9183 39.6532 37.5376 39.4752C37.8877 39.3766 38.2436 39.356 38.5996 39.4031C39.0424 39.462 39.4513 39.6149 39.8205 39.8724C40.3619 40.2489 40.7178 40.7564 40.8958 41.3904C41.0473 41.9244 41.0209 42.4657 40.9017 43.0011C40.7693 43.6351 40.4987 44.2088 40.1559 44.7575C39.8397 45.2665 39.4631 45.7284 39.0541 46.1638C38.4334 46.8301 37.7406 47.4112 37.008 47.9525C35.9695 48.6036 34.8035 48.5046 33.51 47.6553C32.976 47.2391 32.4671 46.8036 31.9978 46.3153C31.4036 45.7078 30.8755 45.0473 30.4798 44.2956C30.19 43.7411 29.9914 43.1541 29.9252 42.526C29.8723 41.9788 29.9311 41.4434 30.1694 40.9418C30.4268 40.4004 30.8166 39.9915 31.3374 39.7003C31.7801 39.4561 32.2553 39.3502 32.7569 39.3634C33.1334 39.3766 33.4968 39.4752 33.8322 39.6341C34.4529 39.9312 34.9678 40.3607 35.4164 40.8756C35.4296 40.8947 35.4355 40.9021 35.4429 40.9153L35.4458 40.9138Z" fill="#203170"/>
<path d="M32.399 51.8435C30.0425 53.0071 26.5695 53.6175 24.719 51.2639C21.8241 47.4879 24.2851 38.918 25.5369 34.6771C28.017 26.6588 31.6312 19.095 34.9894 11.4444C35.7911 9.43799 37.6843 5.32807 37.4783 3.36283C37.471 3.32164 37.4621 3.29811 37.4592 3.28634C37.4548 3.28193 37.4592 3.2834 37.4739 3.30988C37.4989 3.35106 37.5916 3.43197 37.6357 3.44668C37.6828 3.46286 37.649 3.44668 37.5607 3.44226C37.5401 3.43932 37.5151 3.43932 37.4857 3.43932H37.4651H37.4548C37.446 3.43932 37.4504 3.43932 37.4651 3.43932C37.5033 3.43932 37.5578 3.42755 37.5783 3.42608C37.6946 3.40108 37.7019 3.38637 37.6857 3.39519C37.2621 3.63496 36.8458 4.02919 36.4325 4.42635C34.7438 6.09151 33.1948 7.89787 31.64 9.75867C27.8802 14.2922 24.2968 19.0671 20.0295 23.2108C18.6321 24.492 16.127 26.8809 14.0397 26.1807C10.7711 24.5818 13.0247 18.8655 13.2527 16.1118C13.2792 15.7559 13.3233 15.3896 13.2336 15.1189C13.2306 15.113 13.2336 15.1292 13.2586 15.1586C13.2821 15.1881 13.3307 15.2278 13.3733 15.2469C13.416 15.2675 13.4469 15.2719 13.4513 15.2719C13.3307 15.3499 13.2203 15.4837 13.11 15.6235C11.0521 18.2462 10.0003 21.4912 7.69091 24.0257C7.13782 24.6156 6.56413 25.2231 5.83894 25.6173C5.24025 26.0057 4.61508 26.3161 3.88841 26.4293C2.46597 26.6882 1.00676 25.9101 0.287445 24.7009C0.118282 24.4023 -0.234754 23.9184 0.233019 23.6904C0.396298 23.6197 0.561048 23.6742 0.681669 23.7845C0.89202 23.9551 1.14062 24.1508 1.38039 24.289C2.0085 24.6759 2.81312 24.8539 3.46477 24.5774C3.90459 24.4067 4.35766 24.1066 4.66951 23.736C5.93455 22.4341 6.84656 20.9573 7.83653 19.376C8.69559 18.0388 9.53258 16.5531 10.5314 15.2234C11.2978 14.1393 12.7173 13.0331 14.1338 13.5965C15.7328 14.3879 14.8752 16.9738 14.659 18.2963C14.4074 19.6893 13.26 23.8389 14.7943 24.5597L14.6281 24.5023C18.6071 24.5391 29.6998 7.0653 33.0124 3.25545C33.7155 2.41405 34.3716 1.64914 35.2615 0.915115C35.7837 0.498827 36.5148 0.0310541 37.318 0.00457639C37.4504 0.00457639 37.5783 -0.00572049 37.7166 0.00457639C38.9743 0.0192862 40.2408 0.794495 40.688 2.05807C41.7912 4.97356 39.2229 10.022 38.0814 12.7639C37.9226 13.1449 37.6328 13.77 37.4518 14.1481C35.7337 17.6843 34.0362 21.1632 32.4476 24.7421C30.5603 29.2418 21.9227 48.0307 26.849 51.0477C28.2906 51.8597 30.4191 51.4846 31.9607 50.9153C32.5726 50.6623 32.9859 51.5317 32.4005 51.8479L32.399 51.8435Z" fill="#203170"/>
</svg>
