<svg width="724" height="935" viewBox="0 0 724 935" fill="none" xmlns="http://www.w3.org/2000/svg">
<path d="M572.722 916.445C531.066 937.014 469.673 947.805 436.962 906.2C385.788 839.451 429.291 687.959 451.419 612.993C495.26 471.251 559.149 337.545 618.513 202.305C632.685 166.837 666.15 94.185 662.51 59.4453C662.38 58.7172 662.224 58.3012 662.172 58.0931C662.094 58.0151 662.172 58.0411 662.432 58.5092C662.874 59.2373 664.512 60.6674 665.292 60.9274C666.124 61.2135 665.526 60.9274 663.966 60.8494C663.602 60.7974 663.16 60.7974 662.64 60.7974H662.276H662.094C661.938 60.7974 662.016 60.7974 662.276 60.7974C662.952 60.7974 663.914 60.5894 664.278 60.5634C666.332 60.1213 666.462 59.8613 666.176 60.0173C658.688 64.2558 651.329 71.2245 644.022 78.2453C614.171 107.68 586.79 139.612 559.305 172.505C492.842 252.646 429.499 337.051 354.065 410.301C329.362 432.949 285.079 475.178 248.181 462.801C190.403 434.536 230.239 333.489 234.27 284.811C234.738 278.519 235.518 272.044 233.932 267.26C233.88 267.156 233.932 267.442 234.374 267.962C234.79 268.482 235.648 269.184 236.402 269.522C237.156 269.886 237.702 269.964 237.78 269.964C235.648 271.342 233.698 273.708 231.748 276.179C195.37 322.542 176.778 379.904 135.953 424.707C126.176 435.134 116.035 445.873 103.216 452.842C92.6326 459.706 81.5814 465.193 68.7361 467.195C43.5914 471.772 17.7966 458.016 5.08121 436.642C2.09089 431.363 -4.14978 422.808 4.11911 418.778C7.00542 417.53 9.91773 418.492 12.05 420.442C15.7684 423.458 20.1628 426.917 24.4013 429.361C35.5045 436.2 49.728 439.346 61.2472 434.458C69.0221 431.441 77.0309 426.137 82.5435 419.584C104.906 396.572 121.028 370.465 138.528 342.512C153.713 318.875 168.509 292.612 186.165 269.106C199.712 249.942 224.805 230.388 249.845 240.347C278.111 254.336 262.951 300.049 259.129 323.426C254.682 348.05 234.4 421.404 261.521 434.146L258.582 433.131C328.92 433.781 525.007 124.894 583.565 57.5471C595.995 42.6735 607.592 29.152 623.324 16.1766C632.555 8.81784 645.478 0.548948 659.676 0.0808976C662.016 0.0808976 664.278 -0.101122 666.722 0.0808976C688.955 0.340926 711.343 14.0444 719.248 36.3808C738.75 87.9183 693.349 177.16 673.171 225.629C670.363 232.364 665.24 243.415 662.042 250.098C631.671 312.608 601.663 374.105 573.58 437.37C540.219 516.912 387.53 849.046 474.614 902.378C500.096 916.731 537.722 910.101 564.973 900.038C575.791 895.565 583.097 910.933 572.748 916.523L572.722 916.445Z" fill="#DDD6CB"/>
</svg>
