<svg width="351" height="241" viewBox="0 0 351 241" fill="none" xmlns="http://www.w3.org/2000/svg">
<path d="M296.45 107.537C297.2 106.788 297.922 106.006 298.671 105.317C300.805 103.363 303.146 101.805 305.963 100.995C307.555 100.547 309.173 100.453 310.792 100.668C312.806 100.935 314.665 101.631 316.344 102.801C318.806 104.514 320.425 106.822 321.234 109.705C321.923 112.133 321.803 114.595 321.261 117.03C320.659 119.913 319.428 122.521 317.869 125.016C316.431 127.331 314.719 129.431 312.859 131.411C310.036 134.442 306.886 137.084 303.554 139.546C298.832 142.507 293.529 142.056 287.647 138.194C285.219 136.301 282.905 134.321 280.771 132.1C278.068 129.338 275.667 126.334 273.867 122.916C272.55 120.394 271.647 117.725 271.346 114.869C271.105 112.38 271.372 109.946 272.456 107.665C273.627 105.203 275.399 103.343 277.767 102.019C279.781 100.908 281.941 100.427 284.222 100.487C285.935 100.547 287.587 100.995 289.112 101.718C291.935 103.069 294.276 105.022 296.317 107.364C296.377 107.45 296.404 107.484 296.437 107.544L296.45 107.537Z" fill="#203170"/>
<path d="M206.868 138.214V109.758H206.386L192.58 140.556C190.901 143.68 188.018 143.044 186.874 140.556L173.997 109.758H173.515V139.445C173.428 143.68 169.495 143.68 169.495 140.108V104.206C169.495 99.8248 175.83 99.497 177.542 103.905L190.419 135.124C190.841 135.124 191.262 135.151 191.677 135.151C196.031 124.823 201.129 114.528 205.483 104.206C207.343 99.7044 213.169 99.6709 213.169 104.206V138.997C213.196 144.221 206.868 143.827 206.868 138.214Z" fill="#203170"/>
<path d="M255.734 103.818V138.429C255.734 144.195 249.372 143.713 249.399 138.007V109.043L230.368 140.469C228.716 143.472 224.033 143.653 224.033 139.599V103.818C224.033 99.6174 230.308 99.196 230.368 103.905V134.368L249.399 102.942C251.018 99.9117 255.734 99.2495 255.734 103.812V103.818Z" fill="#203170"/>
<path d="M197.925 155.834C198.828 155.834 199.484 156.075 199.939 156.523C200.42 157.005 200.628 157.72 200.628 158.744V193.535C200.628 199 194.293 198.665 194.293 192.933V158.958H175.322V193.689C175.322 198.398 168.987 199.334 168.987 193.508V158.777C168.987 157.727 169.195 156.978 169.589 156.556C169.977 156.075 170.64 155.867 171.603 155.867H197.925V155.841V155.834Z" fill="#203170"/>
<path d="M309.824 158.296C311.235 154.483 316.667 155.232 315.229 159.045L304.305 184.738C302.807 188.223 300.94 191.22 298.659 193.742C296.438 196.264 293.89 197.495 291.007 197.495C288.545 197.555 286.532 194.224 288.906 192.632C290.017 191.943 292.291 192.719 293.803 192.391C296.425 191.822 299.154 189.06 298.847 185.755L284.592 159.399C284.351 158.978 284.23 158.47 284.23 157.928C284.23 155.319 288.706 154.597 290.866 158.918L301.161 178.216H301.402L309.837 158.289L309.824 158.296Z" fill="#203170"/>
<path d="M343.282 192.96V179.842C341.362 180.625 339.59 181.22 337.998 181.615C336.439 181.976 334.693 182.156 332.834 182.156C328.934 182.156 325.897 181.314 323.796 179.635C321.696 177.922 320.612 175.099 320.612 171.173V158.777C320.612 155.326 326.733 153.767 326.733 160.369V170.992C326.733 176.243 329.342 178.859 334.539 178.859C335.917 178.859 337.389 178.651 338.954 178.257C340.573 177.869 342.018 177.293 343.309 176.544V159.614C343.309 154.269 349.644 154.844 349.644 158.744V194.552C349.644 198.666 343.282 198.846 343.282 192.96Z" fill="#203170"/>
<path d="M278.758 159.948C276.925 158.148 274.858 157.005 272.604 156.523C270.383 156.041 268.042 155.834 265.614 155.834H254.088C253.158 155.834 252.469 156.075 252.108 156.523C251.72 156.944 251.506 157.694 251.506 158.744V194.551C251.506 198.271 257.841 199.114 257.841 193.682V181.347H265.674C269.152 181.347 272.069 180.778 274.437 179.574C276.838 178.404 278.611 176.812 279.781 174.805C280.952 172.765 281.554 170.483 281.554 167.988C281.527 164.39 280.591 161.687 278.765 159.941L278.758 159.948ZM272.396 175.735C270.778 177.387 268.463 178.644 265.52 178.644H257.807V158.055H265.58C269.152 158.055 271.286 159.707 272.691 161.266C274.129 162.824 274.851 165.079 274.851 167.962C274.851 171.474 274.042 174.056 272.39 175.735H272.396Z" fill="#203170"/>
<path d="M242.857 167.687C241.987 164.563 240.248 161.774 237.573 159.406C234.904 157.005 231.117 155.834 226.228 155.834C221.338 155.834 217.552 157.031 214.883 159.406C212.24 161.808 210.501 164.537 209.658 167.627C208.789 170.718 208.367 173.748 208.367 176.664C208.367 179.581 208.789 182.604 209.658 185.728C210.528 188.819 212.267 191.548 214.883 193.949C217.552 196.291 221.338 197.461 226.228 197.461C231.117 197.461 234.904 196.291 237.573 193.949C240.242 191.548 241.987 188.819 242.857 185.728C243.76 182.638 244.208 179.608 244.208 176.664C244.208 173.721 243.76 170.785 242.857 167.687ZM235.265 189.026C233.733 192.658 230.729 194.879 226.228 194.879C221.726 194.879 218.816 192.658 217.284 188.966C215.752 185.273 215.003 181.193 215.003 176.691C215.003 172.189 215.752 168.049 217.284 164.356C218.816 160.664 221.786 158.322 226.228 158.322C230.669 158.322 233.76 160.664 235.265 164.356C236.797 168.049 237.546 172.163 237.546 176.691C237.573 181.226 236.797 185.334 235.265 189.026Z" fill="#203170"/>
<path d="M173.328 226.533C172.552 226.533 171.857 226.332 171.248 225.938C170.646 225.536 170.164 224.921 169.81 224.085C169.455 223.249 169.281 222.165 169.281 220.847C169.281 219.616 169.402 218.553 169.649 217.656C169.897 216.753 170.325 216.038 170.947 215.516C171.569 214.994 172.445 214.673 173.576 214.559C173.703 214.546 173.89 214.532 174.138 214.512C174.392 214.486 174.673 214.459 174.981 214.432C175.288 214.399 175.589 214.372 175.884 214.345C176.185 214.312 176.439 214.285 176.66 214.265L176.733 215.021C176.512 215.041 176.245 215.068 175.944 215.094C175.636 215.121 175.335 215.155 175.021 215.181C174.713 215.208 174.432 215.235 174.191 215.255C173.944 215.275 173.77 215.295 173.663 215.302C172.666 215.395 171.91 215.663 171.388 216.104C170.873 216.546 170.512 217.148 170.318 217.917C170.131 218.68 170.03 219.59 170.03 220.66L170.077 220.727C170.077 221.636 170.151 222.412 170.305 223.061C170.465 223.703 170.686 224.225 170.974 224.633C171.268 225.041 171.616 225.342 172.01 225.53C172.405 225.717 172.847 225.817 173.335 225.817C174.044 225.817 174.619 225.65 175.074 225.322C175.529 224.988 175.863 224.546 176.078 224.011C176.292 223.469 176.399 222.901 176.399 222.299C176.399 221.697 176.305 221.115 176.124 220.6C175.937 220.091 175.636 219.683 175.221 219.376C174.8 219.068 174.238 218.907 173.536 218.907C173.208 218.907 172.84 218.974 172.425 219.108C172.017 219.242 171.602 219.469 171.174 219.79C170.753 220.118 170.365 220.573 170.01 221.162C169.95 221.034 169.91 220.914 169.877 220.787C169.85 220.653 169.836 220.526 169.836 220.406C169.836 220.272 169.85 220.145 169.85 220.024H170.144C170.485 219.596 170.86 219.248 171.268 218.981C171.676 218.707 172.084 218.513 172.499 218.392C172.914 218.265 173.295 218.205 173.649 218.205C174.432 218.205 175.088 218.379 175.609 218.733C176.131 219.088 176.526 219.569 176.787 220.185C177.054 220.794 177.188 221.496 177.188 222.279C177.188 223.061 177.041 223.744 176.74 224.392C176.439 225.041 176.004 225.556 175.435 225.951C174.867 226.339 174.171 226.533 173.348 226.533H173.328ZM179.342 226.5C179.282 226.5 179.215 226.5 179.141 226.493C179.068 226.493 178.994 226.48 178.914 226.466C178.84 226.453 178.76 226.439 178.686 226.426L178.76 225.717C178.854 225.737 178.947 225.757 179.048 225.764C179.148 225.777 179.222 225.777 179.268 225.777C179.596 225.777 179.857 225.65 180.051 225.403C180.245 225.148 180.399 224.814 180.506 224.399C180.613 223.978 180.693 223.523 180.74 223.028C180.793 222.533 180.84 222.045 180.874 221.57C180.914 221.028 180.947 220.479 180.987 219.931C181.028 219.382 181.061 218.84 181.095 218.305H186.279V226.372H185.523V218.426L185.971 218.974H181.362L181.804 218.426C181.777 218.787 181.75 219.161 181.723 219.536C181.703 219.911 181.676 220.292 181.65 220.673C181.63 221.048 181.603 221.429 181.569 221.824C181.529 222.406 181.476 222.974 181.409 223.53C181.342 224.085 181.235 224.586 181.088 225.041C180.941 225.49 180.727 225.844 180.452 226.112C180.178 226.372 179.817 226.506 179.362 226.506L179.342 226.5ZM191.704 226.533C191.195 226.533 190.754 226.439 190.379 226.259C190.018 226.071 189.737 225.804 189.536 225.469C189.342 225.135 189.242 224.734 189.242 224.279C189.242 223.851 189.322 223.489 189.476 223.202C189.637 222.907 189.851 222.673 190.105 222.493C190.359 222.305 190.64 222.165 190.948 222.058C191.255 221.958 191.55 221.871 191.837 221.81L194.573 221.262C194.6 220.58 194.52 220.065 194.339 219.717C194.152 219.369 193.898 219.135 193.57 219.021C193.249 218.907 192.894 218.847 192.506 218.847C192.319 218.847 192.125 218.86 191.911 218.887C191.704 218.907 191.483 218.947 191.249 219.001C191.015 219.048 190.767 219.115 190.5 219.202C190.232 219.282 189.944 219.389 189.643 219.509L189.583 218.76C189.777 218.673 189.998 218.593 190.239 218.513C190.486 218.439 190.734 218.365 190.995 218.312C191.262 218.252 191.53 218.205 191.804 218.171C192.078 218.138 192.339 218.125 192.593 218.125C193.142 218.125 193.624 218.218 194.032 218.399C194.44 218.579 194.754 218.88 194.968 219.282C195.189 219.683 195.303 220.205 195.303 220.84V226.366H194.593L194.58 225.108H194.466C194.286 225.356 194.058 225.583 193.771 225.804C193.496 226.018 193.175 226.192 192.827 226.326C192.473 226.459 192.098 226.52 191.704 226.52V226.533ZM191.824 225.824C192.159 225.824 192.493 225.764 192.834 225.637C193.175 225.51 193.496 225.316 193.797 225.048C194.098 224.774 194.353 224.426 194.553 223.998V221.784C194.466 221.83 194.333 221.884 194.172 221.944C194.011 221.998 193.764 222.065 193.436 222.138C193.108 222.212 192.654 222.305 192.072 222.412C191.697 222.486 191.356 222.586 191.041 222.72C190.727 222.854 190.48 223.048 190.292 223.289C190.105 223.536 190.018 223.844 190.018 224.225C190.018 224.801 190.185 225.209 190.526 225.449C190.868 225.69 191.302 225.811 191.824 225.811V225.824ZM198.62 226.379V218.312H203.805V218.981H198.915L199.37 218.432V226.379H198.62ZM209.517 226.533C208.888 226.533 208.333 226.419 207.845 226.192C207.363 225.964 206.949 225.65 206.614 225.262C206.28 224.867 206.019 224.413 205.838 223.897C205.664 223.382 205.577 222.841 205.577 222.279C205.577 221.476 205.738 220.76 206.066 220.138C206.4 219.509 206.855 219.021 207.444 218.666C208.039 218.305 208.728 218.125 209.511 218.125C210.119 218.125 210.661 218.225 211.143 218.432C211.624 218.64 212.032 218.934 212.367 219.315C212.708 219.69 212.969 220.131 213.149 220.64C213.33 221.141 213.417 221.683 213.417 222.272C213.417 223.068 213.257 223.784 212.935 224.426C212.614 225.068 212.159 225.576 211.571 225.958C210.989 226.332 210.307 226.52 209.517 226.52V226.533ZM209.517 225.817C210.22 225.817 210.802 225.65 211.256 225.309C211.718 224.974 212.066 224.533 212.293 223.998C212.527 223.456 212.641 222.887 212.641 222.285C212.641 221.603 212.514 221.008 212.26 220.499C212.012 219.984 211.651 219.583 211.183 219.289C210.715 219.001 210.159 218.854 209.517 218.854C208.828 218.854 208.246 219.008 207.771 219.309C207.303 219.616 206.949 220.024 206.701 220.546C206.46 221.061 206.34 221.636 206.34 222.279C206.34 222.921 206.454 223.456 206.688 223.991C206.922 224.533 207.27 224.968 207.738 225.302C208.213 225.637 208.801 225.811 209.511 225.811L209.517 225.817ZM221.631 226.259V218.432L222.026 218.981H217.504L217.845 218.432C217.825 218.78 217.805 219.121 217.778 219.462C217.758 219.797 217.732 220.145 217.705 220.513C217.685 220.881 217.658 221.302 217.631 221.77C217.598 222.312 217.531 222.841 217.437 223.342C217.344 223.851 217.217 224.319 217.056 224.747C216.895 225.168 216.695 225.543 216.454 225.864L215.678 225.757C215.839 225.59 216.006 225.342 216.173 225.015C216.347 224.687 216.501 224.252 216.635 223.703C216.775 223.148 216.875 222.446 216.936 221.596C216.976 220.881 217.016 220.279 217.049 219.784C217.083 219.282 217.116 218.794 217.15 218.305H222.381V226.252H221.631V226.259ZM214.869 228.667V225.71H223.638V228.667H222.956L222.916 226.259L223.17 226.379H215.337L215.598 226.259L215.558 228.667H214.875H214.869ZM226.107 226.379V218.312L226.856 218.278V226.379H226.107ZM226.448 216.104C226.24 216.104 226.066 216.038 225.933 215.91C225.799 215.777 225.725 215.576 225.725 215.315C225.725 215.054 225.792 214.84 225.933 214.713C226.066 214.579 226.247 214.512 226.461 214.512C226.675 214.512 226.856 214.579 226.983 214.713C227.117 214.847 227.19 215.048 227.19 215.315C227.19 215.583 227.123 215.777 226.983 215.91C226.849 216.044 226.675 216.104 226.441 216.104H226.448ZM230.441 226.379V218.312L231.184 218.278V225.135H231.271L233.351 222.152C233.799 221.516 234.241 220.874 234.689 220.225C235.144 219.576 235.585 218.941 236.027 218.319H236.783V226.386H236.04V219.556H235.953L233.88 222.519C233.431 223.168 232.983 223.817 232.535 224.459C232.087 225.102 231.645 225.744 231.197 226.386H230.441V226.379ZM233.612 216.9C232.769 216.9 232.134 216.666 231.712 216.198C231.291 215.73 231.077 215.135 231.077 214.419L231.779 214.392C231.779 215.041 231.933 215.516 232.241 215.817C232.555 216.125 233.01 216.272 233.612 216.272C234.007 216.272 234.341 216.205 234.615 216.078C234.89 215.944 235.097 215.737 235.237 215.469C235.378 215.195 235.452 214.84 235.452 214.419H236.154C236.154 215.135 235.94 215.73 235.525 216.198C235.11 216.666 234.475 216.9 233.619 216.9H233.612ZM240.201 226.379V218.312L240.95 218.272V226.379H240.201ZM240.636 222.626V221.958H246.121V222.626H240.636ZM245.733 226.379V218.312H246.475V226.379H245.733ZM251.9 226.533C251.392 226.533 250.951 226.439 250.576 226.259C250.208 226.071 249.934 225.804 249.733 225.469C249.539 225.135 249.439 224.734 249.439 224.279C249.439 223.851 249.519 223.489 249.673 223.202C249.833 222.907 250.048 222.673 250.302 222.493C250.556 222.305 250.837 222.165 251.145 222.058C251.452 221.958 251.747 221.871 252.034 221.81L254.77 221.262C254.797 220.58 254.717 220.065 254.536 219.717C254.349 219.369 254.095 219.135 253.767 219.021C253.446 218.907 253.091 218.847 252.703 218.847C252.516 218.847 252.322 218.86 252.108 218.887C251.9 218.907 251.68 218.947 251.446 219.001C251.211 219.048 250.964 219.115 250.696 219.202C250.429 219.282 250.141 219.389 249.84 219.509L249.78 218.76C249.974 218.673 250.195 218.593 250.435 218.513C250.683 218.439 250.93 218.365 251.191 218.312C251.459 218.252 251.727 218.205 252.001 218.171C252.275 218.138 252.536 218.125 252.79 218.125C253.339 218.125 253.82 218.218 254.228 218.399C254.636 218.579 254.951 218.88 255.165 219.282C255.386 219.683 255.499 220.205 255.499 220.84V226.366H254.79L254.777 225.108H254.663C254.482 225.356 254.255 225.583 253.967 225.804C253.693 226.018 253.372 226.192 253.024 226.326C252.67 226.459 252.295 226.52 251.9 226.52V226.533ZM252.021 225.824C252.355 225.824 252.69 225.764 253.031 225.637C253.372 225.51 253.693 225.316 253.994 225.048C254.295 224.774 254.549 224.426 254.75 223.998V221.784C254.663 221.83 254.529 221.884 254.369 221.944C254.208 221.998 253.961 222.065 253.633 222.138C253.305 222.212 252.85 222.305 252.268 222.412C251.894 222.486 251.553 222.586 251.238 222.72C250.93 222.854 250.676 223.048 250.489 223.289C250.302 223.536 250.215 223.844 250.215 224.225C250.215 224.801 250.382 225.209 250.723 225.449C251.064 225.69 251.499 225.811 252.021 225.811V225.824ZM265.874 226.533C265.246 226.533 264.69 226.419 264.202 226.192C263.72 225.964 263.306 225.65 262.971 225.262C262.637 224.867 262.376 224.413 262.195 223.897C262.021 223.382 261.934 222.841 261.934 222.279C261.934 221.476 262.095 220.76 262.423 220.138C262.757 219.509 263.212 219.021 263.801 218.666C264.396 218.305 265.078 218.125 265.868 218.125C266.476 218.125 267.018 218.225 267.5 218.432C267.981 218.64 268.389 218.934 268.724 219.315C269.065 219.69 269.326 220.131 269.507 220.64C269.687 221.141 269.774 221.683 269.774 222.272C269.774 223.068 269.614 223.784 269.293 224.426C268.971 225.068 268.517 225.576 267.928 225.958C267.346 226.332 266.657 226.52 265.874 226.52V226.533ZM265.874 225.817C266.577 225.817 267.152 225.65 267.614 225.309C268.075 224.974 268.423 224.533 268.65 223.998C268.884 223.456 268.998 222.887 268.998 222.285C268.998 221.603 268.871 221.008 268.617 220.499C268.369 219.984 268.008 219.583 267.54 219.289C267.072 219.001 266.516 218.854 265.874 218.854C265.185 218.854 264.603 219.008 264.128 219.309C263.66 219.616 263.306 220.024 263.058 220.546C262.817 221.061 262.697 221.636 262.697 222.279C262.697 222.921 262.811 223.456 263.045 223.991C263.279 224.533 263.627 224.968 264.095 225.302C264.57 225.637 265.159 225.811 265.868 225.811L265.874 225.817ZM272.671 229.557V218.312L273.386 218.245V219.275H273.507C273.667 219.088 273.875 218.901 274.136 218.727C274.396 218.553 274.697 218.412 275.032 218.305C275.373 218.198 275.748 218.145 276.149 218.145C276.898 218.145 277.547 218.325 278.082 218.693C278.624 219.054 279.032 219.549 279.313 220.178C279.594 220.807 279.734 221.516 279.734 222.325C279.734 223.081 279.601 223.784 279.333 224.419C279.072 225.055 278.678 225.57 278.149 225.964C277.621 226.352 276.965 226.546 276.176 226.546C275.795 226.546 275.447 226.5 275.126 226.399C274.804 226.306 274.51 226.165 274.243 225.985C273.975 225.797 273.734 225.563 273.513 225.302H273.413V229.53L272.657 229.57L272.671 229.557ZM276.062 225.804C276.744 225.804 277.3 225.643 277.728 225.316C278.156 224.981 278.47 224.553 278.664 224.025C278.865 223.489 278.965 222.921 278.965 222.319C278.965 221.717 278.858 221.115 278.644 220.6C278.43 220.078 278.109 219.663 277.674 219.349C277.246 219.034 276.698 218.874 276.029 218.874C275.687 218.874 275.353 218.921 275.032 219.021C274.718 219.121 274.423 219.268 274.142 219.469C273.868 219.663 273.627 219.911 273.427 220.212V224.259C273.627 224.586 273.855 224.861 274.109 225.088C274.363 225.316 274.651 225.496 274.972 225.617C275.3 225.737 275.661 225.797 276.055 225.797L276.062 225.804ZM282.658 226.386V218.319H287.842V218.988H282.952L283.407 218.439V226.386H282.658ZM292.27 226.54C291.762 226.54 291.32 226.446 290.946 226.265C290.585 226.078 290.304 225.811 290.103 225.476C289.909 225.142 289.809 224.74 289.809 224.285C289.809 223.857 289.889 223.496 290.043 223.208C290.203 222.914 290.417 222.68 290.671 222.499C290.926 222.312 291.207 222.172 291.514 222.065C291.822 221.964 292.116 221.877 292.404 221.817L295.14 221.269C295.167 220.586 295.086 220.071 294.906 219.723C294.718 219.375 294.464 219.141 294.136 219.028C293.815 218.914 293.461 218.854 293.073 218.854C292.886 218.854 292.692 218.867 292.478 218.894C292.27 218.914 292.049 218.954 291.815 219.008C291.581 219.054 291.334 219.121 291.066 219.208C290.799 219.289 290.511 219.396 290.21 219.516L290.15 218.767C290.344 218.68 290.564 218.6 290.805 218.519C291.053 218.446 291.3 218.372 291.561 218.319C291.829 218.258 292.096 218.212 292.371 218.178C292.645 218.145 292.906 218.131 293.16 218.131C293.708 218.131 294.19 218.225 294.598 218.406C295.006 218.586 295.32 218.887 295.535 219.289C295.755 219.69 295.869 220.212 295.869 220.847V226.372H295.16L295.147 225.115H295.033C294.852 225.362 294.625 225.59 294.337 225.811C294.063 226.025 293.742 226.199 293.394 226.332C293.039 226.466 292.665 226.526 292.27 226.526V226.54ZM292.391 225.831C292.725 225.831 293.06 225.77 293.401 225.643C293.742 225.516 294.063 225.322 294.364 225.055C294.665 224.78 294.919 224.433 295.12 224.004V221.79C295.033 221.837 294.899 221.891 294.739 221.951C294.578 222.004 294.33 222.071 294.003 222.145C293.675 222.218 293.22 222.312 292.638 222.419C292.264 222.493 291.922 222.593 291.608 222.727C291.294 222.861 291.046 223.055 290.859 223.295C290.671 223.543 290.584 223.851 290.584 224.232C290.584 224.807 290.752 225.215 291.093 225.456C291.434 225.697 291.869 225.817 292.391 225.817V225.831ZM299.187 226.386V218.319L299.936 218.278V226.386H299.187ZM299.622 222.633V221.964H305.107V222.633H299.622ZM304.719 226.386V218.319H305.461V226.386H304.719ZM309.04 226.386V218.319L309.789 218.285V226.386H309.04ZM309.381 216.111C309.174 216.111 309 216.044 308.866 215.917C308.732 215.783 308.659 215.583 308.659 215.322C308.659 215.061 308.726 214.847 308.866 214.72C309 214.586 309.181 214.519 309.395 214.519C309.609 214.519 309.789 214.586 309.916 214.72C310.05 214.854 310.124 215.054 310.124 215.322C310.124 215.589 310.057 215.783 309.916 215.917C309.783 216.051 309.609 216.111 309.375 216.111H309.381ZM315.756 226.54C315.415 226.54 315.087 226.52 314.78 226.473C314.472 226.426 314.184 226.372 313.923 226.312C313.662 226.239 313.428 226.165 313.228 226.085C313.027 225.998 312.86 225.918 312.733 225.837L312.846 225.088C313.087 225.235 313.361 225.362 313.669 225.469C313.977 225.576 314.311 225.663 314.659 225.724C315.014 225.784 315.368 225.811 315.729 225.811C316.338 225.811 316.813 225.737 317.154 225.59C317.502 225.436 317.75 225.242 317.89 224.994C318.037 224.747 318.111 224.486 318.111 224.192C318.111 223.851 318.011 223.563 317.803 223.329C317.596 223.095 317.315 222.921 316.96 222.8C316.606 222.673 316.204 222.613 315.763 222.613H314.178V221.978H315.602C316.385 221.978 316.954 221.817 317.301 221.503C317.656 221.188 317.83 220.794 317.83 220.325C317.83 219.978 317.736 219.697 317.542 219.483C317.355 219.268 317.094 219.115 316.76 219.014C316.425 218.914 316.044 218.86 315.616 218.86C315.335 218.86 315.047 218.887 314.766 218.934C314.485 218.981 314.198 219.048 313.903 219.155C313.616 219.255 313.308 219.396 312.987 219.57L312.9 218.82C313.114 218.707 313.368 218.6 313.656 218.493C313.943 218.385 314.264 218.299 314.612 218.232C314.96 218.165 315.321 218.131 315.696 218.131C316.325 218.131 316.86 218.218 317.288 218.399C317.716 218.573 318.044 218.82 318.265 219.135C318.485 219.442 318.599 219.804 318.599 220.212C318.599 220.76 318.452 221.195 318.158 221.516C317.863 221.837 317.536 222.051 317.168 222.158V222.259C317.402 222.312 317.649 222.419 317.91 222.566C318.171 222.713 318.392 222.928 318.579 223.202C318.773 223.469 318.867 223.81 318.867 224.219C318.867 224.6 318.773 224.968 318.579 225.322C318.392 225.677 318.071 225.964 317.616 226.185C317.168 226.406 316.539 226.52 315.75 226.52L315.756 226.54ZM323.716 226.54C323.208 226.54 322.767 226.446 322.392 226.265C322.024 226.078 321.75 225.811 321.549 225.476C321.355 225.142 321.255 224.74 321.255 224.285C321.255 223.857 321.335 223.496 321.489 223.208C321.649 222.914 321.864 222.68 322.118 222.499C322.372 222.312 322.653 222.172 322.961 222.065C323.268 221.964 323.563 221.877 323.85 221.817L326.586 221.269C326.613 220.586 326.533 220.071 326.352 219.723C326.165 219.375 325.911 219.141 325.583 219.028C325.262 218.914 324.907 218.854 324.519 218.854C324.332 218.854 324.138 218.867 323.924 218.894C323.716 218.914 323.496 218.954 323.262 219.008C323.027 219.054 322.78 219.121 322.512 219.208C322.245 219.289 321.957 219.396 321.656 219.516L321.596 218.767C321.79 218.68 322.011 218.6 322.251 218.519C322.499 218.446 322.747 218.372 323.007 218.319C323.275 218.258 323.543 218.212 323.817 218.178C324.091 218.145 324.352 218.131 324.606 218.131C325.155 218.131 325.636 218.225 326.044 218.406C326.452 218.586 326.767 218.887 326.981 219.289C327.202 219.69 327.315 220.212 327.315 220.847V226.372H326.606L326.593 225.115H326.479C326.299 225.362 326.071 225.59 325.783 225.811C325.509 226.025 325.188 226.199 324.84 226.332C324.486 226.466 324.111 226.526 323.716 226.526V226.54ZM323.837 225.831C324.171 225.831 324.506 225.77 324.847 225.643C325.188 225.516 325.509 225.322 325.81 225.055C326.111 224.78 326.365 224.433 326.566 224.004V221.79C326.479 221.837 326.345 221.891 326.185 221.951C326.024 222.004 325.777 222.071 325.449 222.145C325.121 222.218 324.666 222.312 324.084 222.419C323.71 222.493 323.369 222.593 323.054 222.727C322.747 222.861 322.492 223.055 322.305 223.295C322.118 223.543 322.031 223.851 322.031 224.232C322.031 224.807 322.198 225.215 322.539 225.456C322.88 225.697 323.315 225.817 323.837 225.817V225.831ZM337.403 228.667L337.363 226.259L337.617 226.379H330.64V218.312L331.389 218.272V226.259L330.934 225.71H338.092V228.667H337.409H337.403ZM336.072 226.259V218.312H336.827V226.259H336.072ZM340.54 226.379V218.312L341.289 218.278V226.379H340.54ZM340.881 216.104C340.674 216.104 340.507 216.038 340.366 215.91C340.232 215.777 340.159 215.576 340.159 215.315C340.159 215.054 340.226 214.84 340.366 214.713C340.5 214.579 340.68 214.512 340.895 214.512C341.109 214.512 341.289 214.579 341.416 214.713C341.55 214.847 341.624 215.048 341.624 215.315C341.624 215.583 341.557 215.777 341.416 215.91C341.282 216.044 341.109 216.104 340.874 216.104H340.881ZM344.139 226.379C344.446 225.991 344.754 225.61 345.062 225.222C345.37 224.834 345.677 224.453 345.978 224.078L347.243 222.493L347.176 222.941C346.473 222.941 345.918 222.847 345.51 222.653C345.102 222.459 344.814 222.192 344.634 221.851C344.46 221.516 344.373 221.128 344.373 220.7C344.373 220.158 344.48 219.717 344.701 219.362C344.921 219.008 345.256 218.747 345.697 218.573C346.139 218.392 346.687 218.305 347.343 218.305H350.28V226.372H349.537V218.961H347.39C347.055 218.961 346.721 219.001 346.373 219.081C346.025 219.155 345.731 219.322 345.497 219.576C345.263 219.824 345.149 220.212 345.149 220.727C345.149 221.141 345.229 221.463 345.383 221.69C345.544 221.917 345.751 222.085 345.998 222.178C346.246 222.279 346.5 222.339 346.774 222.359C347.049 222.379 347.296 222.392 347.517 222.392H349.698V223.001H347.497L347.992 222.653L346.841 224.105C346.554 224.479 346.259 224.861 345.958 225.242C345.657 225.623 345.363 225.998 345.069 226.366H344.139V226.379Z" fill="#203170"/>
<path d="M147.334 235.757C136.618 241.049 120.824 243.825 112.409 233.122C99.2448 215.951 110.436 176.979 116.129 157.694C127.407 121.23 143.842 86.8342 159.114 52.0433C162.759 42.9191 171.368 24.2293 170.432 15.2924C170.399 15.1051 170.358 14.9981 170.345 14.9446C170.325 14.9245 170.345 14.9312 170.412 15.0516C170.526 15.2389 170.947 15.6068 171.148 15.6737C171.362 15.7473 171.208 15.6737 170.807 15.6536C170.713 15.6403 170.599 15.6403 170.465 15.6403H170.372H170.325C170.285 15.6403 170.305 15.6403 170.372 15.6403C170.546 15.6403 170.793 15.5867 170.887 15.5801C171.415 15.4663 171.449 15.3994 171.375 15.4396C169.449 16.5299 167.556 18.3227 165.676 20.1288C157.997 27.701 150.953 35.9154 143.882 44.3774C126.785 64.9937 110.489 86.7071 91.0839 105.551C84.7291 111.377 73.3372 122.241 63.8451 119.056C48.9816 111.785 59.2296 85.7907 60.2664 73.2683C60.3868 71.6495 60.5875 69.9839 60.1794 68.7531C60.166 68.7263 60.1794 68.7999 60.2931 68.9337C60.4002 69.0675 60.6209 69.2481 60.8149 69.335C61.0089 69.4287 61.1494 69.4488 61.1694 69.4488C60.6209 69.8033 60.1192 70.412 59.6175 71.0475C50.2592 82.9745 45.4764 97.731 34.9743 109.257C32.4591 111.939 29.8503 114.702 26.5525 116.494C23.8299 118.26 20.987 119.672 17.6825 120.187C11.214 121.364 4.57821 117.826 1.30715 112.327C0.537887 110.969 -1.06754 108.768 1.05965 107.731C1.80216 107.41 2.55136 107.658 3.09988 108.16C4.05644 108.936 5.18693 109.825 6.27728 110.454C9.1336 112.213 12.7926 113.023 15.756 111.765C17.7561 110.989 19.8164 109.625 21.2345 107.939C26.9873 102.019 31.1346 95.3028 35.6365 88.1118C39.543 82.0313 43.3492 75.2751 47.8912 69.228C51.3763 64.298 57.8315 59.2677 64.2733 61.8297C71.5445 65.4285 67.6447 77.1883 66.6613 83.2019C65.5175 89.5367 60.2998 108.407 67.2767 111.685L66.5209 111.424C84.6153 111.591 135.059 32.1293 150.123 14.8041C153.321 10.9778 156.304 7.49942 160.351 4.16147C162.726 2.26841 166.051 0.141218 169.703 0.0208111C170.305 0.0208111 170.887 -0.0260138 171.516 0.0208111C177.235 0.0877038 182.994 3.61295 185.028 9.35904C190.045 22.6172 178.365 45.5748 173.175 58.0436C172.452 59.7761 171.134 62.619 170.312 64.3382C162.499 80.4192 154.779 96.2393 147.555 112.514C138.972 132.977 99.693 218.419 122.095 232.139C128.651 235.831 138.33 234.125 145.341 231.537C148.123 230.386 150.003 234.339 147.341 235.777L147.334 235.757Z" fill="#203170"/>
</svg>
