<svg width="203" height="185" viewBox="0 0 203 185" fill="none" xmlns="http://www.w3.org/2000/svg">
<path d="M84.2204 149.836L71.7723 141.218L61.2393 149.836L65.0694 151.272L77.9963 150.793L84.2204 149.836Z" fill="#91A6DC"/>
<path d="M172.794 38.2818C170.878 36.3667 168.485 37.4838 167.527 38.2818V69.8808L164.654 71.7959H135.449V107.225C135.449 110.289 136.088 112.013 136.407 112.492H200.562L201.52 109.619V65.5718C192.742 57.2731 174.709 40.1969 172.794 38.2818Z" fill="#FFBB56"/>
<path d="M129.225 117.279C123.863 104.64 101.456 81.3714 90.9234 71.3171L81.347 86.6379L76.5593 94.2983H74.1654L71.2928 91.9044L62.6748 72.2747C57.5679 76.5837 46.205 86.3506 41.6088 90.9469C35.8635 96.6922 22.4578 114.407 14.7983 141.697C9.05303 157.401 18.4689 169.945 23.895 174.254L38.2582 181.435L48.3125 183.35L44.0035 140.739C45.1207 138.186 48.0252 131.643 50.7064 125.897C53.3875 120.152 55.9729 118.077 56.9304 117.758V106.268C56.9304 104.736 59.1647 103.076 60.2818 102.437C67.7826 102.437 83.4545 102.533 86.1356 102.916C88.8168 103.299 89.487 106.268 89.487 107.704V116.801L92.3597 118.716L95.7111 129.728L97.1474 135.952L97.6262 156.06L96.1899 170.902L93.3172 175.211L104.329 179.999C106.723 180.158 112.468 180.478 116.298 180.478C120.129 180.478 125.874 176.328 128.268 174.254C130.023 171.7 133.822 165.827 134.971 162.763C136.407 158.933 138.322 150.794 138.322 141.697C138.322 132.6 135.928 133.079 129.225 117.279Z" fill="#91A6DC"/>
<path d="M125.946 0.937256V111.397" stroke="#203170" stroke-width="1.3" stroke-linecap="round"/>
<path d="M128.624 28.0996H164.025C165.215 28.2031 167.595 29.2171 167.595 32.4455C167.595 35.674 167.595 57.7969 167.595 68.4548C167.595 69.4895 166.881 71.559 164.025 71.559C161.169 71.559 137.449 71.559 125.946 71.559" stroke="#203170" stroke-width="1.3" stroke-linecap="round"/>
<path d="M139.526 52.3693C141.155 51.0377 144.719 48.6204 145.941 49.6037C147.468 50.8329 150.217 52.3693 150.828 52.3693C151.439 52.3693 152.355 50.2183 154.187 50.8329C155.653 51.3245 158.26 52.062 159.38 52.3693C160.805 52.6766 163.534 52.7995 163.045 50.8329C162.556 48.8662 164.063 50.0134 164.878 50.8329M159.38 42.8435C159.074 43.458 157.792 44.3184 155.104 42.8435C151.744 40.9998 147.773 33.3176 151.439 32.0885C154.371 31.1052 156.325 34.1371 156.936 35.7759C158.056 33.9322 160.846 30.6135 163.045 32.0885C165.244 33.5635 161.518 39.873 159.38 42.8435Z" stroke="#203170" stroke-width="1.3" stroke-linecap="round"/>
<path d="M139.526 56.884C140.231 56.1764 141.88 54.8825 142.846 55.3677C144.053 55.9742 145.261 58.7035 147.071 57.7938C148.882 56.884 147.977 55.3677 150.089 55.3677C152.202 55.3677 153.107 57.7938 154.918 57.7938C156.367 57.7938 159.143 57.1872 160.351 56.884" stroke="#203170" stroke-width="1.3" stroke-linecap="round"/>
<path d="M167.595 38.0587C168.209 37.4446 171.212 36.4743 173.423 38.9309C175.635 41.3875 193.387 57.7649 201.986 65.6464V108.33C202.088 109.661 201.679 112.445 199.222 112.936C196.765 113.427 157.453 113.141 138.103 112.936C136.465 113.141 133.189 112.506 133.189 108.33C133.189 104.154 133.189 82.0238 133.189 71.4809" stroke="#203170" stroke-width="1.3" stroke-linecap="round"/>
<path d="M137.716 74.2749L154.918 91.4776" stroke="#203170" stroke-width="1.3" stroke-linecap="round"/>
<path d="M135.905 111.676L160.804 86.6222C162.36 85.2651 166.655 83.6158 171.386 87.8749C176.117 92.134 189.541 105.934 195.662 112.302" stroke="#203170" stroke-width="1.3" stroke-linecap="round"/>
<path d="M202 65.2209L175.743 91.4777" stroke="#203170" stroke-width="1.3" stroke-linecap="round"/>
<path d="M198.378 72.4641L182.986 88.7614" stroke="#203170" stroke-width="1.3" stroke-linecap="round"/>
<path d="M196.567 80.6128L191.135 85.1398" stroke="#203170" stroke-width="1.3" stroke-linecap="round"/>
<path d="M44.459 141.275C45.9329 135.412 50.5315 122.315 57.1346 116.829" stroke="#203170" stroke-width="1.3" stroke-linecap="round" stroke-linejoin="round"/>
<path d="M57.1357 123.619V106.778C57.1357 105.447 58.0325 102.724 61.6197 102.478C65.2069 102.232 78.2603 102.376 84.3385 102.478C86.2318 102.376 89.9585 103.338 89.7193 108.006C89.4802 112.674 89.6197 124.283 89.7193 129.504C86.5307 126.536 80.3515 120.489 77.96 119.998" stroke="#203170" stroke-width="1.3" stroke-linecap="round" stroke-linejoin="round"/>
<path d="M72.0742 141.275C77.7078 146.146 90.3936 153.871 97.8782 156.667" stroke="#203170" stroke-width="1.3" stroke-linecap="round" stroke-linejoin="round"/>
<path d="M89.7295 116.829C90.552 116.829 92.3821 117.58 93.1224 120.586C94.0477 124.342 97.4407 131.855 97.4407 136.864C97.4407 141.872 99.9082 170.672 93.1224 175.68" stroke="#203170" stroke-width="1.3" stroke-linecap="round" stroke-linejoin="round"/>
<path d="M97.4248 139.464C99.9901 138.257 106.66 136.204 112.817 137.653C120.513 139.464 125.04 145.802 120.06 145.349C115.08 144.896 114.175 140.369 114.175 133.126C114.175 127.331 115.08 121.356 115.533 119.092" stroke="#203170" stroke-width="1.3" stroke-linecap="round"/>
<path d="M87.9189 152.14C88.0052 158.804 89.2124 172.842 93.3514 175.68" stroke="#203170" stroke-width="1.3" stroke-linecap="round" stroke-linejoin="round"/>
<path d="M89.7295 156.667C90.1938 160.648 91.5682 169.12 93.3511 171.153" stroke="#203170" stroke-width="1.3" stroke-linecap="round" stroke-linejoin="round"/>
<path d="M92.4463 157.572C92.6475 160.017 93.4724 165.612 95.1625 168.437" stroke="#203170" stroke-width="1.3" stroke-linecap="round" stroke-linejoin="round"/>
<path d="M45.8174 162.552C47.5731 160.475 50.9418 156.649 52.1811 156.15C53.7303 155.527 72.9403 141.196 75.419 137.145C77.8977 133.095 78.5174 129.045 76.6583 126.864C77.278 122.814 78.2075 121.256 77.8977 119.386C77.5878 117.517 76.3485 116.271 70.7714 121.567C66.3097 125.805 64.1615 127.902 63.6451 128.422L62.4058 126.864C64.4714 124.164 68.9124 118.514 70.1517 117.517C71.7009 116.271 71.7009 113.155 67.673 114.402C64.4507 115.399 60.1336 119.594 58.3779 121.567C57.3451 123.125 55.1556 126.802 54.6598 129.045" stroke="#203170" stroke-width="1.3" stroke-linecap="round" stroke-linejoin="round"/>
<path d="M27.2568 145.802C30.4311 144.098 38.3157 140.625 44.4595 140.369" stroke="#203170" stroke-width="1.3" stroke-linecap="round" stroke-linejoin="round"/>
<path d="M48.9863 183.829C52.8985 179.101 59.4539 166.687 54.3787 154.856" stroke="#203170" stroke-width="1.3" stroke-linecap="round" stroke-linejoin="round"/>
<path d="M44.459 140.369C44.7419 146.204 45.4776 159.564 46.1566 166.324C46.8357 173.085 48.3258 180.811 48.986 183.829" stroke="#203170" stroke-width="1.3" stroke-linecap="round" stroke-linejoin="round"/>
<path d="M52.6084 156.667C53.2916 158.936 54.2482 165.191 52.6084 172.059" stroke="#203170" stroke-width="1.3" stroke-linecap="round" stroke-linejoin="round"/>
<path d="M56.2295 167.964C61.1553 170.574 73.8656 173.795 88.824 167.531" stroke="#203170" stroke-width="1.3" stroke-linecap="round" stroke-linejoin="round"/>
<path d="M60.2822 150.314C64.5712 151.037 75.3636 152.049 84.2209 150.314" stroke="#203170" stroke-width="1.3" stroke-linecap="round" stroke-linejoin="round"/>
<path d="M59.8661 109.038C59.7656 108.142 60.1072 106.297 62.2774 106.083C64.4475 105.868 67.8031 105.993 69.2096 106.083C70.0133 106.083 71.6208 106.62 71.6208 108.769C71.6208 110.918 71.6208 113.784 71.6208 114.948" stroke="#203170" stroke-width="1.3" stroke-linecap="round" stroke-linejoin="round"/>
<path d="M59.8506 108.68V116.486C59.9799 116.902 60.2516 117.734 62.1141 117.734" stroke="#203170" stroke-width="1.3" stroke-linecap="round" stroke-linejoin="round"/>
<circle cx="63.4729" cy="108.68" r="1.16081" stroke="#203170" stroke-width="1.3"/>
<circle cx="63.4729" cy="114.113" r="1.16081" stroke="#203170" stroke-width="1.3"/>
<circle cx="68.453" cy="111.849" r="1.61351" stroke="#203170" stroke-width="1.3"/>
<path d="M48.9864 183.829C42.1489 182.722 26.2362 178.215 17.2852 169.041C6.0966 157.572 -1.98409 162.703 2.05626 165.117C6.0966 167.532 10.4477 163.608 9.51532 156.667" stroke="#203170" stroke-width="1.3" stroke-linecap="round" stroke-linejoin="round"/>
<path d="M11.8652 148.476C12.3744 142.497 15.9587 125.919 26.2227 107.436C36.4868 88.9537 54.3268 75.2132 61.9638 70.6533C64.7131 77.9492 70.7616 92.784 72.961 93.7568C75.7103 94.9728 76.6267 94.3648 78.7651 91.0209C80.4758 88.3457 87.2167 76.3279 90.3733 70.6533C98.723 78.7598 116.217 96.3103 119.394 101.661C123.365 108.348 141.083 131.756 138.333 148.78C135.584 165.803 126.343 192.096 93.3516 175.68" stroke="#203170" stroke-width="1.3" stroke-linecap="round" stroke-linejoin="round"/>
<path d="M31.4781 97.8155C30.5609 95.6903 30.0106 89.6792 35.1467 82.6359C41.5668 73.8317 39.121 76.5641 39.4267 70.1886C39.6713 65.0883 42.7896 61.5869 44.3182 60.4737C42.9934 52.1755 41.9336 32.8469 48.2926 21.9176C56.2413 8.25598 65.7186 2.48774 81.9217 5.22007C94.8842 7.40592 100.978 23.7391 102.405 31.6325" stroke="#203170" stroke-width="1.3" stroke-linecap="round" stroke-linejoin="round"/>
<path d="M48.9863 29.7807L57.1865 30.7508L60.5274 25.2537V31.7209L66.6016 30.7508L69.9424 13.6128C70.0437 18.6787 70.7321 29.0047 72.6758 29.7807C74.6196 30.5568 89.6837 31.3975 96.9727 31.7209" stroke="#203170" stroke-width="1.3" stroke-linecap="round" stroke-linejoin="round"/>
<path d="M95.124 35.2122C96.995 33.3869 101.21 30.284 103.1 32.4743C105.463 35.2122 104.873 44.9471 93.3516 51.6398" stroke="#203170" stroke-width="1.3" stroke-linecap="round" stroke-linejoin="round"/>
<path d="M49.6487 29.9099C47.7238 30.0137 44.577 32.1508 47.389 39.8694C50.201 47.5879 53.2474 49.7251 54.4191 49.8288" stroke="#203170" stroke-width="1.3" stroke-linecap="round" stroke-linejoin="round"/>
<path d="M95.1621 40.775L100.595 33.5317" stroke="#203170" stroke-width="1.3" stroke-linecap="round" stroke-linejoin="round"/>
<path d="M102.405 37.1533H97.8779" stroke="#203170" stroke-width="1.3" stroke-linecap="round" stroke-linejoin="round"/>
<path d="M49.8916 32.6262L53.5132 38.0586" stroke="#203170" stroke-width="1.3" stroke-linecap="round" stroke-linejoin="round"/>
<path d="M51.7025 35.3423H48.9863" stroke="#203170" stroke-width="1.3" stroke-linecap="round" stroke-linejoin="round"/>
<path d="M69.1738 36.5869C72.2789 35.8613 71.366 34.0842 70.5214 33.2863C65.1057 32.2645 61.3177 33.7757 61.1551 34.7287C60.9925 35.6816 65.2926 37.4939 69.1738 36.5869Z" stroke="#203170" stroke-width="1.3" stroke-linecap="round" stroke-linejoin="round"/>
<path d="M80.3996 36.3832C77.352 35.4454 78.3851 33.7354 79.2826 32.9976C84.7558 32.3512 88.4308 34.1198 88.5273 35.0817C88.6239 36.0435 84.2092 37.5553 80.3996 36.3832Z" stroke="#203170" stroke-width="1.3" stroke-linecap="round" stroke-linejoin="round"/>
<path d="M94.9987 31.7134C95.618 39.1969 94.8129 56.3788 86.6385 65.2391C76.4204 76.3146 60.3193 68.8312 56.294 56.8577C53.0737 47.2789 53.3008 35.505 53.8169 30.8154" stroke="#203170" stroke-width="1.3" stroke-linecap="round" stroke-linejoin="round"/>
<path d="M61.5579 39.4556C60.5797 39.4556 59.5199 40.6784 59.1123 41.2898C63.2698 43.4908 68.7928 43.0221 71.0346 42.5126C71.646 41.9012 72.0129 40.8006 68.589 41.2898C64.3092 41.9012 62.7807 39.4556 61.5579 39.4556Z" fill="#203170"/>
<circle cx="66.1438" cy="44.0411" r="2.4456" fill="#203170"/>
<path d="M88.2468 39.4556C89.225 39.4556 90.2848 40.6784 90.6924 41.2898C86.5349 43.4908 81.0119 43.0221 78.7701 42.5126C78.1587 41.9012 77.7918 40.8006 81.2157 41.2898C85.4955 41.9012 87.024 39.4556 88.2468 39.4556Z" fill="#203170"/>
<circle cx="2.4456" cy="2.4456" r="2.4456" transform="matrix(-1 0 0 1 86.1064 41.5955)" fill="#203170"/>
<path d="M66.1889 68.3899C66.3398 69.4462 66.551 71.8304 66.1889 72.9169C65.8267 74.0034 64.2272 74.275 63.4727 74.275" stroke="#203170" stroke-width="1.3"/>
<path d="M85.402 68.3899C85.2511 69.4462 85.0398 71.8304 85.402 72.9169C85.7641 74.0034 87.3637 74.275 88.1182 74.275" stroke="#203170" stroke-width="1.3" stroke-linecap="round"/>
<path d="M102.753 42.1328C102.649 45.3341 102.252 53.9095 101.499 57.169C110.905 62.1164 108.084 70.8471 109.651 73.1752C111.219 75.5034 122.82 77.2496 118.744 100.531" stroke="#203170" stroke-width="1.3"/>
</svg>
