<svg width="224" height="226" viewBox="0 0 224 226" fill="none" xmlns="http://www.w3.org/2000/svg">
<circle cx="108.831" cy="116.168" r="62.3084" fill="#DDD6CB"/>
<mask id="mask0_472_3011" style="mask-type:alpha" maskUnits="userSpaceOnUse" x="0" y="0" width="224" height="226">
<path fill-rule="evenodd" clip-rule="evenodd" d="M223.034 0H0.964844V226H223.034V0ZM81.0472 61.9043C80.8835 59.6115 79.2785 54.2399 72.2037 53.0608C65.129 51.8816 59.9211 60.2666 58.4472 64.3608L51.569 86.4695L65.8168 78.1173L74.169 68.7825L81.0472 61.9043ZM68.7652 200.944C71.5317 202.734 78.515 205.332 86.7857 207.293L157.2 179.326L118.878 165.57C119.042 164.751 118.289 163.113 113.965 163.113C109.642 163.113 104.63 164.423 102.665 165.078C98.4072 165.733 88.8104 167.83 84.4869 170.974C80.1634 174.118 75.4797 179.162 73.6782 181.291L69.2565 190.135L68.7652 200.944ZM145.408 65.3434L145.899 61.9043C147.472 61.1182 158.673 66.8174 164.078 69.7652C167.026 72.713 173.314 79.1 174.886 81.0652C173.707 82.2443 170.956 83.5217 166.534 83.5217L158.673 73.6956L145.408 65.3434Z" fill="#969696"/>
</mask>
<g mask="url(#mask0_472_3011)">
<path d="M112.491 111.526L97.2607 101.7L107.087 96.7871L123.3 106.122V128.722L112.491 134.126V111.526Z" fill="#FFBB56"/>
<path d="M190.136 130.486C189.959 132.325 189.795 134.164 189.59 135.996C188.222 148.377 184.339 159.931 177.735 170.487C165.313 190.348 147.667 203.071 124.894 208.615C120.286 209.736 115.59 210.386 110.845 210.625C110.442 210.646 110.038 210.735 109.642 210.789H102.101C100.132 210.605 98.163 210.447 96.2077 210.229C86.1305 209.08 76.5729 206.195 67.5417 201.58C67.2613 201.437 66.9879 201.32 66.9195 200.944C66.1401 196.877 65.7504 192.809 66.7486 188.707C67.6237 185.111 69.2098 181.884 71.4864 178.958C76.8395 172.08 83.8607 167.67 92.051 164.984C100.542 162.201 109.307 160.765 118.147 159.767C124.211 159.084 130.241 158.25 136.052 156.294C140.694 154.735 144.885 152.295 148.529 149.061C152.89 145.192 155.105 140.31 154.312 134.362C153.936 131.559 152.514 129.372 150.005 127.963C148.898 127.348 147.92 126.562 146.997 125.707C144.338 123.246 144.96 119.547 148.31 118.05C150.648 117.004 152.925 117.442 155.112 118.529C155.81 118.87 156.192 119.636 156.685 120.217C157.936 121.694 160.089 121.332 160.684 119.089C161.217 117.072 161.074 115.09 160.096 113.223C158.948 111.036 157.512 109.06 155.427 107.651C154.333 106.906 153.301 106.072 152.425 105.088C151.092 103.591 150.915 101.82 151.455 99.9603C151.94 98.2853 153.164 97.3487 154.818 97.0137C156.486 96.6718 157.977 97.1914 159.344 98.1554C161.539 99.7073 163.05 101.792 164.089 104.24C164.554 105.334 164.957 106.462 165.415 107.563C165.586 107.98 165.757 108.588 166.359 108.363C166.878 108.164 166.789 107.583 166.68 107.111C166.495 106.312 166.242 105.539 165.832 104.821C164.629 102.722 163.433 100.61 161.881 98.7502C159.378 95.7557 161.682 92.7408 164.547 92.4058C167.439 92.0708 169.661 93.0826 171.096 95.6395C172.293 97.7657 172.799 100.083 172.97 102.49C173.038 103.495 173.045 104.5 173.141 105.498C173.195 106.127 173.106 106.954 174.009 107.057C174.904 107.159 175.103 106.414 175.308 105.724C175.882 103.775 175.752 101.875 174.966 100.015C174.576 99.092 174.193 98.1622 173.797 97.2393C173.421 96.3642 173.202 95.4481 173.182 94.4978C173.147 92.6929 174.364 91.6264 176.156 91.8725C177.461 92.0503 178.391 92.8228 179.15 93.8278C180.408 95.4959 180.914 97.4307 180.941 99.4817C180.975 101.963 181.037 104.438 180.886 106.92C180.852 107.474 180.962 108.055 181.098 108.595C181.242 109.156 181.392 109.887 182.179 109.778C182.931 109.668 183.375 109.087 183.416 108.315C183.464 107.364 183.197 106.448 182.91 105.546C182.685 104.828 182.438 104.11 182.281 103.379C182.172 102.893 182.151 102.38 182.179 101.881C182.247 100.685 182.944 99.8304 183.895 99.7005C184.797 99.5774 186.028 100.411 186.335 101.41C187.477 105.101 188.379 108.848 189.002 112.663C189.48 115.609 189.836 118.57 189.979 121.55C189.993 121.824 190.082 122.097 190.136 122.371V130.479V130.486ZM74.2416 203.317C74.1595 198.914 75.5474 195.003 76.9557 191.1C76.9967 190.983 77.0241 190.86 77.0583 190.737C80.9005 178.821 89.0224 171.82 101.328 169.639C101.793 169.557 102.361 169.448 102.47 170.097C102.573 170.692 102.033 170.761 101.602 170.863C100.139 171.226 98.6758 171.574 97.2195 171.964C90.2462 173.837 85.0982 178.062 81.338 184.154C79.2118 187.599 78.2 191.462 76.8668 195.215C76.19 197.123 75.8003 199.085 75.6021 201.095C75.3423 203.829 75.3218 203.829 77.9128 204.739C78.9999 205.122 78.993 205.122 79.0204 204.014C79.0272 203.604 79.0614 203.201 79.0819 202.79C79.328 198.121 80.9483 193.841 82.7874 189.623C84.7495 185.111 87.9627 181.651 92.0442 178.965C92.5159 178.657 93.0355 178.418 93.5414 178.172C93.9585 177.973 94.437 177.843 94.6763 178.383C94.9019 178.883 94.4917 179.115 94.102 179.293C91.5246 180.51 89.3779 182.308 87.5935 184.482C83.095 189.951 80.9552 196.371 80.3262 203.337C80.1279 205.552 80.1963 205.532 82.2815 206.174C82.972 206.386 83.1702 206.298 83.2318 205.532C83.5873 201.122 84.8384 196.952 87.0261 193.103C88.6327 190.272 90.547 187.668 93.3432 185.849C93.7739 185.569 94.3071 185.083 94.7242 185.719C95.1139 186.314 94.4849 186.581 94.0815 186.861C93.1449 187.504 92.2493 188.194 91.4904 189.042C87.2312 193.814 85.0503 199.454 84.4624 205.764C84.394 206.516 84.6401 206.844 85.4127 207.036C97.199 209.948 109.074 210.4 121.004 208.15C140.29 204.52 156.507 195.325 169.059 180.284C187.251 158.482 192.721 133.521 186.315 105.915C185.98 104.466 185.782 102.941 184.879 101.669C184.647 101.341 184.476 100.87 183.963 101.034C183.45 101.198 183.443 101.704 183.43 102.141C183.396 103.098 183.683 104.001 184.011 104.889C184.407 105.956 184.681 107.057 184.694 108.198C184.715 109.573 183.607 110.906 182.322 111.097C181.208 111.268 180.299 110.475 179.868 108.964C179.649 108.198 179.567 107.419 179.622 106.633C179.813 103.898 179.69 101.17 179.546 98.4425C179.451 96.5966 178.747 94.9558 177.29 93.7321C176.6 93.1578 175.786 92.8433 174.945 93.3355C174.159 93.7936 174.419 94.614 174.535 95.3045C174.617 95.8241 174.809 96.3368 175 96.8291C175.356 97.7383 175.738 98.6271 176.121 99.5227C177.099 101.82 177.16 104.158 176.381 106.517C175.957 107.795 175.027 108.465 173.872 108.363C172.792 108.26 172.101 107.528 171.937 106.161C171.801 105.006 171.794 103.843 171.712 102.681C171.561 100.466 171.117 98.3195 170.037 96.3573C168.751 94.0192 166.735 93.1578 164.157 93.8004C162.168 94.2995 161.511 96.0087 162.674 97.6837C163.426 98.7707 164.246 99.803 164.937 100.931C166.065 102.77 167.391 104.513 167.876 106.688C168.204 108.137 167.719 109.381 166.673 109.702C165.702 110.003 164.718 109.32 164.178 107.918C163.61 106.455 163.084 104.972 162.359 103.577C161.423 101.758 160.124 100.241 158.435 99.0783C157.355 98.34 156.158 97.9708 154.866 98.299C152.453 98.9074 151.585 102.244 153.321 104.206C154.135 105.122 155.085 105.901 156.104 106.592C158.428 108.171 160.048 110.352 161.293 112.827C162.359 114.933 162.489 117.161 161.901 119.431C161.122 122.46 157.738 123.417 155.816 121.106C155.481 120.703 155.044 120.368 154.62 120.046C152.959 118.795 151.147 118.351 149.13 119.082C146.389 120.081 145.801 122.904 147.927 124.846C148.809 125.652 149.759 126.37 150.798 126.972C153.383 128.455 154.962 130.725 155.461 133.617C156.603 140.214 154.224 145.643 149.397 149.984C145.801 153.218 141.637 155.652 137.057 157.279C131.034 159.412 124.758 160.301 118.441 161.005C109.69 161.989 101.014 163.404 92.6048 166.132C84.4829 168.764 77.5232 173.106 72.3068 179.976C67.8561 185.835 66.4546 192.371 68.0407 199.55C68.2937 200.705 68.6902 201.033 69.996 201.238C69.9345 200.261 69.9276 199.297 70.0165 198.326C70.4951 193.034 72.0812 188.078 74.4398 183.326C77.8308 176.51 83.0472 171.8 90.1505 169.051C97.4999 166.207 105.164 165.018 112.937 164.259C113.463 164.204 114.256 163.972 114.332 164.758C114.427 165.674 113.545 165.449 113.012 165.503C106.066 166.214 99.168 167.178 92.5364 169.516C87.5525 171.273 82.9446 173.639 79.5331 177.837C75.6773 182.581 73.2366 188.016 71.9581 193.971C71.4249 196.46 70.9805 198.969 71.336 201.539C71.3839 201.881 71.4249 202.127 71.7804 202.271C72.5324 202.572 73.2708 202.907 74.2416 203.317Z" fill="#203170"/>
<path d="M21.6133 122.569C21.791 120.764 21.9483 118.952 22.1465 117.148C23.507 104.76 27.4518 93.2398 33.9534 82.6157C41.1934 70.7951 50.7921 61.34 62.6537 54.1752C66.1199 52.0832 69.8732 51.3175 73.7769 52.2951C78.3028 53.43 81.2425 56.3561 82.3911 60.9708C83.2594 64.4712 82.3432 67.6229 80.5452 70.59C78.1045 74.6305 75.1716 78.3359 72.266 82.0346C67.706 87.832 63.8364 94.0124 61.5051 101.04C59.0508 108.417 58.2577 116.02 59.3106 123.731C59.9737 128.585 62.3324 132.728 65.9011 136.03C67.9658 137.945 70.5432 138.957 73.5103 138.56C76.744 138.122 79.1027 140.932 78.2071 144.063C77.4687 146.641 75.7732 148.131 73.1138 148.405C70.3723 148.685 67.6581 148.371 64.985 147.728C64.7115 147.66 64.4381 147.578 64.1646 147.502C62.0179 146.908 60.9445 147.803 61.3137 150.059C61.7854 152.965 63.0229 155.549 65.0055 157.75C66.3455 159.241 67.9658 160.362 69.6818 161.374C70.9534 162.119 72.0609 162.994 72.4233 164.553C72.9702 166.871 71.7191 168.587 69.3468 168.655C67.5692 168.71 65.9421 168.204 64.4107 167.315C61.4299 165.572 59.1533 163.158 57.5399 160.116C57.3211 159.699 57.0682 159.302 56.8084 158.913C56.6921 158.742 56.5281 158.537 56.2683 158.619C56.0085 158.701 56.0358 158.967 56.029 159.179C55.9948 160.13 56.3845 160.95 56.8015 161.764C58.1415 164.409 60.2335 166.385 62.5306 168.176C63.2963 168.778 64.1167 169.332 64.6705 170.145C65.4636 171.287 66.1199 172.613 65.4225 173.926C64.7252 175.245 63.2758 175.116 61.9632 175.006C60.1857 174.863 58.6269 174.152 57.1912 173.153C54.3061 171.143 52.0432 168.573 50.2315 165.572C49.8281 164.902 49.4658 164.204 48.9257 163.616C48.4608 163.117 48.1805 163.281 48.0301 163.862C47.8865 164.423 47.9549 164.984 48.1121 165.537C48.6796 167.561 49.6367 169.386 50.9562 171.02C52.1389 172.49 53.3285 173.953 54.3745 175.519C54.8667 176.257 55.3111 177.009 55.318 177.939C55.3248 179.3 54.6206 180.065 53.2601 180.093C51.7424 180.12 50.3614 179.73 49.1103 178.814C47.073 177.317 45.8355 175.204 44.5981 173.085C43.7298 171.595 43.012 170.009 41.8976 168.675C41.5831 168.299 41.2413 167.664 40.7559 167.848C40.2226 168.046 40.4688 168.751 40.544 169.209C40.9337 171.492 42.0412 173.454 43.3812 175.293C43.9691 176.107 44.6049 176.886 45.2134 177.686C45.6441 178.247 45.9381 178.862 45.9518 179.587C45.9654 180.482 45.5142 181.104 44.6323 181.282C43.0735 181.604 41.7609 181.269 40.6944 179.963C31.3282 168.443 25.3393 155.385 22.796 140.755C22.2764 137.753 21.9141 134.731 21.7637 131.682C21.7432 131.279 21.6543 130.882 21.5996 130.486V122.569H21.6133ZM80.723 60.1436C79.465 62.4134 77.749 64.2524 76.0193 66.071C72.5532 69.7149 69.1622 73.4204 65.9695 77.3036C65.8532 77.4472 65.7234 77.5907 65.5729 77.7001C65.32 77.8847 65.0465 77.9189 64.8004 77.6865C64.5885 77.495 64.5474 77.2421 64.6705 77.0028C64.7867 76.784 64.9303 76.5721 65.0944 76.3807C67.371 73.6939 69.6134 70.9865 72.0472 68.4433C74.194 66.1941 76.3612 63.9653 78.3028 61.5315C78.9523 60.7179 79.4924 59.836 79.841 58.8447C80.0803 58.1678 79.7316 57.6346 79.2599 57.2791C78.8155 56.9441 78.4532 57.4431 78.1387 57.7029C77.6601 58.1063 77.2089 58.5507 76.7987 59.0224C73.3462 62.9808 69.2442 66.3103 65.8327 70.3029C65.5593 70.6242 65.2038 70.9182 64.7936 70.5353C64.397 70.1661 64.6295 69.7765 64.9166 69.4551C65.6687 68.6142 66.407 67.7528 67.2069 66.9529C69.2921 64.8609 71.3909 62.7826 73.4966 60.7179C74.9733 59.2685 76.1698 57.5389 77.8721 56.3151C78.2754 56.0211 78.0225 55.8639 77.8037 55.6793C77.12 55.1187 76.368 54.6743 75.6023 54.2367C75.0349 53.9154 74.652 53.9223 74.1461 54.435C70.2902 58.3524 65.9216 61.7297 62.0521 65.6403C61.8333 65.8591 61.5803 66.0573 61.3206 66.2282C61.0061 66.4402 60.6642 66.488 60.3976 66.153C60.1583 65.8454 60.2951 65.5582 60.5275 65.3121C60.6574 65.1754 60.8146 65.066 60.9514 64.9361C64.6568 61.2238 68.7725 57.9491 72.5258 54.2778C72.7583 54.0453 73.0933 53.8744 73.1821 53.4369C72.4506 53.2249 71.7123 53.1429 70.9671 53.1566C68.0888 53.2249 65.3952 53.9086 62.9135 55.4332C51.175 62.6253 41.6583 72.0394 34.6303 83.8736C24.1839 101.478 20.7245 120.436 24.054 140.597C26.3237 154.339 31.8956 166.665 40.4551 177.638C41.1524 178.534 42.0549 179.3 43.0325 179.915C43.4906 180.202 44.14 180.318 44.5297 179.901C44.9331 179.471 44.5502 178.958 44.2768 178.541C44.0717 178.226 43.8324 177.932 43.5931 177.638C42.0139 175.71 40.6534 173.646 39.7646 171.294C39.3681 170.248 39.1493 169.181 39.245 168.067C39.3817 166.529 40.585 165.989 41.8566 166.877C42.5129 167.335 42.9847 167.964 43.4427 168.607C44.2699 169.762 44.8921 171.027 45.5894 172.258C46.4235 173.735 47.2712 175.211 48.4198 176.476C49.3769 177.536 50.4503 178.486 51.927 178.712C52.597 178.814 53.4652 179.204 53.9301 178.472C54.395 177.748 53.8549 177.03 53.4447 176.394C52.385 174.753 51.1408 173.256 49.9239 171.738C48.5702 170.056 47.5926 168.17 46.9704 166.098C46.697 165.175 46.5807 164.252 46.8884 163.315C47.3464 161.921 48.5975 161.586 49.6777 162.577C50.3887 163.227 50.8126 164.074 51.298 164.881C52.932 167.568 54.9351 169.92 57.4715 171.793C58.8047 172.777 60.2198 173.564 61.9085 173.721C62.7699 173.803 63.9048 174.138 64.3082 173.235C64.7184 172.333 64.0962 171.355 63.4194 170.61C63.1049 170.262 62.7357 169.968 62.3734 169.66C62.1136 169.434 61.8196 169.25 61.553 169.031C59.2627 167.185 57.157 165.182 55.776 162.529C55.2359 161.49 54.7574 160.437 54.7574 159.234C54.7574 158.393 55.0035 157.648 55.8717 157.34C56.7263 157.039 57.3348 157.539 57.8133 158.154C58.162 158.591 58.4286 159.097 58.6953 159.596C60.1857 162.379 62.2572 164.594 64.985 166.194C66.284 166.959 67.665 167.424 69.1827 167.404C70.8645 167.383 71.5892 166.447 71.179 164.82C71.0149 164.156 70.6799 163.596 70.1056 163.206C69.4015 162.734 68.7041 162.249 67.9726 161.818C63.7749 159.343 61.3411 155.57 60.09 150.989C59.6524 149.382 60.0353 147.769 61.1633 146.49C62.1888 145.328 63.4399 146.073 64.6021 146.326C64.7526 146.361 64.903 146.415 65.0534 146.456C67.7265 147.119 70.4338 147.448 73.1753 147.133C75.2331 146.894 76.662 145.486 77.0517 143.448C77.4687 141.26 75.91 139.544 73.6949 139.818C69.7296 140.31 66.448 138.765 63.9253 135.976C60.2335 131.894 58.0116 127.027 57.7245 121.434C57.369 114.474 57.9638 107.617 60.1788 100.972C62.599 93.7047 66.5369 87.2783 71.2474 81.2825C74.0982 77.6523 76.956 74.022 79.3761 70.0773C80.3333 68.5253 81.0648 66.8777 81.3519 64.9771C81.181 65.066 81.0785 65.0933 81.0238 65.1549C74.6383 71.9573 68.2119 78.7256 63.1733 86.6493C60.7941 90.389 58.8457 94.2927 57.7792 98.6134C57.6698 99.0578 57.7108 99.6868 57.034 99.5911C56.3366 99.4885 56.4665 98.8801 56.5349 98.381C56.5759 98.1007 56.6648 97.8341 56.74 97.5606C57.5604 94.5456 58.75 91.6742 60.3019 88.9669C63.3579 83.6343 67.0086 78.7325 71.1106 74.1519C73.941 70.9934 76.6688 67.746 79.677 64.7447C80.9349 63.4867 81.9125 62.1331 80.7024 60.1505L80.723 60.1436Z" fill="#203170"/>
<path d="M109.834 42.2659C111.639 42.4436 113.451 42.6077 115.256 42.806C127.582 44.1528 139.041 48.0702 149.624 54.5103C160.138 60.9094 168.828 69.2365 175.74 79.4094C176.875 81.0775 176.704 81.9595 174.858 82.8004C169.963 85.036 164.938 85.6854 159.769 83.737C158.546 83.2789 157.445 82.6226 156.549 81.6655C152.789 77.6797 148.619 74.1588 144.23 70.8841C142.315 69.4552 140.401 68.0332 138.104 67.2538C134.221 65.9344 131.035 66.9804 128.362 69.9885C126.646 71.9164 125.463 74.0768 125.08 76.6474C124.841 78.2608 123.966 79.3479 122.386 79.8264C120.5 80.4007 118.954 79.7649 118.237 77.9395C117.368 75.7449 117.238 73.4615 118.127 71.2259C118.565 70.1252 119.18 69.086 119.734 68.0264C120.021 67.4658 120.322 66.912 120.431 66.283C120.547 65.5994 120.308 65.1276 119.638 64.8747C118.948 64.6149 118.237 64.5533 117.512 64.5192C113.677 64.3482 110.286 65.5173 107.264 67.876C105.65 69.1339 104.133 70.4944 102.642 71.8959C101.699 72.7847 100.687 73.5777 99.3675 73.8444C97.3165 74.2682 95.9287 73.2974 95.5937 71.2328C95.2928 69.3595 96.0791 67.8623 97.2003 66.4813C98.7385 64.5875 100.755 63.3159 102.882 62.2015C104.105 61.5589 105.356 60.9778 106.594 60.3556C106.984 60.1574 107.489 59.966 107.332 59.419C107.182 58.8926 106.649 58.9268 106.218 58.961C105.849 58.9883 105.459 59.0567 105.124 59.2003C102.717 60.2052 100.338 61.2581 98.4104 63.104C97.0772 64.3756 95.4911 65.1686 93.5974 65.196C91.7036 65.2233 90.6166 64.0474 90.7465 62.1468C90.8285 60.9299 91.4028 59.9318 92.1958 59.0498C94.5955 56.3836 97.6105 54.8248 101.097 54.1069C101.74 53.9702 102.396 53.8677 103.025 53.6899C103.435 53.5737 103.77 53.2455 103.729 52.7943C103.688 52.3636 103.237 52.3499 102.916 52.3021C101.145 52.0354 99.4085 52.2064 97.6993 52.7123C96.6465 53.0268 95.6005 53.3549 94.5408 53.6421C93.8093 53.8403 93.0641 53.936 92.3052 53.7993C90.5072 53.4711 89.7005 51.5569 90.7328 50.046C91.184 49.3897 91.7788 48.8837 92.4625 48.4735C95.0809 46.9216 97.9591 46.5866 100.919 46.7234C102.362 46.7917 103.798 46.9968 105.233 47.1336C105.855 47.1883 106.484 47.243 107.113 47.2361C107.469 47.2361 107.995 47.2498 108.036 46.7986C108.071 46.4157 107.551 46.3747 107.243 46.2858C105.336 45.7731 103.394 45.7252 101.446 45.9577C100.359 46.0876 99.2786 46.32 98.1916 46.4841C97.4122 46.6003 96.626 46.6345 95.8534 46.402C95.0399 46.1559 94.4998 45.6363 94.3084 44.7818C94.1101 43.8862 94.4588 43.3392 95.327 43.0794C96.9336 42.5872 98.6018 42.5872 100.256 42.4436C100.817 42.3958 101.391 42.471 101.931 42.2522H109.848L109.834 42.2659ZM170.045 83.0943C169.607 82.5406 169.293 82.0688 168.91 81.6655C162.442 74.8425 155.558 68.5391 147.019 64.3346C146.629 64.1431 146.233 63.9244 146.465 63.4185C146.684 62.9399 147.135 63.0151 147.525 63.1929C148.236 63.5142 148.954 63.8492 149.637 64.2252C154.99 67.1649 159.694 70.9798 164.152 75.1091C166.476 77.2627 168.855 79.382 170.735 81.9663C171.214 82.6295 171.583 82.8345 172.376 82.4996C173.552 82.0073 173.579 82.0688 172.67 81.1049C169.436 77.6866 166.278 74.1794 162.47 71.3558C162.347 71.2601 162.224 71.1507 162.128 71.0345C161.909 70.7679 161.834 70.4671 162.094 70.1867C162.319 69.9406 162.6 69.9475 162.866 70.1047C163.058 70.2141 163.222 70.3577 163.4 70.4876C167.358 73.4273 170.599 77.1123 173.983 80.6537C174.256 80.934 174.441 81.7065 175.036 81.2143C175.617 80.7357 174.899 80.3802 174.687 80.0725C164.979 65.8933 152.181 55.5426 136.183 49.2119C123.446 44.1733 110.231 42.5804 96.626 44.0024C96.2363 44.0434 95.5868 43.9203 95.58 44.5151C95.5732 45.1304 96.1816 45.2672 96.6944 45.2945C97.1934 45.3219 97.6993 45.2877 98.1916 45.2193C99.0325 45.1031 99.8597 44.9185 100.701 44.7954C103.121 44.4331 105.527 44.4604 107.879 45.1851C108.693 45.4381 109.417 45.8346 109.404 46.8533C109.39 47.66 108.645 48.3095 107.592 48.4872C106.71 48.6308 105.835 48.5009 104.967 48.3915C102.717 48.1112 100.475 47.8583 98.2053 48.0497C96.4004 48.2001 94.6844 48.6445 93.1051 49.5811C92.6676 49.8409 92.2847 50.1554 91.9497 50.5382C91.5532 50.9826 91.4643 51.4748 91.6899 52.0218C91.9155 52.555 92.4146 52.596 92.8795 52.6029C94.3289 52.6234 95.6347 52.0218 96.9815 51.6184C99.0598 51.0031 101.159 50.716 103.305 51.1125C104.146 51.2697 104.885 51.6047 105.028 52.5892C105.151 53.4028 104.563 54.3873 103.716 54.7974C103.114 55.0846 102.458 55.1871 101.808 55.2829C99.2649 55.6657 97.002 56.7049 94.9442 58.2089C93.8982 58.9746 92.9615 59.8771 92.3668 61.0393C91.9702 61.8119 91.7446 62.6938 92.3121 63.4526C92.8658 64.1842 93.7273 63.9996 94.4998 63.8423C95.7988 63.5757 96.8379 62.8373 97.8224 61.9691C100.167 59.8976 102.875 58.4687 105.917 57.7372C107.202 57.4296 108.248 58.038 108.57 58.9883C108.891 59.9318 108.378 60.9163 107.202 61.5931C107.066 61.6683 106.929 61.7572 106.778 61.7982C105.507 62.1947 104.358 62.851 103.203 63.4732C101.254 64.5123 99.4085 65.7019 98.0275 67.4863C97.2276 68.5254 96.6123 69.6398 96.8448 71.0413C97.0635 72.3676 97.7677 72.8736 99.094 72.6274C100.167 72.4292 100.96 71.7592 101.719 71.0482C103.278 69.5851 104.864 68.1631 106.56 66.8505C110.19 64.0338 114.271 62.8305 118.825 63.398C121.518 63.733 122.38 65.3396 121.258 67.8076C120.753 68.922 120.137 69.9885 119.577 71.0687C118.551 73.0376 118.674 75.075 119.262 77.1191C119.495 77.9327 119.98 78.6505 120.896 78.7531C121.84 78.8556 122.694 78.5411 123.33 77.7754C123.665 77.3721 123.767 76.8798 123.843 76.3808C124.287 73.5572 125.62 71.2054 127.493 69.0724C130.42 65.7429 133.94 64.6969 138.186 65.9685C140.428 66.6385 142.363 67.8691 144.168 69.2775C148.12 72.3745 152.269 75.2459 155.633 79.0334C156.296 79.7854 157.055 80.4622 157.807 81.1186C159.817 82.8824 162.319 83.2447 164.965 83.6618C164.835 83.4088 164.815 83.3131 164.753 83.2516C162.798 81.0707 160.706 79.0402 158.381 77.2558C156.741 75.9911 155.086 74.74 153.445 73.4683C153.11 73.2085 152.796 72.8599 153.11 72.4292C153.432 71.9985 153.828 72.1967 154.184 72.4565C155.394 73.359 156.618 74.2409 157.8 75.1707C160.959 77.6524 164.042 80.2093 166.49 83.443C166.62 83.6139 166.832 83.5866 167.016 83.5661C167.98 83.4704 168.958 83.4157 170.038 83.0875L170.045 83.0943Z" fill="#203170"/>
<path d="M138.314 140.748C138.293 141.137 138.054 141.329 137.699 141.308C137.459 141.295 137.193 141.22 136.994 141.09C135.36 140.037 133.733 138.97 132.12 137.883C131.737 137.63 131.416 137.234 131.737 136.769C132.099 136.242 132.482 136.612 132.858 136.858C134.451 137.917 136.051 138.963 137.651 140.009C137.938 140.201 138.28 140.324 138.314 140.741V140.748Z" fill="#203170"/>
<path d="M114.572 77.4541C114.387 79.0607 114.093 80.6879 113.744 82.3082C113.656 82.7252 113.457 83.1285 112.931 82.9918C112.404 82.8619 112.452 82.4107 112.521 81.9937C112.78 80.4212 113.047 78.8556 113.314 77.2832C113.382 76.873 113.45 76.4081 113.984 76.4286C114.585 76.456 114.585 76.9551 114.572 77.4473V77.4541Z" fill="#203170"/>
<path d="M80.8195 93.6704C80.7511 94.1558 80.4093 94.3267 79.9581 94.1763C79.4863 94.019 79.042 93.7797 78.6044 93.5473C77.4764 92.9388 76.3552 92.3235 75.2408 91.6946C74.8921 91.4963 74.6255 91.2023 74.8579 90.7716C75.063 90.3888 75.4459 90.4161 75.7604 90.5802C77.3328 91.4074 78.8984 92.2552 80.464 93.1029C80.6623 93.2123 80.7921 93.3832 80.8127 93.6704H80.8195Z" fill="#203170"/>
<path d="M119.909 148.384C119.937 147.988 120.005 147.68 120.401 147.626C120.832 147.564 121.037 147.858 121.133 148.207C121.482 149.478 121.803 150.757 122.138 152.028C122.234 152.391 122.329 152.76 122.411 153.122C122.5 153.505 122.548 153.915 122.063 154.059C121.543 154.209 121.304 153.847 121.188 153.43C120.969 152.61 120.791 151.782 120.586 150.962C120.36 150.08 120.121 149.205 119.902 148.384H119.909Z" fill="#203170"/>
<path d="M96.5018 151.844C97.0898 150.326 97.6845 148.781 98.293 147.243C98.4229 146.908 98.7237 146.764 99.0587 146.928C99.4279 147.106 99.4894 147.461 99.3664 147.817C99.0861 148.644 98.7716 149.458 98.4571 150.278C98.1973 150.948 97.9375 151.618 97.6435 152.268C97.5068 152.575 97.247 152.767 96.8846 152.644C96.5291 152.521 96.4745 152.213 96.495 151.851L96.5018 151.844Z" fill="#203170"/>
<path d="M100.823 86.8954C100.836 87.2919 100.734 87.5107 100.467 87.6064C100.112 87.7295 99.8518 87.5449 99.6741 87.2714C99.1613 86.492 98.6623 85.699 98.1632 84.9059C97.876 84.4615 97.5957 84.0103 97.3154 83.5591C97.1035 83.2173 96.9873 82.8344 97.3838 82.5678C97.7803 82.2943 98.1153 82.5404 98.3409 82.8618C98.7169 83.395 99.0519 83.9625 99.4006 84.5162C99.7835 85.1247 100.173 85.7263 100.542 86.3416C100.672 86.5536 100.761 86.7792 100.823 86.9022V86.8954Z" fill="#203170"/>
<path d="M146.983 67.9035C147.113 67.9582 147.325 68.0197 147.502 68.1359C148.487 68.7444 149.458 69.3597 150.435 69.975C150.832 70.2279 151.187 70.5493 150.859 71.0347C150.558 71.4859 150.134 71.2603 149.786 71.0483C148.753 70.4125 147.721 69.763 146.696 69.1067C146.388 68.9153 146.149 68.6623 146.299 68.259C146.395 67.9992 146.62 67.8898 146.976 67.9035H146.983Z" fill="#203170"/>
<path d="M101.131 98.4348C92.368 103.544 85.1502 107.795 85.0938 107.897C85.0374 107.998 85.0036 113.231 85.0149 119.885L85.0487 131.716L93.4958 136.588C98.1648 139.283 102.067 141.471 102.214 141.471C102.371 141.471 106.116 139.362 110.627 136.746C128.683 126.269 134.344 122.964 134.48 122.784C134.581 122.637 134.615 120.111 134.592 110.75L134.559 98.9085L130.724 96.6755C126.709 94.3523 126.303 94.1718 126.044 94.6793C125.751 95.2094 125.908 95.3334 129.359 97.3183C131.198 98.3785 132.698 99.2694 132.698 99.3032C132.698 99.3371 130.544 100.623 127.905 102.157L123.123 104.942L122.762 104.762C122.57 104.66 122.266 104.48 122.085 104.378L121.758 104.175L125.581 101.954C127.995 100.544 129.427 99.6529 129.461 99.5175C129.495 99.4047 129.461 99.2017 129.382 99.0551C129.247 98.7957 117.721 92.0741 117.405 92.0741C117.315 92.0741 115.499 93.0779 113.379 94.3071C111.258 95.5477 109.409 96.6078 109.274 96.6868C109.059 96.7996 108.924 96.7657 108.394 96.4612C107.999 96.2469 107.796 96.0665 107.864 95.9988C107.92 95.9424 110.086 94.668 112.679 93.1568L117.394 90.4163L118.826 91.2396C119.615 91.702 120.36 92.0741 120.484 92.0741C120.608 92.0741 120.8 91.9726 120.912 91.8486C121.33 91.3975 121.059 91.1042 119.277 90.0779C118.364 89.5479 117.518 89.1419 117.36 89.1532C117.202 89.1532 110.345 93.0779 101.131 98.4348ZM122.457 96.3146C125.198 97.8935 127.487 99.2243 127.532 99.2694C127.566 99.3145 126.01 100.273 124.059 101.412L120.518 103.465L115.397 100.51L110.277 97.5439L110.796 97.2394C111.089 97.0702 112.668 96.1454 114.315 95.1868C115.961 94.2282 117.337 93.4388 117.382 93.4388C117.416 93.4275 119.706 94.7244 122.457 96.3146ZM114.484 101.401L122.435 106.002V117.224V128.445L118.194 130.915C115.871 132.268 113.931 133.34 113.897 133.317C113.864 133.283 113.819 128.299 113.773 122.231C113.717 112.239 113.694 111.19 113.537 111.032C113.435 110.931 109.837 108.822 105.529 106.352C98.2551 102.157 97.7363 101.829 97.9844 101.705C98.131 101.626 100.071 100.499 102.304 99.1905C104.537 97.8822 106.398 96.8108 106.454 96.8108C106.499 96.8108 110.108 98.8747 114.484 101.401ZM133.374 102.608V104.784L128.593 107.57C125.965 109.092 123.788 110.344 123.743 110.344C123.698 110.344 123.687 109.374 123.698 108.179L123.732 106.014L128.525 103.217C131.164 101.683 133.329 100.42 133.352 100.42C133.363 100.42 133.374 101.401 133.374 102.608ZM97.116 102.912C97.4543 103.104 97.7363 103.296 97.7363 103.329C97.7363 103.375 96.0784 104.367 94.0484 105.551C92.0184 106.724 90.3155 107.773 90.2591 107.874C89.9433 108.382 90.0561 108.461 96.2138 112.025C99.9242 114.156 102.225 115.419 102.349 115.385C102.462 115.363 104.356 114.292 106.556 113.006L110.571 110.683L111.202 111.044C111.552 111.247 111.834 111.438 111.834 111.472C111.822 111.54 102.518 116.931 102.315 116.976C102.202 116.998 87.2479 108.45 86.9998 108.213C86.9434 108.156 96.1799 102.653 96.4732 102.574C96.4844 102.563 96.7777 102.72 97.116 102.912ZM104.368 107.108C108.281 109.363 109.228 109.95 109.104 110.062C109.025 110.141 107.447 111.066 105.608 112.137L102.27 114.077L97.1273 111.122L91.9959 108.156L92.9206 107.615C93.4281 107.322 95.0183 106.408 96.4393 105.574C98.616 104.299 99.0671 104.074 99.2588 104.175C99.3829 104.232 101.684 105.551 104.368 107.108ZM133.352 108.45L133.318 110.615L128.976 113.13C126.585 114.517 124.42 115.78 124.16 115.938L123.675 116.22V114.032V111.844L128.446 109.07C131.062 107.547 133.239 106.296 133.295 106.284C133.341 106.284 133.363 107.254 133.352 108.45ZM96.3604 115.07L101.684 118.149V120.348V122.536L101.266 122.299C101.029 122.163 97.5671 120.167 93.5635 117.867L86.2893 113.66L86.2554 111.45L86.2329 109.228L88.6238 110.615C89.9433 111.371 93.4281 113.378 96.3604 115.07ZM133.374 114.156V116.288L128.581 119.062C125.942 120.596 123.766 121.848 123.732 121.848C123.698 121.848 123.675 120.9 123.675 119.727L123.687 117.619L128.502 114.833C131.153 113.299 133.329 112.036 133.352 112.036C133.363 112.036 133.374 112.995 133.374 114.156ZM112.488 114.765L112.454 116.942L108.056 119.502C105.642 120.912 103.465 122.163 103.24 122.299L102.811 122.536V120.348V118.16L107.582 115.385C110.198 113.863 112.375 112.611 112.431 112.611C112.476 112.6 112.499 113.581 112.488 114.765ZM94.3529 119.739L101.627 123.934L101.661 126.156L101.684 128.366L93.9582 123.9L86.2329 119.434V117.246V115.07L86.6614 115.307C86.887 115.431 90.3493 117.427 94.3529 119.739ZM133.352 119.953L133.318 122.13L128.807 124.757C126.326 126.201 124.16 127.453 123.991 127.554L123.675 127.723V125.524V123.336L128.446 120.562C131.062 119.04 133.239 117.799 133.295 117.788C133.341 117.788 133.363 118.769 133.352 119.953ZM112.499 122.682C112.319 122.84 102.969 128.276 102.868 128.276C102.834 128.276 102.823 127.295 102.834 126.111L102.868 123.934L107.661 121.148L112.454 118.363L112.555 120.461C112.634 122.175 112.623 122.569 112.499 122.682ZM94.0371 125.366L101.706 129.799L101.661 131.795C101.65 132.889 101.593 133.814 101.548 133.859C101.503 133.904 98.0521 131.964 93.8793 129.55L86.2893 125.163L86.2554 123.054C86.2441 121.893 86.2667 120.945 86.3005 120.945C86.3456 120.945 89.8305 122.942 94.0371 125.366ZM112.623 126.224V128.344L108.089 130.983C105.586 132.438 103.375 133.712 103.183 133.836L102.811 134.05V131.908V129.765L107.695 126.934C110.368 125.378 112.578 124.103 112.601 124.103C112.612 124.103 112.623 125.062 112.623 126.224ZM94.274 131.208L101.571 135.426V137.603C101.571 138.798 101.548 139.78 101.526 139.78C101.503 139.78 98.0746 137.806 93.8905 135.392L86.2893 131.005L86.2554 128.784L86.2329 126.562L86.5938 126.776C86.7968 126.889 90.2478 128.885 94.274 131.208ZM112.601 132.02L112.567 134.186L107.774 136.971C105.135 138.516 102.947 139.768 102.89 139.768C102.845 139.78 102.823 138.798 102.834 137.614L102.868 135.438L107.661 132.652C110.3 131.118 112.488 129.855 112.544 129.855C112.589 129.855 112.612 130.825 112.601 132.02Z" fill="#203170"/>
<path d="M117.055 96.6869C115.589 97.1831 114.98 98.2883 115.544 99.3936C116.48 101.209 120.833 101.209 121.769 99.3936C122.051 98.8297 122.04 98.3109 121.724 97.8034C121.397 97.2621 120.991 96.9575 120.235 96.6869C119.423 96.4049 117.878 96.4049 117.055 96.6869ZM120.055 97.9726C120.969 98.4237 120.969 98.8071 120.032 99.2808C119.333 99.6304 118.081 99.653 117.348 99.3259C116.491 98.9425 116.356 98.559 116.931 98.1304C117.687 97.5666 119.108 97.4989 120.055 97.9726Z" fill="#203170"/>
<path d="M99.2584 107.017C97.4201 107.773 97.1494 109.465 98.717 110.457C100.307 111.472 103.239 111.077 104.051 109.758C104.536 108.957 104.243 107.908 103.386 107.333C102.405 106.679 100.454 106.521 99.2584 107.017ZM102.439 108.213C103.285 108.619 103.318 109.115 102.529 109.487C101.39 110.029 99.3486 109.803 98.9651 109.093C98.4689 108.168 101.018 107.525 102.439 108.213Z" fill="#203170"/>
<path d="M122.074 92.0855C121.939 92.1531 121.871 92.3336 121.871 92.5817C121.871 93.0215 121.961 93.0892 123.597 93.9914C124.352 94.3974 124.521 94.4538 124.747 94.3523C125.063 94.2057 125.198 93.8561 125.04 93.5629C124.916 93.326 122.909 92.108 122.503 92.0178C122.367 91.984 122.176 92.0178 122.074 92.0855Z" fill="#203170"/>
</g>
</svg>
