<svg width="216" height="182" viewBox="0 0 216 182" fill="none" xmlns="http://www.w3.org/2000/svg">
<circle cx="120.893" cy="97.8163" r="84.1837" fill="#DDD6CB"/>
<path d="M109.299 73.4999L111.299 80.9999C106.899 77.7998 104.466 78.6666 103.799 79.5C102.966 78.5 101.199 76.1 100.799 74.5C100.299 72.5 100.299 71.5 102.299 66C103.899 61.6 106.633 57.8333 107.799 56.5C108.966 55.5 113.099 53.1999 120.299 51.9999C127.499 50.7999 131.966 52.8332 133.299 53.9999C133.633 54.3332 134.599 55.3999 135.799 56.9999C136.999 58.5999 140.633 65.3332 142.299 68.4999C142.799 69.1666 143.799 71.7999 143.799 76.9999C143.799 82.1999 144.799 84.4999 145.299 84.9999C147.133 86.9999 151.099 91.2999 152.299 92.4999C153.499 93.6999 155.133 96.9999 155.799 98.4999L157.299 103.5L164.299 113.5L160.299 112L151.799 110.5H147.799V109.5L140.799 106L141.799 103L141.299 102.5L138.799 103.5L137.799 97.4999C138.299 96.9999 139.499 95.8999 140.299 95.4999C141.099 95.0999 141.299 88.9999 141.299 85.9999C140.799 83.1666 139.599 76.7999 138.799 73.9999C137.999 71.1999 136.133 66.1666 135.299 63.9999L134.299 61.9999L126.299 64.9999L124.299 61.4999C124.133 62.8332 123.799 65.6999 123.799 66.4999C123.799 67.2999 114.799 68.4999 110.299 68.9999L109.299 73.4999Z" fill="#DDD6CB"/>
<path d="M115.299 105.5C114.099 107.9 108.465 111.833 105.799 113.5L104.299 108.5C104.299 106.833 104.499 103 105.299 101C106.299 98.5 106.799 97.5 108.299 96C109.499 94.8 109.132 92.1667 108.799 91C109.299 91 110.699 91.3 112.299 92.5C113.899 93.7 115.632 99 116.299 101.5C116.465 101.833 116.499 103.1 115.299 105.5Z" fill="#DDD6CB"/>
<path d="M104.057 128.684C101.742 120.58 104.057 115.338 105.505 113.73C103.575 107.942 104.701 102.635 105.505 100.706L108.881 94.9171V91.5404L105.022 87.6813C103.896 86.0733 102.031 82.1821 103.574 79.4807C100.68 78.0336 100.68 73.2097 100.68 72.2449C100.68 71.2802 100.68 68.3859 103.092 63.562C105.022 59.7029 107.112 57.1302 107.916 56.3262C108.72 55.3614 112.257 53.1425 119.976 51.9847C127.694 50.827 132.518 53.1103 133.965 54.3967C134.286 55.0398 135.412 56.8086 137.341 58.7381C139.271 60.6677 142.004 68.2251 143.13 71.7626C143.291 72.5665 143.612 74.6569 143.612 76.5864C143.612 78.516 144.256 82.5359 144.577 84.3046C145.22 85.2694 147.375 88.0672 150.848 91.5404C154.321 93.4699 156.476 100.384 157.119 103.6C160.335 108.585 167.071 117.315 166.299 115C165.334 112.106 161.943 107.459 161.943 106.012C161.943 104.565 162.426 101.671 163.39 98.7762C164.355 95.8819 163.39 97.329 160.014 94.4347C157.312 92.1193 158.566 85.1086 159.531 81.8927L144.577 30.2773L79.4551 47.6432L83.7966 60.6677L90.55 81.4103C91.6755 81.8927 94.4091 83.3398 96.3386 85.2694C98.2681 87.1989 98.7505 94.4347 98.7505 97.8114L97.7858 119.519C98.2681 120.323 100.198 123.281 104.057 128.684Z" fill="#FFBB56"/>
<path d="M5.0855 127.13C14.8657 142.456 37.2826 168.38 48.7086 149.461C62.991 125.812 35.9832 124.261 45.4627 135.024C54.9422 145.787 74.1735 143.075 77.535 121.608C80.2241 104.434 86.7947 87.8542 89.7439 81.7111C90.9515 81.0366 94.091 81.0303 96.9875 86.4007C99.8841 91.7711 98.6506 110.693 97.6718 119.482C102.785 124.42 112.37 139.174 109.808 158.692" stroke="#203170" stroke-width="1.3" stroke-linecap="round"/>
<path d="M84.6825 87.9427L73.1336 47.827C72.7435 45.5185 73.1249 40.0602 77.7709 36.6946C82.417 33.3291 121.651 24.7551 140.687 20.8889C142.8 20.8006 147.473 22.7124 149.261 31.0657C151.049 39.419 158.166 65.8715 161.501 78.0535" stroke="#203170" stroke-width="1.3" stroke-linecap="round"/>
<path d="M155.189 52.9494C158.333 47.9605 164.844 38.4309 168.381 38.0483C172.803 37.5699 178.023 38.6367 173.919 49.343C170.635 57.9081 163.597 69.388 160.488 74.0573" stroke="#203170" stroke-width="1.3" stroke-linecap="round"/>
<path d="M165.767 65.9087C168.377 67.1701 173.554 70.9501 173.382 75.9788C173.167 82.2647 171.407 93.7174 166.771 96.1134C162.136 98.5094 156.438 93.0211 158.837 84.5517C160.543 79.6939 161.248 78.4955 161.461 78.0339" stroke="#203170" stroke-width="1.3" stroke-linecap="round"/>
<path d="M172.367 85.0875C174.373 85.9581 177.884 89.5849 175.88 97.1276C173.374 106.556 170.336 112.042 165.595 111.029C160.854 110.015 161.229 102.291 163.734 97.2311" stroke="#203170" stroke-width="1.3" stroke-linecap="round"/>
<path d="M175.612 99.5249C177.28 104.888 179.092 116.221 172.997 118.648C166.902 121.076 166.445 115.007 166.979 111.668" stroke="#203170" stroke-width="1.3" stroke-linecap="round"/>
<path d="M170.495 119.341L177.041 143.367C177.627 145.374 177.871 149.866 174.162 151.783C170.454 153.7 136.994 164.47 120.727 169.616C117.904 170.272 111.757 169.102 109.756 159.172" stroke="#203170" stroke-width="1.3" stroke-linecap="round"/>
<path d="M79.0997 46.5496L144.201 28.5604L157.347 76.1344" stroke="#203170" stroke-width="1.3" stroke-linecap="round"/>
<path d="M79.1006 46.5498L89.1074 78.7278" stroke="#203170" stroke-width="1.3" stroke-linecap="round"/>
<path d="M164.766 111.01L173.122 140.577" stroke="#203170" stroke-width="1.3" stroke-linecap="round"/>
<path d="M111.213 80.7041C108.195 78.7501 102.371 76.4189 103.222 82.7264C104.073 89.0338 109.364 91.4999 111.904 91.9445C114.176 94.7862 118.017 101.556 115.203 105.902" stroke="#203170" stroke-width="1.3" stroke-linecap="round"/>
<path d="M134.712 61.4793C135.672 58.674 135.865 52.8711 128.961 52.1023C120.332 51.1413 108.505 52.7364 104.721 60.5663C100.937 68.3961 98.3786 73.9356 103.598 79.3705" stroke="#203170" stroke-width="1.3" stroke-linecap="round"/>
<path d="M106.417 88.9068C108.228 90.0792 110.965 93.3933 107.427 97.2706C103.004 102.117 104.121 109.522 105.612 113.571" stroke="#203170" stroke-width="1.3" stroke-linecap="round"/>
<path d="M134.658 61.9589C138.811 71.158 145.39 91.1113 138.484 97.3316C131.579 103.552 123.959 99.9205 121.012 97.3272" stroke="#203170" stroke-width="1.3" stroke-linecap="round"/>
<path d="M111.265 80.2247C110.235 77.845 108.561 72.2547 110.096 68.931C112.355 69.5709 120.271 67.6374 123.947 66.5906L124.588 60.8376L126.558 64.9399L134.176 61.9054" stroke="#203170" stroke-width="1.3" stroke-linecap="round" stroke-linejoin="round"/>
<path d="M135.299 56.2058C138.157 59.5981 143.83 68.5135 143.657 77.0367C143.441 87.6908 150.526 89.4505 153.455 93.6596C155.798 97.0269 156.951 101.491 157.235 103.303" stroke="#203170" stroke-width="1.3" stroke-linecap="round"/>
<path d="M140.391 154.312C140.5 153.342 148.602 151.271 152.64 150.357C157.073 151.505 154.633 154.397 152.859 155.7C151.742 155.985 148.497 156.851 144.456 158.037C139.941 158.353 140.256 155.524 140.391 154.312Z" stroke="#203170" stroke-width="1.3" stroke-linecap="round"/>
<path d="M123.715 155.873L164.417 143.417" stroke="#203170" stroke-width="1.3" stroke-linecap="round"/>
<path d="M118.047 153.768L135.895 148.462" stroke="#203170" stroke-width="1.3" stroke-linecap="round"/>
<path d="M88.1377 62.5974L92.9616 77.069" stroke="#203170" stroke-width="1.3" stroke-linecap="round"/>
<path d="M187.813 94.1759C197.034 91.4275 213.458 84.4516 205.383 78.5344C195.288 71.1379 196.675 91.4253 211.349 90.6519" stroke="#203170" stroke-width="1.3" stroke-linecap="round"/>
<path d="M188.475 101.188C191.369 99.2585 197.64 97.5219 199.569 106.012" stroke="#203170" stroke-width="1.3" stroke-linecap="round"/>
<path d="M113.912 74.238C113.696 73.0575 117.518 71.7162 119.455 71.1931C121.854 70.4134 123.257 72.5321 119.994 74.1443C116.73 75.7566 114.181 75.7136 113.912 74.238Z" stroke="#203170" stroke-width="1.3"/>
<path d="M135.515 68.087C135.242 66.9184 131.203 67.2106 129.217 67.5028C126.706 67.7435 126.263 70.2458 129.899 70.4243C133.535 70.6028 135.856 69.5478 135.515 68.087Z" stroke="#203170" stroke-width="1.3"/>
<path d="M119.799 76.5C121.799 75.7 122.965 76.8333 123.299 77.5C123.299 80 120.799 81 116.799 79.5C119.299 79 117.299 77.5 119.799 76.5Z" fill="#203170"/>
<path d="M131.826 73.4151C129.712 73.8318 129.35 75.4174 129.433 76.1581C130.793 78.2559 133.435 77.735 135.975 74.3004C133.605 75.2408 134.467 72.8942 131.826 73.4151Z" fill="#203170"/>
<path d="M122.799 111C126.632 111.5 135.099 111.7 138.299 108.5C142.299 104.5 143.299 101.5 139.799 103C136.299 104.5 140.299 106 146.299 108.5C152.299 111 142.799 119.5 130.299 119.5C120.299 119.5 115.132 115.833 113.799 114" stroke="#203170" stroke-width="1.3"/>
<path d="M148.299 111C152.132 110.333 161.899 110.4 166.299 116" stroke="#203170" stroke-width="1.3"/>
<path d="M7.93763 49.9895C10.656 37.4678 29.5674 29.9065 38.6832 27.6911C57.3212 20.8702 67.9845 34.2581 67.4995 42.1202C67.1115 48.4098 63.812 54.3562 62.2107 56.5431C63.5127 58.7883 66.1105 64.0493 66.0859 67.1321C66.0552 70.9856 59.9592 67.4531 52.4789 65.3878C24.2227 80.0512 4.53966 65.6416 7.93763 49.9895Z" fill="#DDD6CB"/>
<path d="M6.0597 50.677C8.77808 38.1553 27.6894 30.594 36.8053 28.3786C55.4433 21.5577 66.1065 34.9456 65.6215 42.8077C65.2335 49.0973 61.934 55.0437 60.3328 57.2306C61.6347 59.4758 64.2325 64.7368 64.208 67.8196C64.1773 71.6731 58.0813 68.1406 50.601 66.0753C22.3448 80.7387 2.66173 66.3291 6.0597 50.677Z" stroke="#203170" stroke-width="1.3"/>
<path d="M16.1726 53.6434C15.4428 51.6492 17.2986 48.5346 19.3352 50.4614C19.8394 50.9385 20.1084 52.1391 21.0378 51.5576C22.0761 50.9081 22.06 49.4579 22.6696 48.5341C23.3005 47.578 26.4284 46.9749 27.4584 47.0708C28.2555 47.1451 31.8853 47.5559 32.1325 46.3565C32.5083 44.5333 34.7129 44.2552 36.2608 43.6887C37.4731 43.2451 40.2911 45.2253 41.2895 43.7124C42.147 42.4128 42.3496 41.5219 43.9822 40.863C45.1811 40.3791 46.3638 40.7504 47.5617 40.4368C49.6227 39.8972 51.2772 39.061 53.1761 38.366" stroke="#203170" stroke-width="1.3" stroke-linecap="round"/>
<path d="M18.8602 60.9881C20.6777 60.323 22.5296 59.7156 24.3229 58.989C25.7246 58.421 26.4523 56.7666 27.8286 56.2069C29.7979 55.406 31.5008 55.7209 33.5388 55.5496C35.5218 55.383 37.5749 54.236 38.7542 52.8748C39.5511 51.9549 40.6023 50.6862 42.0545 50.7675C44.535 50.9064 46.6979 50.5007 49.0843 49.6273C50.8269 48.9896 51.7843 47.3355 53.4541 46.8288C53.664 46.7652 54.2891 47.233 54.6344 47.2964C55.2622 47.4116 55.747 47.189 56.327 46.9767" stroke="#203170" stroke-width="1.3" stroke-linecap="round"/>
</svg>
