<svg width="187" height="177" viewBox="0 0 187 177" fill="none" xmlns="http://www.w3.org/2000/svg">
<path d="M87.1301 91.2916C92.2541 91.5763 94.669 106.317 95.3726 115.06C95.4515 116.04 94.787 116.918 93.8275 117.131L92.0719 117.521L89.198 118.24C89.0867 118.268 88.9733 118.286 88.8589 118.294L73.9451 119.385C73.6168 119.409 73.2877 119.352 72.9869 119.218L70.5811 118.149C70.2178 117.988 69.9106 117.722 69.7017 117.384C66.2056 111.724 60.016 100.276 60.9005 95.8533C61.7155 91.7779 70.8845 93.4673 76.8058 95.2291C77.887 95.5509 79.0578 94.9416 79.774 94.0699C80.9961 92.5824 83.3104 91.0794 87.1301 91.2916Z" fill="#FFBB56"/>
<path d="M64.3213 19.8252C66.4501 11.006 76.6125 7.53403 81.4276 6.90046C84.0885 6.64703 91.0071 6.90046 97.3934 9.94158C103.78 12.9827 107.911 27.1746 109.178 33.8904L103.476 35.4109L100.815 16.4039C100.815 16.5307 100.358 18.0766 98.5338 23.2465C96.7092 28.4164 90.4242 32.4965 87.5098 33.8904L81.4276 35.0308L80.2871 39.9726L73.0645 31.2294L68.8829 30.8492C68.2494 31.2294 66.6021 32.7499 65.0816 35.7911C63.1809 39.5925 65.8418 42.6336 66.9823 45.6747C67.8946 48.1076 72.9378 49.9829 75.3453 50.6165C75.472 51.7569 75.5734 54.646 74.9652 57.0789C74.357 59.5118 70.6569 59.8666 68.8829 59.7398L66.9823 60.8803V63.1611L64.3213 63.5412L63.1809 67.7228C59.8863 68.2296 51.5486 69.6995 44.554 71.5242C45.3143 60.8803 49.876 58.2193 57.0986 54.798C54.8178 48.7158 57.8589 37.3116 59.3795 35.4109C60.9 33.5102 61.6603 30.8492 64.3213 19.8252Z" fill="#91A6DC"/>
<path d="M108.038 64.3017C110.471 59.1318 109.052 48.716 108.038 44.1543L103.856 46.055L101.575 53.2776L98.9142 58.5996L96.6333 59.74L93.2121 62.0209L88.6504 62.401L86.7497 67.7229L91.3114 69.2435V71.5243L94.7326 72.6648L96.6333 65.8222L100.815 73.8052L117.541 84.8292C116.527 80.6477 113.208 70.688 108.038 64.3017Z" fill="#91A6DC"/>
<path d="M8.82156 2.33889L148.713 1.57861C153.275 2.18684 154.415 5.63343 154.415 7.2807V22.4863L146.432 24.7671V13.3629H118.301L102.335 13.7431L101.575 12.6027C100.055 11.589 95.1128 9.02935 87.51 6.90057C79.9072 4.77178 71.4175 10.3218 68.1229 13.3629H10.3417L12.2424 134.247H43.4139H48.7358L48.3557 135.768L50.2564 136.908L53.6776 135.008L58.2393 135.388V134.247L71.164 132.727L79.9072 134.247L91.6916 131.206L95.1128 133.107L101.195 134.627L103.856 133.487L109.938 136.148L111.839 134.627L151.373 135.008L151.754 125.884L158.216 122.843C158.343 130.826 158.444 147.4 157.836 149.833C157.228 152.266 154.795 153.381 153.655 153.634H83.709C83.709 156.802 83.633 163.898 83.3289 166.939C82.9488 170.741 83.3289 168.08 84.4693 169.22C92.3762 169.22 102.716 173.528 106.898 175.682H56.339C57.8596 173.25 68.3767 170.361 73.4453 169.22V154.395H5.40031C4.64003 107.004 3.11948 11.3862 3.11948 8.04098C3.11948 4.69576 6.92087 2.84574 8.82156 2.33889Z" fill="#91A6DC"/>
<path d="M16.9707 19.0649L24.5735 26.6677" stroke="#203170" stroke-width="1.3" stroke-linecap="round" stroke-linejoin="round"/>
<path d="M24.5732 19.0649L16.9705 26.6677" stroke="#203170" stroke-width="1.3" stroke-linecap="round" stroke-linejoin="round"/>
<path d="M16.9707 33.1301H60.3066" stroke="#203170" stroke-width="1.3" stroke-linecap="round" stroke-linejoin="round"/>
<path d="M3.25971 149.85L1.1416 6.87717C1.1416 5.4651 2.34186 2.49975 7.14291 1.93492C11.944 1.37009 103.988 1.69957 149.409 1.93492C150.821 1.81723 153.787 2.64093 154.351 6.87717C154.916 11.1134 154.587 18.9975 154.351 22.763" stroke="#203170" stroke-width="1.3"/>
<path d="M41.3857 73.2445C41.7388 67.7139 44.9159 56.2997 54.8004 54.8876C51.6233 41.4729 62.2138 33.0005 62.2138 29.1173C62.2138 25.2341 65.391 8.2892 81.2768 6.87712C97.1626 5.46505 104.223 14.2905 106.341 19.9388C108.036 24.4574 108.695 31.4707 108.812 34.4126" stroke="#203170" stroke-width="1.3"/>
<path d="M102.812 35.8245L174.827 17.4676C177.298 17.1146 182.805 17.8912 185.065 23.8219C187.889 31.2353 184.006 39.3547 177.651 41.1198C171.297 42.8849 162.825 25.9401 172.709 20.2918" stroke="#203170" stroke-width="1.3" stroke-linecap="round" stroke-linejoin="round"/>
<path d="M181.535 18.8796L168.826 31.5883" stroke="#203170" stroke-width="1.3"/>
<path d="M183.652 20.6445L169.885 34.4122" stroke="#203170" stroke-width="1.3"/>
<path d="M167.061 22.4097C165.648 24.6454 163.813 30.6703 167.767 36.8834" stroke="#203170" stroke-width="1.3" stroke-linecap="round" stroke-linejoin="round"/>
<path d="M156.47 77.4805C161.412 79.2456 171.296 78.5396 175.179 76.7745C178.286 75.3624 178.592 79.9517 178.357 82.4228C178.121 83.9525 176.803 86.5178 173.414 84.5409C169.178 82.0698 160.353 82.7758 154.351 81.7168C148.35 80.6577 150.115 80.3047 150.468 79.5987C150.821 78.8926 150.468 77.8336 150.468 75.7155C150.468 74.021 152.586 75.0094 153.645 75.7155C154.234 72.8913 155.41 66.7488 155.41 64.7719C155.41 62.3008 152.939 59.4766 149.409 56.6525C145.879 53.8283 141.643 48.8861 143.408 45.0029C144.82 41.8963 147.997 34.2947 149.409 30.8821C150.115 29.9408 151.88 28.9052 153.292 32.2942C154.704 35.6832 152.704 40.5313 151.527 42.5318C153.057 42.7671 156.399 44.3675 157.529 48.8861" stroke="#203170" stroke-width="1.3" stroke-linecap="round" stroke-linejoin="round"/>
<path d="M165.648 40.4138C166.237 41.7082 167.484 46.1327 167.767 53.4755C173.697 61.6655 174.003 72.6561 173.415 77.1277" stroke="#203170" stroke-width="1.3" stroke-linecap="round" stroke-linejoin="round"/>
<path d="M174.828 84.8938C174.946 86.1882 175.746 88.9182 178.005 89.483C180.829 90.1891 180.829 96.8964 175.887 97.6025C170.945 98.3085 174.475 99.7206 173.769 104.663C173.063 109.605 158.589 127.256 148.704 125.844C138.82 124.432 137.761 115.606 132.113 117.371C126.464 119.137 128.935 123.726 131.407 123.726C133.878 123.726 137.408 113.841 129.288 113.841C122.793 113.841 116.462 117.607 114.108 119.49" stroke="#203170" stroke-width="1.3" stroke-linecap="round" stroke-linejoin="round"/>
<path d="M86.2185 67.5962C87.9836 67.8315 91.5137 68.7258 91.5137 70.4203C91.5137 72.5384 90.1017 71.8324 89.0426 73.2445C87.9836 74.6566 80.9232 73.9505 75.6279 72.1854" stroke="#203170" stroke-width="1.3" stroke-linecap="round"/>
<path d="M90.8086 71.8325C93.9858 72.0679 101.964 73.7388 108.46 78.5399C116.579 84.5412 134.936 97.2498 138.819 97.2498C142.702 97.2498 143.055 91.6015 140.584 92.3076C138.113 93.0136 141.29 95.8378 143.408 95.4847C145.526 95.1317 140.937 77.4808 145.879 78.5399C149.833 79.3871 150.586 78.8929 150.469 78.5399" stroke="#203170" stroke-width="1.3"/>
<path d="M86.9259 67.596L85.8668 69.3611L67.8629 60.1826C67.1568 60.5356 65.9566 61.5947 66.8038 63.0068C63.9793 62.1595 63.5085 65.7132 63.6262 67.596C51.9767 68.7727 25.783 75.2918 11.3799 91.9543" stroke="#203170" stroke-width="1.3"/>
<path d="M41.739 93.3123C41.6213 100.608 38.9854 114.917 29.3833 113.787C17.3807 112.375 31.5014 98.6075 44.2101 112.022C48.0926 101.785 55.153 106.021 57.6241 113.787" stroke="#203170" stroke-width="1.3" stroke-linecap="round" stroke-linejoin="round"/>
<path d="M57.9773 135.023H53.3881C51.8583 136.317 48.7988 138.129 48.7988 135.023C48.7988 131.139 53.3881 115.607 57.9773 114.195C61.6487 113.065 62.0958 114.195 61.8605 114.901C60.5661 117.842 57.9773 124.573 57.9773 127.962V135.023Z" stroke="#203170" stroke-width="1.3"/>
<path d="M61.8613 115.254L73.5109 119.137C78.3355 118.902 88.4789 118.29 90.4558 117.725C92.9269 117.019 94.692 116.313 98.9282 117.725C102.317 118.854 106.224 126.197 107.754 129.727L112.343 133.964C111.99 134.552 110.931 135.729 109.519 135.729C108.107 135.729 104.694 134.081 103.164 133.258" stroke="#203170" stroke-width="1.3"/>
<path d="M91.1622 125.491C92.1036 125.374 94.2688 125.209 95.3984 125.491C96.5281 125.774 101.282 130.787 103.518 133.258C103.4 133.964 102.318 135.164 98.9286 134.317C95.5396 133.47 92.8096 131.846 91.8683 131.14C89.7502 131.493 85.0197 132.411 83.0428 133.258C80.5717 134.317 74.9234 133.964 71.0402 132.552C66.5216 133.399 60.4496 134.081 57.9785 134.317" stroke="#203170" stroke-width="1.3"/>
<path d="M9.61426 13.2312H68.2153" stroke="#203170" stroke-width="1.3"/>
<path d="M101.752 13.2312H146.585V24.1748" stroke="#203170" stroke-width="1.3"/>
<path d="M80.5711 41.1197C78.1 36.7658 72.1693 28.6934 68.2155 31.2352C63.2733 34.4123 61.8612 47.121 75.2759 50.6512C75.2759 54.5344 77.0407 59.1236 68.2155 60.1827" stroke="#203170" stroke-width="1.3" stroke-linejoin="round"/>
<path d="M81.6304 60.8887C86.455 62.6538 97.022 63.9953 100.693 55.2404C102.953 49.5922 103.753 46.768 103.871 46.062C105.283 45.709 108.107 44.7911 108.107 43.9439C108.107 42.8848 103.164 39.0016 102.811 35.8244C103.659 32.1531 101.752 21.3507 100.693 16.4084C99.5166 22.4098 94.0566 34.5536 81.6304 35.1184C80.5007 36.8129 80.4536 39.8253 80.5713 41.1197" stroke="#203170" stroke-width="1.3" stroke-linecap="round" stroke-linejoin="round"/>
<path d="M98.576 40.4137C96.8815 35.0478 92.2216 36.2952 90.1035 37.5896C90.1035 37.9426 90.5977 38.7192 92.5746 39.0017C93.9867 37.2366 96.8109 40.0607 98.576 40.4137Z" fill="#203170"/>
<ellipse cx="95.7514" cy="40.4138" rx="1.76509" ry="2.47113" fill="#203170"/>
<path d="M68.9209 33.7065C69.8623 36.1777 72.6629 41.5435 76.3343 43.238" stroke="#203170" stroke-width="1.3" stroke-linecap="round"/>
<path d="M67.5088 39.3547H72.098" stroke="#203170" stroke-width="1.3" stroke-linecap="round"/>
<path d="M92.5742 54.7766C92.944 54.6215 93.5358 54.234 93.95 53.6139M94.4234 52.0637C94.4234 52.6838 94.2261 53.2005 93.95 53.6139M93.95 53.6139C94.8474 54.389 97.382 55.8617 100.341 55.5517" stroke="#203170" stroke-width="1.3" stroke-linejoin="round"/>
<path d="M88.6913 62.3008L85.8672 69.3611" stroke="#203170" stroke-width="1.3"/>
<path d="M108.106 43.2375L144.82 42.1785" stroke="#203170" stroke-width="1.3"/>
<path d="M176.592 41.1199L166.002 41.4729" stroke="#203170" stroke-width="1.3"/>
<path d="M105.988 96.1907C103.516 97.0144 98.5742 99.2266 98.5742 101.486C98.5742 104.31 104.223 107.84 102.104 119.843" stroke="#203170" stroke-width="1.3" stroke-linecap="round" stroke-linejoin="round"/>
<path d="M3.26074 149.496C3.26074 151.261 4.17859 154.791 7.84998 154.791C11.5214 154.791 106.342 153.85 153.293 153.379C154.941 153.262 158.236 151.897 158.236 147.378C158.236 142.859 158.236 129.256 158.236 123.02" stroke="#203170" stroke-width="1.3"/>
<path d="M151.527 126.197V134.669H111.989" stroke="#203170" stroke-width="1.3"/>
<path d="M48.9031 134.247H12.2214L10.1289 13.363" stroke="#203170" stroke-width="1.3"/>
<path d="M73.5107 154.438V169.618" stroke="#203170" stroke-width="1.3"/>
<path d="M83.3955 154.438V169.618" stroke="#203170" stroke-width="1.3"/>
<path d="M83.0426 169.265C70.334 167.853 56.3309 172.913 50.918 175.62H107.754C104.812 174.09 95.7513 170.677 83.0426 169.265Z" stroke="#203170" stroke-width="1.3"/>
<path d="M73.9915 32.3698C73.6114 30.0889 73.3072 24.6149 75.1319 20.9656" stroke="#203170" stroke-width="1.3" stroke-linecap="round"/>
<path d="M109.345 43.3938C110.485 46.9418 112.082 56.0905 109.345 64.3015C117.252 72.2084 118.468 81.5345 118.088 85.2091" stroke="#203170" stroke-width="1.3" stroke-linecap="round"/>
<path d="M94.8994 72.2844C95.0261 70.3837 95.5837 66.1262 96.8001 64.3015C96.8001 67.3426 99.3344 72.1577 100.602 74.1851" stroke="#203170" stroke-width="1.3" stroke-linecap="round" stroke-linejoin="round"/>
<path d="M31.416 25.0479V21.4451C31.416 20.3405 32.3114 19.4451 33.416 19.4451H43.4812C44.5857 19.4451 45.4812 20.3405 45.4812 21.4451V25.0479C45.4812 26.1524 44.5857 27.0479 43.4812 27.0479H33.416C32.3114 27.0479 31.416 26.1524 31.416 25.0479Z" stroke="#203170" stroke-width="1.3" stroke-linecap="round" stroke-linejoin="round"/>
<path d="M67.9096 114.1C63.348 108.525 55.8972 96.4615 62.5877 92.8121C70.9507 88.2505 83.495 97.3738 81.9745 101.555C80.4539 105.737 73.9915 94.3327 83.8752 91.2916C93.7588 88.2505 96.0396 101.935 95.6595 114.1" stroke="#203170" stroke-width="1.3" stroke-linecap="round" stroke-linejoin="round"/>
<path d="M96.6608 35.2191C99.0806 34.4746 98.2603 33.1169 97.5477 32.5311C93.2021 32.0178 90.2842 33.422 90.2075 34.1857C90.1309 34.9495 93.636 36.1498 96.6608 35.2191Z" stroke="#203170" stroke-width="1.3" stroke-linecap="round" stroke-linejoin="round"/>
</svg>
