<svg width="85" height="85" viewBox="0 0 85 85" fill="none" xmlns="http://www.w3.org/2000/svg">
<g id="Group 771">
<circle id="Ellipse 16" cx="42.1332" cy="42.1332" r="42.1332" fill="#C9D4F0"/>
<g id="Group 755">
<path id="Vector 781" d="M31.2885 51.6362C29.7132 50.3934 27.9997 44.4566 27.3398 41.6435L28.5607 39.8877L26.3923 35.1381C26.7047 35.0113 27.9239 34.651 30.3017 34.2237C33.2739 33.6897 49.5552 32.4598 54.9982 32.4355C59.3525 32.4161 63.2242 32.7942 64.6157 32.9857L59.76 35.7125L44.9856 50.4468L43.8875 50.2202L39.457 46.7248C37.728 47.7065 33.6737 50.0633 31.2885 51.6362Z" fill="#FFBB56"/>
<g id="Group 110">
<path id="Vector 772" d="M34.527 26.3358C35.0312 27.5123 41.8798 25.8456 45.2411 24.8653C50.7035 23.5058 60.9966 23.6048 67.299 23.1846C73.6014 22.7645 75.9123 16.6722 73.6014 13.1008C59.5261 -0.134172 31.5859 9.10931 30.3255 9.52947C29.065 9.94963 29.065 10.3698 29.6952 12.0504C30.3255 13.7311 33.8968 24.8653 34.527 26.3358Z" stroke="#203170"/>
<path id="Vector 773" d="M35.1563 13.1009C31.8651 13.381 24.6104 14.6555 21.9213 17.5126C18.5601 21.0839 24.4423 21.5041 26.1229 18.3529C27.8036 15.2017 27.3836 13.1009 18.5603 14.7815C9.73698 16.4622 4.27492 20.2436 4.27492 21.0839C4.27492 21.9242 7.21603 20.8738 9.10674 20.4537C10.1571 20.0335 10.5773 21.294 9.10674 21.7141C7.63618 22.1343 -0.556905 26.546 0.70357 27.8064C1.96405 29.0669 9.10673 24.2351 9.94705 24.4452C10.7874 24.6552 5.32531 27.3863 3.4346 29.4871C1.54388 31.5879 2.17412 32.2181 3.4346 32.008C4.69507 31.7979 11.8378 26.9661 12.468 27.1762C13.0982 27.3863 8.26642 30.9576 7.00594 32.8483C5.74547 34.7391 6.16563 35.9995 7.00594 36.2096C7.84626 36.4197 17.72 26.9661 18.3502 27.5964C18.9805 28.2266 14.7789 32.2181 15.6192 33.2685C16.4595 34.3189 17.5099 33.6887 20.451 30.9576C23.3921 28.2266 29.9046 25.0754 34.1062 25.0754" stroke="#203170" stroke-linecap="round"/>
<path id="Vector 774" d="M41.2476 57.0075L50.7011 55.5369C52.1017 60.0186 55.1548 69.1921 56.1632 70.0324C57.4237 71.0828 57.6338 72.3433 55.3229 72.7634C53.012 73.1836 32.4242 79.2759 22.9707 73.6037C13.5171 67.9316 9.10546 61.8393 11.8365 60.999C14.5675 60.1587 21.7102 68.5618 15.828 71.9231C9.94574 75.2844 -0.558221 59.1083 2.59297 48.1841" stroke="#203170" stroke-linecap="round"/>
<path id="Vector 775" d="M51.332 57.4275C54.8334 56.5172 62.6343 53.8982 65.8275 50.705C69.819 46.7135 70.4492 47.7639 70.2392 49.6546C70.0291 51.5453 66.2477 53.436 67.7182 53.8562C69.1888 54.2763 78.0121 47.3437 79.2726 45.8732C80.533 44.4026 81.3734 46.5034 80.1129 48.6042C78.8524 50.705 73.3903 54.0663 74.2307 54.4864C75.071 54.9066 82.0036 49.0243 82.8439 49.6546C83.6842 50.2848 83.2641 51.9655 79.2726 54.9066C75.2811 57.8477 75.4911 57.8477 76.3315 57.8477C77.1718 57.8477 82.6338 54.4864 83.2641 54.4864C83.8943 54.4864 85.3649 55.1167 83.2641 57.0074C81.1633 58.8981 75.7012 60.5787 76.3315 60.9989C76.9617 61.419 80.533 59.7384 81.1633 60.1586C81.7935 60.5787 80.533 65.6206 68.7686 67.3012C59.3571 68.6458 57.1442 68.4217 57.2142 68.1416" stroke="#203170" stroke-linecap="round"/>
<path id="Vector 778" d="M26.4961 34.6307L29.1594 40.1751C35.2151 38.8874 47.5467 36.1671 48.4277 35.5877C49.5289 34.8635 33.4772 36.5467 32.376 37.2709C31.495 37.8503 27.5993 41.2011 25.7616 42.804C26.4525 44.453 28.0879 48.1362 29.1024 49.6775C30.3705 51.6041 31.4646 52.0677 32.1094 51.2493C32.7541 50.4309 55.2746 37.0004 61.5053 34.4802C66.4899 32.464 64.5988 31.7884 63.0302 31.7027C53.3589 31.293 32.5122 31.3052 26.4961 34.6307Z" stroke="#203170" stroke-linecap="round"/>
<path id="Vector 779" d="M40.1426 47.6694C41.2243 48.5969 43.6351 50.4091 44.6252 50.2377C45.8629 50.0235 56.5276 37.6674 61.0701 35.3177" stroke="#203170" stroke-linecap="round"/>
<path id="Vector 780" d="M29.9054 55.0159C28.855 56.2063 27.7206 58.7553 31.5861 59.4276C36.4179 60.2679 33.2667 53.7554 31.5861 55.0159C30.2415 56.0243 31.0258 57.1167 31.5861 57.5368" stroke="#203170" stroke-linecap="round"/>
</g>
</g>
</g>
</svg>
