<svg width="85" height="85" viewBox="0 0 85 85" fill="none" xmlns="http://www.w3.org/2000/svg">
<g id="Group 759">
<circle id="Ellipse 16" cx="42.1332" cy="42.1332" r="42.1332" fill="#C9D4F0"/>
<g id="Group 753">
<path id="Vector 771" d="M54.6067 31.7529C54.7886 33.3907 55.8957 33.1936 56.4265 32.8903C56.9574 32.5111 58.3376 31.2979 59.6115 29.4781C62.7966 23.5637 62.7962 16.057 62.5687 14.0097C62.3412 11.9624 57.7913 10.1426 55.0616 11.5075C52.3319 12.8723 54.3792 29.7056 54.6067 31.7529Z" fill="#FFBB56"/>
<circle id="Ellipse 18" cx="55.0616" cy="39.4871" r="3.18467" fill="#FFBB56"/>
<g id="Group 108">
<g id="Group 107">
<path id="Vector 764" d="M32.1922 46.0229C33.7229 46.156 37.0638 47.3806 38.1818 51.214C39.5794 56.0057 41.9753 56.8044 43.1733 56.6047C44.3712 56.4051 45.3695 49.8164 48.9633 48.4188C52.5571 47.0212 63.9375 48.2191 65.9341 47.6202C67.9307 47.0212 69.7276 45.424 70.1269 41.4308C70.5262 37.4377 71.3248 16.8731 70.1269 13.2793C68.9289 9.68544 65.5348 8.28785 60.3437 8.08819C56.1909 7.92847 33.7229 8.02164 23.008 8.08819C20.7452 8.15474 16.0998 9.44584 15.6207 14.0779C15.0217 19.8679 13.8238 39.8336 18.8152 43.4274C23.8066 47.0212 28.9975 44.6253 27.4002 40.6322C25.803 36.6391 22.0095 36.4394 20.8116 32.4463C19.6136 28.4531 21.6105 21.6648 23.008 22.2638C24.4054 22.8628 25.0044 32.4463 26.6016 31.448C28.1989 30.4497 29.7959 22.6631 30.9941 23.4617C32.1922 24.2604 35.7856 31.0487 36.9837 29.0521C38.1818 27.0555 38.3813 19.4686 41.5758 20.2672C44.7703 21.0658 45.9683 32.4463 51.359 31.448C56.7497 30.4497 63.5381 19.0693 62.7394 15.2758C61.9408 11.4823 58.5466 10.8834 55.5518 11.083C52.557 11.2827 52.1576 14.8765 52.3573 17.8713C52.557 20.8662 52.7566 34.0435 54.3539 34.2432C55.6317 34.4029 58.4801 30.849 59.7446 29.0521" stroke="#203170" stroke-linecap="round"/>
<path id="Vector 765" d="M52.1568 41.2311C50.5595 38.356 52.8223 36.9718 54.1534 36.639C57.1485 36.04 58.7451 38.2362 58.9448 39.6338C59.1445 41.0314 54.1534 44.8249 52.1568 41.2311Z" stroke="#203170" stroke-linecap="round"/>
<path id="Vector 766" d="M7.51953 67.2393C15.4226 57.0568 24.6046 55.4467 22.2087 53.2105C17.301 48.63 14.766 52.0126 16.1636 53.2105C17.5612 54.4085 31.9919 50.615 36.1847 52.2123" stroke="#203170" stroke-linecap="round"/>
<path id="Vector 767" d="M22.0091 62.1952C20.1456 64.9238 16.6583 70.9801 17.6167 73.3759C21.61 68.4245 23.9394 67.3197 24.6049 67.3862L26.0025 71.579L27.5997 70.5807C28.7311 71.1797 32.3915 72.3776 37.9819 72.3776C43.5722 72.3776 51.2257 72.3776 54.3537 72.3776L57.1489 67.3862C57.6148 67.1866 58.5465 67.0668 58.5465 68.1849C58.5465 69.3029 59.3451 71.4459 59.7444 72.3776C62.4065 72.6439 68.2099 73.0166 70.1266 72.3776C72.5224 71.579 74.519 69.7821 74.1197 68.1849C73.7204 66.5876 63.1386 52.412 49.1626 52.8113" stroke="#203170" stroke-linecap="round"/>
</g>
<path id="Vector 768" d="M68.2557 15.602C68.4832 21.8955 68.7107 35.62 67.8008 40.1695" stroke="#203170" stroke-linecap="round"/>
<path id="Vector 769" d="M64.8438 55.8654C67.1943 57.2302 72.4415 60.9609 74.6252 64.9645" stroke="#203170" stroke-linecap="round"/>
<path id="Vector 770" d="M7.74805 70.6513C8.65795 69.2106 10.7962 65.9198 12.0701 64.282" stroke="#203170" stroke-linecap="round"/>
</g>
</g>
</g>
</svg>
