<svg width="98" height="85" viewBox="0 0 98 85" fill="none" xmlns="http://www.w3.org/2000/svg">
<g id="Group 772">
<circle id="Ellipse 20" cx="55.561" cy="42.1332" r="42.1332" fill="#C9D4F0"/>
<g id="Group 114">
<path id="Vector 812" d="M40.7882 48.8236C40.4092 45.2236 42.6829 39.429 43.8671 36.9816L47.657 37.4553L48.1307 46.9289C47.8938 46.9289 46.0937 47.3078 40.7882 48.8236Z" fill="#FFBB56"/>
<path id="Vector 813" d="M67.5514 48.3498L66.3672 36.5079H69.6829C69.2882 35.9553 68.9724 34.9921 70.8671 35.5605C72.7618 36.1289 74.6565 39.4289 75.3671 41.0078L75.8407 44.3236L69.6829 48.8235L67.5514 48.3498Z" fill="#FFBB56"/>
<g id="Group 112">
<path id="Vector 782" d="M1 76.7706C3.28944 80.1653 9.47883 85.6283 15.9208 80.3232C23.9734 73.6917 9.76304 59.4813 10.4736 66.1128C11.1841 72.7443 21.1313 74.4022 22.0787 67.297C23.026 60.1918 29.4207 51.1919 34.3943 50.9551C47.6573 45.9815 54.0519 45.271 65.1833 48.113C76.7884 49.534 77.9726 54.5077 77.4989 56.6392C77.0253 58.7708 71.1043 57.1129 66.8412 57.1129C62.5781 57.1129 55.2361 56.4024 50.4993 58.0602" stroke="#203170" stroke-linecap="round"/>
<path id="Vector 783" d="M39.8418 65.6391C44.9733 64.6918 56.1363 62.9392 59.7363 63.5076C64.2362 64.2181 69.6835 60.6655 72.0519 57.8235" stroke="#203170" stroke-linecap="round"/>
<path id="Vector 784" d="M76.7892 53.0866C81.526 48.8235 90.9995 40.1078 90.9995 39.3499C90.9995 38.4026 89.5785 36.271 83.1838 38.6394C78.0681 40.5341 75.9997 43.0604 75.605 44.0867L70.3945 48.113" stroke="#203170" stroke-linecap="round"/>
<path id="Vector 785" d="M34.157 25.8502C33.9202 28.2186 32.9728 33.287 31.0781 34.6133C28.7097 36.2711 24.2098 40.5342 25.8677 42.9026C27.194 44.7973 28.3148 46.2184 28.7094 46.692C27.1305 47.0078 24.02 48.2078 24.2094 50.4815C24.3989 52.7551 26.1831 54.113 27.0516 54.5077" stroke="#203170" stroke-linecap="round"/>
<path id="Vector 786" d="M81.5254 25.6133C81.5254 27.1133 81.9991 30.3027 83.8938 31.0606C86.2622 32.0079 88.1569 33.6658 88.1569 37.4552" stroke="#203170" stroke-linecap="round"/>
<path id="Vector 787" d="M86.9727 32.7185C87.92 32.4027 90.0042 31.9606 90.7621 32.7185C91.52 33.4764 90.2884 36.1922 89.5779 37.4553" stroke="#203170" stroke-linecap="round"/>
<path id="Vector 788" d="M34.6309 23.9555C36.2887 20.0872 42.0676 11.9715 51.9201 10.4557C64.2357 8.56099 77.025 12.5873 80.8144 22.2976" stroke="#203170" stroke-linecap="round"/>
<path id="Vector 789" d="M36.7617 27.9817L39.3669 29.4027L42.209 27.0343C41.8932 27.9028 41.2617 29.7817 41.2617 30.3501C41.2617 30.9185 43.4722 31.6922 44.5774 32.008C45.8405 29.087 48.7458 23.0081 50.2615 22.0607C52.1562 20.8765 48.3668 30.8238 49.551 33.1922C54.0983 33.5711 62.4982 32.5606 66.1297 32.008V29.4027L67.7876 30.5869L81.5243 25.3765" stroke="#203170" stroke-linecap="round"/>
<path id="Vector 790" d="M37.9455 28.9291C36.9192 32.4027 35.5297 41.3868 38.1823 49.5341" stroke="#203170" stroke-linecap="round"/>
<path id="Vector 791" d="M77.9727 26.7975C78.6042 28.9291 79.9147 34.2343 80.1042 38.4026" stroke="#203170" stroke-linecap="round"/>
<path id="Vector 792" d="M36.2892 37.2183C34.5524 36.1131 31.0313 34.7079 30.8419 37.9289C30.6524 41.1499 33.9208 44.0078 35.5787 45.0341" stroke="#203170" stroke-linecap="round"/>
<path id="Vector 794" d="M32.9727 37.6922L35.8147 41.7184" stroke="#203170" stroke-linecap="round"/>
<path id="Vector 795" d="M32.5 39.8236H34.1579" stroke="#203170" stroke-linecap="round"/>
<path id="Vector 793" d="M79.3945 32.7186C80.4998 31.8502 82.8524 30.7765 83.4208 33.4291C83.9892 36.0817 83.6576 37.6922 83.4208 38.1658" stroke="#203170" stroke-linecap="round"/>
<path id="Vector 796" d="M81.2877 33.9028L80.1035 36.508" stroke="#203170" stroke-linecap="round"/>
<path id="Vector 634" d="M42.7543 35.0869C41.9682 35.0869 41.1166 36.0695 40.7891 36.5608C44.13 38.3296 48.5683 37.9529 50.3698 37.5435C50.8611 37.0522 51.1559 36.1678 48.4045 36.5608C44.9653 37.0522 43.737 35.0869 42.7543 35.0869Z" fill="#203170"/>
<path id="Vector 797" d="M71.4625 34.1396C72.2486 34.1396 73.1002 35.1222 73.4277 35.6135C70.0868 37.3823 65.6485 37.0056 63.847 36.5961C63.3557 36.1048 63.0609 35.2205 65.8123 35.6135C69.2515 36.1048 70.4798 34.1396 71.4625 34.1396Z" fill="#203170"/>
<path id="Vector 798" d="M44.1048 36.9816C43.1696 38.3662 41.1972 42.5783 40.7891 48.3499" stroke="#203170" stroke-linecap="round"/>
<path id="Vector 803" d="M67.3145 37.929L68.2618 43.6131" stroke="#203170" stroke-linecap="round"/>
<path id="Vector 804" d="M73.4727 42.1921L74.42 44.7973" stroke="#203170" stroke-linecap="round"/>
<path id="Vector 805" d="M64.709 12.5872C66.7616 12.982 71.672 14.5293 74.8931 17.5608" stroke="#203170" stroke-linecap="round"/>
<path id="Vector 806" d="M67.7891 57.1129C68.8154 56.2445 71.7206 54.6971 75.1311 55.455" stroke="#203170" stroke-linecap="round"/>
<path id="Vector 807" d="M44.1046 65.1655C43.3151 67.9286 42.3519 74.5917 44.8151 79.139" stroke="#203170" stroke-linecap="round"/>
<path id="Vector 800" d="M65.6562 36.2711C65.972 38.7185 66.6036 44.0394 66.6036 45.7447" stroke="#203170" stroke-linecap="round"/>
<path id="Vector 801" d="M71.3418 35.7974C72.526 36.5079 75.0839 38.9237 75.8417 42.9026" stroke="#203170" stroke-linecap="round"/>
<path id="Vector 802" d="M47.4199 41.2447V46.9288" stroke="#203170" stroke-linecap="round"/>
<path id="Vector 799" d="M48.6055 37.2184L48.8423 45.7446" stroke="#203170" stroke-linecap="round"/>
</g>
</g>
</g>
</svg>
