<svg width="85" height="85" viewBox="0 0 85 85" fill="none" xmlns="http://www.w3.org/2000/svg">
<g id="Group 774">
<circle id="Ellipse 20" cx="42.1332" cy="42.1332" r="42.1332" fill="white"/>
<g id="Mask group">
<mask id="mask0_564_1268" style="mask-type:alpha" maskUnits="userSpaceOnUse" x="0" y="0" width="85" height="85">
<circle id="Ellipse 21" cx="42.1332" cy="42.1332" r="42.1332" fill="white"/>
</mask>
<g mask="url(#mask0_564_1268)">
<g id="Group 769">
<g id="Group 734">
<path id="Vector 671" d="M43.2895 43.6287C41.7683 38.8117 37.5851 39.9314 35.6836 41.0934C35.6836 41.4104 36.1273 42.1076 37.902 42.3611C39.1696 40.7766 41.7049 43.3119 43.2895 43.6287Z" fill="#203170"/>
<ellipse id="Ellipse 13" cx="39.3892" cy="42.946" rx="1.58456" ry="2.21838" fill="#203170"/>
</g>
<g id="Group 735">
<path id="Vector 671_2" d="M49.2906 43.6287C50.8118 38.8117 54.995 39.9314 56.8965 41.0934C56.8965 41.4104 56.4528 42.1076 54.6781 42.3611C53.4105 40.7766 50.8752 43.3119 49.2906 43.6287Z" fill="#203170"/>
<ellipse id="Ellipse 13_2" cx="1.58456" cy="2.21838" rx="1.58456" ry="2.21838" transform="matrix(-1 0 0 1 54.7754 40.7277)" fill="#203170"/>
</g>
<path id="Vector 902" d="M4.07245 84.218C3.11203 86.1388 3.93906 89.2869 4.47263 90.6208L24.0814 77.4149L26.0823 71.8124L28.8836 69.8116L30.8844 65.0094L34.486 64.6093V60.6075L30.8844 52.2038L26.8827 51.4034L22.0806 46.6014L20.0797 40.5987C19.9463 39.6649 20.1597 37.3172 22.0806 35.3964C24.0014 33.4755 28.7502 35.3964 30.8844 36.5969L30.0841 33.7957L32.085 32.9953H36.0867L39.6883 24.1914V32.9953H44.8906L46.8915 29.3937L48.092 32.9953H59.297L61.698 31.3946V37.7974L60.4975 51.4034C60.2307 52.604 59.6972 54.925 58.0965 57.8063C56.4957 60.6875 53.4277 63.0085 51.6936 63.8089V66.6101H54.4949C55.0284 66.7435 56.0956 67.4905 56.0956 69.4114C58.9768 71.3322 59.6972 76.081 59.6972 78.2153C60.8977 78.6154 65.4597 80.5363 74.1035 85.0183C72.1026 72.2126 71.3023 71.4123 67.3 66.21C68.9007 61.4078 65.8327 54.6048 64.0986 51.8036L67.3004 41.7992C68.5009 29.7939 64.8993 6.8238 40.8887 10.9856C16.8781 15.1475 14.3437 36.4636 16.0778 46.6014C16.3445 47.4017 16.9581 49.8828 17.2783 53.4044C15.0373 55.3252 14.2103 60.074 14.0769 62.2082L14.8772 66.6102C13.6767 67.5439 10.7154 69.9717 8.4744 72.2127C6.23341 74.4537 6.47351 79.0157 6.87369 81.0165C6.34012 81.2833 5.03288 82.2971 4.07245 84.218Z" fill="#91A6DC"/>
<path id="Vector 818" d="M61.6984 31.6147C61.6984 31.6147 61.2983 45.0006 60.4979 49.8027C59.6976 54.6049 57.2641 66.2661 43.4682 64.407C32.4315 62.5479 32.3208 55.4416 30.9041 52.2713C27.9479 51.8409 21.6905 49.1728 20.3109 41.943C18.5864 32.9057 26.9624 33.6803 30.9041 36.5206C29.1305 32.5959 30.1651 27.9998 30.9041 26.1923" stroke="#203170" stroke-linecap="round" stroke-linejoin="round"/>
<path id="Vector 820" d="M24.4902 37.0872C24.6298 38.8737 25.9976 42.7147 30.3522 43.7866" stroke="#203170" stroke-linecap="round" stroke-linejoin="round"/>
<path id="Vector 821" d="M22.8164 41.2372L26.0827 41.399" stroke="#203170" stroke-linecap="round" stroke-linejoin="round"/>
<path id="Vector 819" d="M32.0293 32.9372H36.1001C36.7786 29.9895 38.5426 23.8528 40.1709 22.8881C39.1939 27.7117 39.4924 31.5973 39.7638 32.9372H45.0559L47.0913 28.9176L47.4983 32.9372H59.3037L61.3391 31.3293" stroke="#203170" stroke-linecap="round" stroke-linejoin="round"/>
<path id="Vector 822" d="M38.1135 37.8628C35.5166 37.5462 36.0848 36.2795 36.8964 35.4879C37.7079 34.6963 40.9541 34.3796 42.5772 34.6963C44.2003 35.0129 43.7945 36.1476 43.3887 36.6754C42.7124 37.2031 40.7104 38.1795 38.1135 37.8628Z" stroke="#203170"/>
<path id="Vector 823" d="M52.3498 34.6368C49.7529 34.9534 50.3212 36.2201 51.1327 37.0117C51.9442 37.8033 55.1904 38.1199 56.8135 37.8033C58.4366 37.4866 58.0308 36.352 57.625 35.8242C56.9487 35.2965 54.9467 34.3201 52.3498 34.6368Z" stroke="#203170"/>
<path id="Vector 826" d="M40.8887 54.2047C42.1646 55.2192 45.7117 56.7917 49.6926 54.9656" stroke="#203170" stroke-linecap="round" stroke-linejoin="round"/>
<path id="Vector 827" d="M4.11209 89.8818C3.31939 87.641 2.7645 82.6848 6.88655 80.7867C4.98404 73.1943 11.6427 68.1327 15.2099 66.5509C13.8887 64.7055 12.5147 59.354 17.588 52.7106C12.4354 39.6611 16.0774 23.3911 22.4802 16.1879C28.8831 8.98467 41.6887 2.58188 53.694 9.38488C65.6993 16.1879 68.3209 31.0933 67.9246 36.4976C67.7925 39.9247 66.8941 47.8071 64.3574 51.9197C69.4307 55.7159 69.3779 62.4647 68.7173 65.3646C71.3596 67.21 76.4065 73.827 75.4553 85.532" stroke="#203170" stroke-linecap="round" stroke-linejoin="round"/>
<path id="Vector 828" d="M34.4863 60.6075L34.4863 68.6111" stroke="#203170" stroke-linecap="round" stroke-linejoin="round"/>
<path id="Vector 829" d="M51.293 63.8088V68.611" stroke="#203170" stroke-linecap="round" stroke-linejoin="round"/>
<path id="Vector 836" d="M28.6758 78.6087C32.8109 81.9433 43.4823 86.7785 53.0865 79.4424C65.0918 70.2722 39.8807 79.8592 37.4796 85.6948" stroke="#203170" stroke-linecap="round" stroke-linejoin="round"/>
<path id="Vector 837" d="M51.2891 66.4809C52.7468 66.3553 55.6622 66.4055 55.6622 67.6109C55.6622 69.1176 60.0353 71.001 59.6377 78.1579" stroke="#203170" stroke-linecap="round" stroke-linejoin="round"/>
<path id="Vector 838" d="M32.0293 67.2714C35.1648 69.6412 43.0716 73.5276 49.6152 70.1151" stroke="#203170" stroke-linecap="round" stroke-linejoin="round"/>
<path id="Vector 839" d="M28.6758 69.7838C29.8272 71.3191 33.2816 74.6408 37.8874 75.6457" stroke="#203170" stroke-linecap="round" stroke-linejoin="round"/>
</g>
</g>
</g>
</g>
</svg>
