<svg width="102" height="85" viewBox="0 0 102 85" fill="none" xmlns="http://www.w3.org/2000/svg">
<g id="Group 750">
<circle id="Ellipse 16" cx="49.561" cy="42.1332" r="42.1332" fill="#C9D4F0"/>
<g id="Group 113">
<g id="Group 106">
<path id="Vector 741" d="M16.2283 73.5843C15.4914 69.7362 15.0984 61.0577 19.4213 57.1278C16.2283 45.338 20.6494 12.9162 35.8779 7.26697C51.1063 1.61771 70.019 3.33705 74.9314 34.7764C76.6999 47.9416 76.8145 55.1628 76.6507 57.1278C79.7619 60.7302 84.5597 69.4088 78.8613 75.3036C66.2856 69.2123 61.8317 66.707 61.1767 66.2157C57.6562 71.0462 49.8782 80.5599 46.9308 79.9704C43.9833 79.3809 36.2054 69.5725 32.6848 64.742C28.5093 70.3913 18.3406 81.0511 11.0703 78.4967C1.98235 75.3036 4.19293 64.4964 6.89474 66.2157C9.59656 67.9351 9.10545 72.8474 1 71.1281" stroke="#203170" stroke-linecap="round"/>
<path id="Vector 742" d="M23.8428 27.6534L29.0008 28.1525M29.0008 28.1525L31.457 28.3902L33.9132 23.7235V29.1271H39.3168C40.0537 25.0334 41.9695 16.6005 43.738 15.618C43.1485 20.7269 43.4923 26.2615 43.738 28.3902C51.1884 29.4546 66.6297 30.9447 68.7912 28.3902C71.493 25.1972 67.5631 23.2322 65.8437 24.7059C64.1244 26.1797 65.3525 35.7588 64.37 43.1274C63.3875 50.496 60.9313 63.0226 49.1416 64.2507C37.3519 65.4788 32.4395 57.3734 30.9657 54.4259C29.492 51.4785 27.5271 37.494 29.0008 28.1525Z" stroke="#203170" stroke-linecap="round"/>
<path id="Vector 743" d="M25.0705 27.899C22.2049 30.1096 18.9791 36.4957 29.0004 44.3556" stroke="#203170" stroke-linecap="round"/>
<path id="Vector 746" d="M69.5282 27.899C72.3937 30.1096 75.6195 36.4957 65.5982 44.3556" stroke="#203170" stroke-linecap="round"/>
<g id="Group 97">
<path id="Vector 634" d="M35.3207 36.4958C34.4627 36.4958 33.5333 37.5682 33.1758 38.1045C36.8221 40.0349 41.666 39.6238 43.6322 39.1769C44.1684 38.6407 44.4901 37.6755 41.4873 38.1045C37.7337 38.6407 36.3931 36.4958 35.3207 36.4958Z" fill="#203170"/>
<circle id="Ellipse 12" cx="39.3431" cy="40.5175" r="2.1449" fill="#203170"/>
</g>
<g id="Group 105">
<path id="Vector 634_2" d="M58.0494 36.4958C58.9074 36.4958 59.8369 37.5682 60.1943 38.1045C56.548 40.0349 51.7041 39.6238 49.7379 39.1769C49.2017 38.6407 48.88 37.6755 51.8828 38.1045C55.6364 38.6407 56.977 36.4958 58.0494 36.4958Z" fill="#203170"/>
<circle id="Ellipse 12_2" cx="2.1449" cy="2.1449" r="2.1449" transform="matrix(-1 0 0 1 56.1719 38.3725)" fill="#203170"/>
</g>
<path id="Vector 753" d="M37.5973 33.7939C35.4359 33.2045 34.8955 32.2383 34.8955 31.829C36.6148 29.864 43.9834 31.0921 43.9834 32.8115C43.9834 34.5308 40.2991 34.5308 37.5973 33.7939Z" stroke="#203170" stroke-linecap="round"/>
<path id="Vector 754" d="M55.7728 33.7939C57.9342 33.2045 58.4746 32.2383 58.4746 31.829C56.7553 29.864 49.3867 31.0921 49.3867 32.8115C49.3867 34.5308 53.071 34.5308 55.7728 33.7939Z" stroke="#203170" stroke-linecap="round"/>
<path id="Vector 755" d="M34.4043 66.9525C36.0418 67.5256 38.8746 67.2964 37.1061 61.7945" stroke="#203170" stroke-linecap="round"/>
<path id="Vector 756" d="M59.0361 66.9524C57.3987 67.5256 54.5659 67.2963 56.3343 61.7944" stroke="#203170" stroke-linecap="round"/>
<path id="Vector 757" d="M37.5977 63.7596C38.4164 66.8707 42.0679 72.4545 50.1243 69.9" stroke="#203170" stroke-linecap="round"/>
<path id="Vector 764" d="M74.9325 11.688C73.3605 13.0634 75.6694 26.1796 78.6167 28.1445C81.0728 29.7819 80.9092 27.3258 80.5818 26.1796L77.6344 18.5654C79.4356 21.2672 83.4801 26.3761 85.2486 25.1971C87.4592 23.7234 86.2311 9.23183 84.2661 9.47745C82.6942 9.67395 82.7924 16.7641 83.038 20.2847C80.9912 16.846 76.5044 10.3125 74.9325 11.688Z" fill="#FFBB56"/>
<path id="Vector 760" d="M75.9139 11.688C74.3419 13.0634 76.6509 26.1796 79.5982 28.1445C82.0543 29.7819 81.8907 27.3258 81.5633 26.1796L78.6158 18.5654C80.417 21.2672 84.4616 26.3761 86.23 25.1971C88.4406 23.7234 87.2125 9.23183 85.2476 9.47745C83.6756 9.67395 83.7739 16.7641 84.0195 20.2847C81.9726 16.846 77.4859 10.3125 75.9139 11.688Z" stroke="#203170" stroke-linecap="round" stroke-linejoin="round"/>
<path id="Subtract" fill-rule="evenodd" clip-rule="evenodd" d="M93.5986 9.47755C89.6683 12.6706 86.4753 19.351 90.4052 25.4424C95.3176 33.0566 100.476 20.0387 99.9847 16.8457C99.4935 13.6526 97.5288 6.28454 93.5986 9.47755ZM93.844 13.1618C92.7796 14.7174 90.7983 18.6146 91.3878 21.7585C92.1246 25.6884 94.8266 24.4603 96.0547 21.7585C97.2828 19.0567 98.0194 9.72314 93.844 13.1618Z" fill="#FFBB56"/>
<path id="Vector 761" d="M91.3877 25.4424C87.4577 19.351 90.6507 12.6706 94.581 9.47757C98.5112 6.28456 100.476 13.6526 100.967 16.8457C101.458 20.0387 96.3 33.0566 91.3877 25.4424Z" stroke="#203170" stroke-linecap="round"/>
<path id="Vector 762" d="M92.371 21.7585C91.7815 18.6146 93.7629 14.7174 94.8272 13.1618C99.0027 9.72312 98.266 19.0567 97.0379 21.7585C95.8098 24.4603 93.1079 25.6884 92.371 21.7585Z" stroke="#203170" stroke-linecap="round"/>
<path id="Vector 763" d="M89.6689 28.3903C89.4233 31.4196 88.0478 36.7905 84.5109 34.0396C80.0897 30.6009 96.5462 29.3728 93.1076 37.9695C90.3566 44.8468 82.1364 43.7825 78.3701 42.3906" stroke="#203170" stroke-linecap="round"/>
</g>
</g>
</g>
</svg>
