<svg width="241" height="232" viewBox="0 0 241 232" fill="none" xmlns="http://www.w3.org/2000/svg">
<path d="M85.6849 75.1472C59.1564 107.721 74.6313 141.176 85.6849 153.832C86.4562 153.832 91.282 152.968 104.414 149.513C117.546 146.058 135.419 148.074 142.715 149.513L158.582 152.796L171.167 144.041L176.639 138.023L180.021 122.468C193.171 70.1951 118.845 34.4295 85.6849 75.1472Z" fill="#FFBB56"/>
<path d="M1 217.26C6.28919 225.103 20.5883 237.724 35.471 225.468C54.0743 210.147 21.2448 177.318 22.8863 192.638C24.5278 207.959 47.5084 211.789 49.6971 195.374C51.8857 178.959 66.659 158.167 78.1493 157.62C108.79 146.13 123.563 144.488 149.28 151.054C176.091 154.337 178.826 165.827 177.732 170.752C176.638 175.676 162.959 171.846 153.11 171.846C143.261 171.846 126.299 170.205 115.356 174.035" stroke="white" stroke-width="2" stroke-linecap="round"/>
<path d="M90.7344 191.544C102.589 189.355 128.379 185.306 136.696 186.619C147.092 188.261 159.676 180.053 165.148 173.488" stroke="white" stroke-width="2" stroke-linecap="round"/>
<path d="M176.09 162.544C187.033 152.695 208.919 132.56 208.919 130.809C208.919 128.62 205.636 123.696 190.863 129.168C179.044 133.545 174.266 139.381 173.354 141.752L161.316 151.054" stroke="white" stroke-width="2" stroke-linecap="round"/>
<path d="M155.299 171.846C157.67 169.84 164.382 166.265 172.261 168.016" stroke="white" stroke-width="2" stroke-linecap="round"/>
<path d="M100.583 190.449C98.7595 196.833 96.5344 212.226 102.225 222.732" stroke="white" stroke-width="2" stroke-linecap="round"/>
<path d="M85.6849 153.832C74.6313 141.176 59.1564 107.721 85.6849 75.1472C118.845 34.4295 193.171 70.1951 180.021 122.468" stroke="white" stroke-width="2" stroke-linecap="round"/>
<path d="M127.663 140.814C132.36 136.506 136.156 131.332 139.379 125.848C141.022 123.05 142.524 120.172 143.939 117.252C145.406 114.228 146.847 111.171 148.083 108.044C149.41 104.687 150.407 101.195 150.762 97.591C151.066 94.5093 151.07 91.1337 149.537 88.3472C148.345 86.18 145.862 84.3965 143.295 84.7661C140.357 85.1877 138.873 88.3472 137.568 90.6516C135.733 93.8889 133.874 97.1143 132.07 100.37C130.518 103.169 129.074 106.04 128.193 109.125C128.29 109.615 128.372 110.108 128.453 110.606C128.557 111.249 127.727 111.475 127.489 110.873C127.441 110.753 127.393 110.633 127.345 110.514C126.741 110.64 125.989 110.155 126.188 109.366C126.277 109.012 126.375 108.66 126.478 108.31C126.454 108.238 126.428 108.165 126.403 108.092C125.119 104.208 123.503 100.437 121.564 96.8387C119.749 93.4706 117.733 90.1231 114.989 87.4295C112.426 84.9132 109.07 82.9384 105.425 82.72C102.302 82.533 98.8748 83.7371 97.0056 86.367C94.8598 89.387 94.8954 93.4998 95.3871 97.0235C95.9112 100.781 97.1627 104.413 98.7877 107.826C100.457 111.33 102.496 114.642 104.65 117.863C106.742 120.99 108.891 124.087 111.188 127.066C115.537 132.708 120.503 137.989 126.556 141.794C126.928 141.473 127.297 141.149 127.66 140.816L127.663 140.814Z" fill="white"/>
<path d="M95.6578 87.6253C90.4051 103.383 114.261 130.304 126.846 141.794C143.261 129.756 158.581 88.7197 146.544 84.8896C134.506 81.0595 127.94 98.5686 127.94 111.153C127.393 100.21 102.224 67.9276 95.6578 87.6253Z" stroke="#845919" stroke-width="2" stroke-linecap="round"/>
<path d="M80.8855 82.1539C69.9423 66.8334 45.5391 39.2567 35.4713 51.513C22.8867 66.8334 48.056 96.9271 58.452 94.7385C68.848 92.5498 41.4902 73.3994 22.8868 82.1539C4.28346 90.9084 38.7542 116.625 58.452 111.7C35.4713 128.115 45.8673 140.153 72.678 125.926" stroke="white" stroke-width="2" stroke-linecap="round"/>
<path d="M168.56 76.059C176.51 58.9925 195.446 27.4103 207.589 37.6139C222.769 50.3683 203.541 84.5652 192.92 84.3189C182.299 84.0727 205.684 60.2326 225.576 65.4293C245.469 70.6259 216.295 102.224 196.029 100.994C221.629 112.918 213.615 126.657 184.651 117.586" stroke="white" stroke-width="2" stroke-linecap="round"/>
<path d="M161.317 37.8929C156.575 27.6793 149.17 6.92378 157.487 5.6106C167.883 3.96912 148.186 37.8929 136.695 25.8554" stroke="white" stroke-width="2" stroke-linecap="round"/>
<path d="M116.998 1.23315L125.753 14.9121" stroke="white" stroke-width="2" stroke-linecap="round"/>
<path d="M90.4094 48.2815C84.3431 40.9141 74.3804 24.4252 83.0591 17.4093C93.9075 8.63945 87.0637 38.9539 74.9227 32.8453C65.2099 27.9584 69.5578 14.2494 72.9458 8.00573" stroke="white" stroke-width="2" stroke-linecap="round"/>
</svg>
