<svg width="288" height="281" viewBox="0 0 288 281" fill="none" xmlns="http://www.w3.org/2000/svg">
<circle cx="131.23" cy="131.23" r="131.23" transform="matrix(-1 0 0 1 268.862 0)" fill="#0B1A52"/>
<path d="M185.309 93.0264C217.165 132.143 198.582 172.316 185.309 187.513C184.383 187.513 178.588 186.476 162.819 182.327C147.049 178.179 125.586 180.599 116.825 182.327L97.7709 186.27L82.6589 175.757L76.0884 168.53L72.0271 149.851C56.2362 87.0796 145.488 44.131 185.309 93.0264Z" fill="#FFBB56"/>
<path d="M287 263.681C280.649 273.099 263.478 288.254 245.606 273.537C223.266 255.139 262.689 215.716 260.718 234.114C258.747 252.511 231.151 257.11 228.523 237.399C225.895 217.688 208.154 192.72 194.356 192.063C157.562 178.265 139.822 176.294 108.94 184.178C76.745 188.12 73.4598 201.918 74.7739 207.832C76.088 213.745 92.5141 209.146 104.341 209.146C116.168 209.146 136.536 207.175 149.677 211.774" stroke="white" stroke-width="2" stroke-linecap="round"/>
<path d="M179.244 232.799C165.008 230.171 134.039 225.309 124.052 226.886C111.568 228.857 96.4562 219.001 89.8858 211.117" stroke="white" stroke-width="2" stroke-linecap="round"/>
<path d="M76.7451 197.976C63.6041 186.149 37.3223 161.969 37.3223 159.867C37.3223 157.239 41.2646 151.325 59.0048 157.896C73.197 163.152 78.9352 170.161 80.0303 173.008L94.4854 184.178" stroke="white" stroke-width="2" stroke-linecap="round"/>
<path d="M101.713 209.146C98.8657 206.737 90.8059 202.444 81.3444 204.546" stroke="white" stroke-width="2" stroke-linecap="round"/>
<path d="M167.416 231.486C169.606 239.151 172.278 257.636 165.445 270.251" stroke="white" stroke-width="2" stroke-linecap="round"/>
<path d="M185.309 187.513C198.582 172.316 217.165 132.143 185.309 93.0263C145.488 44.131 56.2362 87.0796 72.027 149.851" stroke="white" stroke-width="2" stroke-linecap="round"/>
<path d="M134.898 171.881C129.257 166.709 124.7 160.496 120.829 153.91C118.856 150.55 117.052 147.094 115.353 143.588C113.592 139.956 111.861 136.286 110.377 132.531C108.783 128.499 107.587 124.305 107.16 119.978C106.794 116.277 106.791 112.224 108.631 108.878C110.063 106.275 113.044 104.133 116.127 104.577C119.655 105.084 121.437 108.878 123.004 111.645C125.208 115.532 127.439 119.405 129.606 123.315C131.47 126.677 133.204 130.124 134.262 133.829C134.145 134.417 134.046 135.008 133.95 135.607C133.824 136.379 134.822 136.65 135.107 135.927C135.164 135.783 135.222 135.639 135.281 135.496C136.005 135.647 136.909 135.066 136.67 134.118C136.562 133.692 136.445 133.27 136.321 132.85C136.35 132.763 136.382 132.676 136.411 132.588C137.953 127.924 139.894 123.395 142.222 119.074C144.401 115.03 146.823 111.01 150.118 107.776C153.195 104.754 157.225 102.382 161.602 102.12C165.352 101.896 169.468 103.342 171.713 106.5C174.289 110.126 174.247 115.065 173.656 119.296C173.027 123.808 171.524 128.169 169.573 132.268C167.568 136.476 165.12 140.453 162.533 144.321C160.02 148.077 157.44 151.795 154.682 155.372C149.459 162.148 143.497 168.49 136.228 173.059C135.781 172.673 135.337 172.284 134.902 171.884L134.898 171.881Z" fill="white"/>
<path d="M173.331 108.011C179.639 126.933 150.992 159.26 135.88 173.058C116.168 158.603 97.7711 109.325 112.226 104.725C126.681 100.126 134.566 121.152 134.566 136.264C135.223 123.123 165.447 84.3569 173.331 108.011Z" stroke="#845919" stroke-width="2" stroke-linecap="round"/>
<path d="M191.07 101.44C204.211 83.0431 233.516 49.928 245.605 64.6458C260.717 83.0431 230.493 119.181 218.009 116.553C205.525 113.924 238.378 90.9277 260.717 101.44C283.057 111.953 241.663 142.834 218.009 136.921C245.605 156.632 233.122 171.087 200.926 154.004" stroke="white" stroke-width="2" stroke-linecap="round"/>
<path d="M85.789 94.1215C76.2424 73.6274 53.5037 35.7024 38.9214 47.9552C20.6935 63.2712 43.7826 104.336 56.5367 104.04C69.2908 103.745 41.2098 75.1166 17.3219 81.357C-6.56602 87.5973 28.4667 125.542 52.8037 124.064C22.0625 138.384 31.6856 154.882 66.4665 143.989" stroke="white" stroke-width="2" stroke-linecap="round"/>
<path d="M94.4849 48.29C100.179 36.0251 109.071 11.1011 99.0842 9.5242C86.6003 7.55306 110.254 48.29 124.052 33.8349" stroke="white" stroke-width="2" stroke-linecap="round"/>
<path d="M147.706 4.26807L137.193 20.6942" stroke="white" stroke-width="2" stroke-linecap="round"/>
<path d="M179.634 60.7649C186.918 51.9178 198.882 32.1173 188.46 23.6924C175.433 13.1613 183.651 49.564 198.231 42.2285C209.894 36.3602 204.673 19.8979 200.605 12.4003" stroke="white" stroke-width="2" stroke-linecap="round"/>
</svg>
